<mxfile host="app.diagrams.net" modified="2021-04-28T16:46:19.469Z" agent="5.0 (Windows NT 10.0; Win64; x64) AppleWebKit/537.36 (KHTML, like Gecko) Chrome/90.0.4430.85 Safari/537.36" etag="n5rHbu1oF5-bdWdTDt5y" version="14.6.6" type="github">
  <diagram name="Page-1" id="bfe91b75-5d2c-26a0-9c1d-138518896778">
    <mxGraphModel dx="981" dy="1671" grid="1" gridSize="5" guides="1" tooltips="1" connect="1" arrows="1" fold="1" page="1" pageScale="1" pageWidth="850" pageHeight="1100" background="none" math="0" shadow="0">
      <root>
        <mxCell id="0" />
        <mxCell id="1" parent="0" />
        <mxCell id="5ZAUk3ZZXwPiC2q51OY_-203" value="" style="group" parent="1" vertex="1" connectable="0">
          <mxGeometry x="45" y="19" width="755" height="934" as="geometry" />
        </mxCell>
        <mxCell id="7c3789c024ecab99-78" value="Heavy Vehicle Shop" style="rounded=1;whiteSpace=wrap;html=1;shadow=0;comic=0;strokeColor=#036897;strokeWidth=2;fillColor=none;fontFamily=Verdana;fontSize=28;fontColor=#6881B3;align=center;arcSize=11;verticalAlign=top;spacing=0;editable=0;movable=1;connectable=0;allowArrows=0;rotatable=0;" parent="5ZAUk3ZZXwPiC2q51OY_-203" vertex="1">
          <mxGeometry width="755" height="815" as="geometry" />
        </mxCell>
        <mxCell id="5ZAUk3ZZXwPiC2q51OY_-87" value="" style="group" parent="5ZAUk3ZZXwPiC2q51OY_-203" vertex="1" connectable="0">
          <mxGeometry x="130" y="115" width="210" height="371" as="geometry" />
        </mxCell>
        <mxCell id="5ZAUk3ZZXwPiC2q51OY_-60" value="" style="group" parent="5ZAUk3ZZXwPiC2q51OY_-87" vertex="1" connectable="0">
          <mxGeometry y="21" width="210" height="350" as="geometry" />
        </mxCell>
        <mxCell id="kBP0Oe7k8TxSiVuU12CA-8" value="" style="rounded=0;whiteSpace=wrap;html=1;spacing=0;" parent="5ZAUk3ZZXwPiC2q51OY_-60" vertex="1">
          <mxGeometry width="210" height="350" as="geometry" />
        </mxCell>
        <mxCell id="kBP0Oe7k8TxSiVuU12CA-20" value="Pump 1" style="shape=mxgraph.signs.transportation.gas_1;html=1;pointerEvents=1;fillColor=#000000;strokeColor=none;verticalLabelPosition=bottom;verticalAlign=top;align=center;spacing=0;flipH=1;" parent="5ZAUk3ZZXwPiC2q51OY_-60" vertex="1">
          <mxGeometry x="42.525" y="77" width="32.550000000000004" height="37" as="geometry" />
        </mxCell>
        <mxCell id="kBP0Oe7k8TxSiVuU12CA-27" value="Pump 3" style="shape=mxgraph.signs.transportation.gas_1;html=1;pointerEvents=1;fillColor=#000000;strokeColor=none;verticalLabelPosition=bottom;verticalAlign=top;align=center;spacing=0;" parent="5ZAUk3ZZXwPiC2q51OY_-60" vertex="1">
          <mxGeometry x="93.1875" y="280" width="32.550000000000004" height="38" as="geometry" />
        </mxCell>
        <mxCell id="kBP0Oe7k8TxSiVuU12CA-54" value="" style="shape=image;html=1;verticalLabelPosition=bottom;verticalAlign=top;imageAspect=0;image=img/clipart/Gear_128x128.png;direction=west;spacing=0;" parent="5ZAUk3ZZXwPiC2q51OY_-60" vertex="1">
          <mxGeometry x="48.300000000000004" y="27" width="26.775000000000002" height="30" as="geometry" />
        </mxCell>
        <mxCell id="kBP0Oe7k8TxSiVuU12CA-75" value="" style="endArrow=classic;html=1;strokeWidth=2;exitX=0.41;exitY=0;exitDx=0;exitDy=0;exitPerimeter=0;spacing=0;entryX=1;entryY=0.5;entryDx=0;entryDy=0;" parent="5ZAUk3ZZXwPiC2q51OY_-60" source="kBP0Oe7k8TxSiVuU12CA-27" target="5ZAUk3ZZXwPiC2q51OY_-25" edge="1">
          <mxGeometry x="78.75" y="195" width="52.5" height="50" as="geometry">
            <mxPoint x="624.75" y="585" as="sourcePoint" />
            <mxPoint x="106.05000000000001" y="250" as="targetPoint" />
          </mxGeometry>
        </mxCell>
        <mxCell id="7c3789c024ecab99-19" style="edgeStyle=none;html=1;labelBackgroundColor=none;endArrow=none;endFill=0;strokeWidth=2;fontFamily=Verdana;fontSize=15;fontColor=#036897;spacing=0;entryX=0.5;entryY=0;entryDx=0;entryDy=0;exitX=0.41;exitY=0;exitDx=0;exitDy=0;exitPerimeter=0;" parent="5ZAUk3ZZXwPiC2q51OY_-60" source="kBP0Oe7k8TxSiVuU12CA-20" target="kBP0Oe7k8TxSiVuU12CA-54" edge="1">
          <mxGeometry x="78.75" y="195" as="geometry">
            <mxPoint x="84" y="47" as="targetPoint" />
            <mxPoint x="120.75" y="47" as="sourcePoint" />
          </mxGeometry>
        </mxCell>
        <mxCell id="7c3789c024ecab99-22" style="edgeStyle=none;html=1;labelBackgroundColor=none;endArrow=none;endFill=0;strokeWidth=2;fontFamily=Verdana;fontSize=15;fontColor=#036897;entryX=0.095;entryY=0.5;entryDx=0;entryDy=0;entryPerimeter=0;exitX=0;exitY=0.5;exitDx=0;exitDy=0;spacing=0;" parent="5ZAUk3ZZXwPiC2q51OY_-60" source="kBP0Oe7k8TxSiVuU12CA-35" target="kBP0Oe7k8TxSiVuU12CA-27" edge="1">
          <mxGeometry x="78.75" y="195" as="geometry">
            <mxPoint x="866.25" y="515" as="sourcePoint" />
            <mxPoint x="918.75" y="514.9992857142857" as="targetPoint" />
          </mxGeometry>
        </mxCell>
        <mxCell id="5ZAUk3ZZXwPiC2q51OY_-17" value="" style="shape=image;html=1;verticalLabelPosition=bottom;verticalAlign=top;imageAspect=0;image=img/clipart/Gear_128x128.png;direction=west;spacing=0;" parent="5ZAUk3ZZXwPiC2q51OY_-60" vertex="1">
          <mxGeometry x="136.2375" y="26" width="26.775000000000002" height="30" as="geometry" />
        </mxCell>
        <mxCell id="5ZAUk3ZZXwPiC2q51OY_-18" value="Pump 2" style="shape=mxgraph.signs.transportation.gas_1;html=1;pointerEvents=1;fillColor=#000000;strokeColor=none;verticalLabelPosition=bottom;verticalAlign=top;align=center;spacing=0;" parent="5ZAUk3ZZXwPiC2q51OY_-60" vertex="1">
          <mxGeometry x="136.2375" y="76" width="32.550000000000004" height="38" as="geometry" />
        </mxCell>
        <mxCell id="kBP0Oe7k8TxSiVuU12CA-74" value="" style="endArrow=classic;html=1;strokeWidth=2;entryX=0.25;entryY=0;entryDx=0;entryDy=0;spacing=0;" parent="5ZAUk3ZZXwPiC2q51OY_-60" source="kBP0Oe7k8TxSiVuU12CA-20" target="5ZAUk3ZZXwPiC2q51OY_-26" edge="1">
          <mxGeometry x="78.75" y="195" width="52.5" height="50" as="geometry">
            <mxPoint x="89.25" y="110" as="sourcePoint" />
            <mxPoint x="90.6674999999999" y="171.19999999999982" as="targetPoint" />
            <Array as="points">
              <mxPoint x="92.4" y="97" />
            </Array>
          </mxGeometry>
        </mxCell>
        <mxCell id="5ZAUk3ZZXwPiC2q51OY_-23" style="edgeStyle=none;html=1;labelBackgroundColor=none;endArrow=none;endFill=0;strokeWidth=2;fontFamily=Verdana;fontSize=15;fontColor=#036897;exitX=0.41;exitY=0;exitDx=0;exitDy=0;spacing=0;exitPerimeter=0;entryX=0.5;entryY=0;entryDx=0;entryDy=0;" parent="5ZAUk3ZZXwPiC2q51OY_-60" source="5ZAUk3ZZXwPiC2q51OY_-18" target="5ZAUk3ZZXwPiC2q51OY_-17" edge="1">
          <mxGeometry x="138.6" y="249" as="geometry">
            <mxPoint x="178.5" y="78" as="targetPoint" />
            <mxPoint x="148.57500000000002" y="79" as="sourcePoint" />
            <Array as="points" />
          </mxGeometry>
        </mxCell>
        <mxCell id="5ZAUk3ZZXwPiC2q51OY_-37" value="" style="endArrow=classic;html=1;strokeWidth=2;spacing=0;entryX=0.75;entryY=0;entryDx=0;entryDy=0;" parent="5ZAUk3ZZXwPiC2q51OY_-60" source="5ZAUk3ZZXwPiC2q51OY_-18" target="5ZAUk3ZZXwPiC2q51OY_-26" edge="1">
          <mxGeometry x="119.4375" y="278" width="52.5" height="50" as="geometry">
            <mxPoint x="139.32974999999993" y="95.00000000000023" as="sourcePoint" />
            <mxPoint x="121.00462500000008" y="165.28999999999996" as="targetPoint" />
            <Array as="points">
              <mxPoint x="120.75" y="94" />
            </Array>
          </mxGeometry>
        </mxCell>
        <mxCell id="5ZAUk3ZZXwPiC2q51OY_-45" value="Pump Relay" style="text;html=1;strokeColor=none;fillColor=none;align=center;verticalAlign=middle;whiteSpace=wrap;rounded=0;" parent="5ZAUk3ZZXwPiC2q51OY_-60" vertex="1">
          <mxGeometry x="2.1" y="32" width="42" height="20" as="geometry" />
        </mxCell>
        <mxCell id="5ZAUk3ZZXwPiC2q51OY_-51" value="Pump Relay" style="text;html=1;strokeColor=none;fillColor=none;align=center;verticalAlign=middle;whiteSpace=wrap;rounded=0;" parent="5ZAUk3ZZXwPiC2q51OY_-60" vertex="1">
          <mxGeometry x="163.5375" y="30" width="42" height="20" as="geometry" />
        </mxCell>
        <mxCell id="5ZAUk3ZZXwPiC2q51OY_-53" value="" style="group" parent="5ZAUk3ZZXwPiC2q51OY_-60" vertex="1" connectable="0">
          <mxGeometry x="77.7" y="165.28999999999996" width="57.75" height="68.935" as="geometry" />
        </mxCell>
        <mxCell id="5ZAUk3ZZXwPiC2q51OY_-24" value="" style="rounded=0;whiteSpace=wrap;html=1;fillColor=#D1D1D1;strokeColor=#007FFF;" parent="5ZAUk3ZZXwPiC2q51OY_-53" vertex="1">
          <mxGeometry width="57.75" height="20" as="geometry" />
        </mxCell>
        <mxCell id="5ZAUk3ZZXwPiC2q51OY_-25" value="" style="rounded=0;whiteSpace=wrap;html=1;rotation=90;fillColor=#CCCCCC;spacing=2;strokeColor=#007FFF;" parent="5ZAUk3ZZXwPiC2q51OY_-53" vertex="1">
          <mxGeometry x="2.7929999999999966" y="35.97" width="52.164" height="16.25" as="geometry" />
        </mxCell>
        <mxCell id="5ZAUk3ZZXwPiC2q51OY_-26" value="&lt;div style=&quot;font-size: 9px&quot;&gt;&lt;font style=&quot;font-size: 9px&quot;&gt;FMU&lt;/font&gt;&lt;/div&gt;&lt;div style=&quot;font-size: 9px&quot;&gt;&lt;font style=&quot;font-size: 9px&quot;&gt;SN XXX003 &lt;br&gt;&lt;/font&gt;&lt;/div&gt;" style="text;html=1;strokeColor=none;align=center;verticalAlign=middle;whiteSpace=wrap;rounded=0;fillColor=#A9C4EB;" parent="5ZAUk3ZZXwPiC2q51OY_-53" vertex="1">
          <mxGeometry width="57.73950000000001" height="20" as="geometry" />
        </mxCell>
        <mxCell id="kBP0Oe7k8TxSiVuU12CA-35" value="" style="shape=image;html=1;verticalLabelPosition=bottom;verticalAlign=top;imageAspect=0;image=img/clipart/Gear_128x128.png;direction=west;spacing=0;" parent="5ZAUk3ZZXwPiC2q51OY_-60" vertex="1">
          <mxGeometry x="30.450000000000003" y="284" width="26.775000000000002" height="30" as="geometry" />
        </mxCell>
        <mxCell id="5ZAUk3ZZXwPiC2q51OY_-58" value="Pump Relay" style="text;html=1;strokeColor=none;fillColor=none;align=center;verticalAlign=middle;whiteSpace=wrap;rounded=0;" parent="5ZAUk3ZZXwPiC2q51OY_-60" vertex="1">
          <mxGeometry x="23.625" y="260" width="42" height="20" as="geometry" />
        </mxCell>
        <mxCell id="5ZAUk3ZZXwPiC2q51OY_-85" value="&lt;div style=&quot;font-size: 8px&quot; align=&quot;left&quot;&gt;&lt;font style=&quot;font-size: 8px&quot;&gt;Public IP: 12.204.220.55&lt;/font&gt;&lt;font style=&quot;font-size: 8px&quot;&gt;&lt;br style=&quot;font-size: 8px&quot;&gt;&lt;/font&gt;&lt;/div&gt;&lt;div style=&quot;font-size: 8px&quot; align=&quot;left&quot;&gt;&lt;font style=&quot;font-size: 8px&quot;&gt;Internal IP: 10.7.1.75&lt;/font&gt;&lt;/div&gt;&lt;div style=&quot;font-size: 8px&quot; align=&quot;left&quot;&gt;&lt;font style=&quot;font-size: 8px&quot;&gt;Internal Gateway: 10.7.1.2&lt;/font&gt;&lt;font style=&quot;font-size: 8px&quot;&gt;&lt;font style=&quot;font-size: 8px&quot;&gt;&lt;span style=&quot;line-height: 100% ; font-size: 8px&quot;&gt;&lt;/span&gt;&lt;/font&gt;&lt;/font&gt;&lt;/div&gt;" style="text;html=1;strokeColor=none;fillColor=none;align=left;verticalAlign=middle;whiteSpace=wrap;rounded=0;fontSize=8;" parent="5ZAUk3ZZXwPiC2q51OY_-60" vertex="1">
          <mxGeometry x="1.3125" y="190" width="103.6875" height="40" as="geometry" />
        </mxCell>
        <mxCell id="kBP0Oe7k8TxSiVuU12CA-136" value="Island A" style="text;html=1;strokeColor=none;fillColor=none;align=center;verticalAlign=middle;whiteSpace=wrap;rounded=0;spacing=0;" parent="5ZAUk3ZZXwPiC2q51OY_-87" vertex="1">
          <mxGeometry x="72.45" width="64.05" height="20" as="geometry" />
        </mxCell>
        <mxCell id="kBP0Oe7k8TxSiVuU12CA-90" value="" style="html=1;outlineConnect=0;fillColor=#e1d5e7;gradientDirection=north;strokeWidth=2;shape=mxgraph.networks.comm_link_edge;html=1;startArrow=classic;startFill=1;endArrow=classic;endFill=1;entryX=0.75;entryY=0;entryDx=0;entryDy=0;strokeColor=#9673a6;spacing=0;exitX=1;exitY=1;exitDx=0;exitDy=0;" parent="5ZAUk3ZZXwPiC2q51OY_-203" source="5ZAUk3ZZXwPiC2q51OY_-25" target="kBP0Oe7k8TxSiVuU12CA-36" edge="1">
          <mxGeometry width="100" height="100" relative="1" as="geometry">
            <mxPoint x="100" y="431" as="sourcePoint" />
            <mxPoint x="449" y="752.2" as="targetPoint" />
            <Array as="points">
              <mxPoint x="80" y="456" />
              <mxPoint x="429" y="732.2" />
            </Array>
          </mxGeometry>
        </mxCell>
        <mxCell id="kBP0Oe7k8TxSiVuU12CA-137" value="Island B" style="text;html=1;strokeColor=none;fillColor=none;align=center;verticalAlign=middle;whiteSpace=wrap;rounded=0;spacing=0;" parent="5ZAUk3ZZXwPiC2q51OY_-203" vertex="1">
          <mxGeometry x="495" y="115" width="61" height="20" as="geometry" />
        </mxCell>
        <mxCell id="kBP0Oe7k8TxSiVuU12CA-140" value="Internet" style="html=1;verticalLabelPosition=bottom;align=center;labelBackgroundColor=#ffffff;verticalAlign=top;strokeWidth=2;strokeColor=#0080F0;shadow=0;dashed=0;shape=mxgraph.ios7.icons.globe;spacing=0;" parent="5ZAUk3ZZXwPiC2q51OY_-203" vertex="1">
          <mxGeometry x="546.48" y="863" width="78" height="71" as="geometry" />
        </mxCell>
        <mxCell id="kBP0Oe7k8TxSiVuU12CA-450" value="" style="fontColor=#0066CC;verticalAlign=top;verticalLabelPosition=bottom;labelPosition=center;align=center;html=1;outlineConnect=0;fillColor=#CCCCCC;strokeColor=#6881B3;gradientColor=none;gradientDirection=north;strokeWidth=2;shape=mxgraph.networks.router;spacing=0;" parent="5ZAUk3ZZXwPiC2q51OY_-203" vertex="1">
          <mxGeometry x="334.48" y="885" width="100" height="30" as="geometry" />
        </mxCell>
        <mxCell id="kBP0Oe7k8TxSiVuU12CA-451" value="COK Firewall" style="image;html=1;image=img/lib/clip_art/networking/Firewall_02_128x128.png;spacing=0;" parent="5ZAUk3ZZXwPiC2q51OY_-203" vertex="1">
          <mxGeometry x="445.48" y="876" width="56" height="48" as="geometry" />
        </mxCell>
        <mxCell id="kBP0Oe7k8TxSiVuU12CA-452" value="" style="shape=link;html=1;startArrow=classic;startFill=1;endArrow=classic;endFill=1;strokeColor=#000000;strokeWidth=2;exitX=1;exitY=0.5;exitDx=0;exitDy=0;exitPerimeter=0;entryX=0;entryY=0.5;entryDx=0;entryDy=0;spacing=0;" parent="5ZAUk3ZZXwPiC2q51OY_-203" edge="1">
          <mxGeometry width="100" relative="1" as="geometry">
            <mxPoint x="440.48" y="900" as="sourcePoint" />
            <mxPoint x="449.48" y="900" as="targetPoint" />
          </mxGeometry>
        </mxCell>
        <mxCell id="kBP0Oe7k8TxSiVuU12CA-455" value="" style="endArrow=classic;startArrow=classic;html=1;strokeWidth=2;exitX=1;exitY=0.5;exitDx=0;exitDy=0;spacing=0;strokeColor=#FF8000;entryX=0.003;entryY=0.511;entryDx=0;entryDy=0;entryPerimeter=0;" parent="5ZAUk3ZZXwPiC2q51OY_-203" source="kBP0Oe7k8TxSiVuU12CA-451" target="kBP0Oe7k8TxSiVuU12CA-140" edge="1">
          <mxGeometry width="50" height="50" relative="1" as="geometry">
            <mxPoint x="540.48" y="1213" as="sourcePoint" />
            <mxPoint x="540.48" y="991" as="targetPoint" />
          </mxGeometry>
        </mxCell>
        <mxCell id="kBP0Oe7k8TxSiVuU12CA-456" value="FMLive" style="aspect=fixed;html=1;points=[];align=center;image;fontSize=12;image=img/lib/mscae/Cloud_Services_Classic.svg;spacing=0;" parent="5ZAUk3ZZXwPiC2q51OY_-203" vertex="1">
          <mxGeometry x="687.34" y="873" width="50" height="42" as="geometry" />
        </mxCell>
        <mxCell id="kBP0Oe7k8TxSiVuU12CA-457" value="" style="endArrow=classic;startArrow=classic;html=1;strokeWidth=2;entryX=-0.008;entryY=0.529;entryDx=0;entryDy=0;entryPerimeter=0;spacing=0;strokeColor=#FF8000;exitX=0.992;exitY=0.471;exitDx=0;exitDy=0;exitPerimeter=0;" parent="5ZAUk3ZZXwPiC2q51OY_-203" source="kBP0Oe7k8TxSiVuU12CA-140" target="kBP0Oe7k8TxSiVuU12CA-456" edge="1">
          <mxGeometry width="50" height="50" relative="1" as="geometry">
            <mxPoint x="650.48" y="1001" as="sourcePoint" />
            <mxPoint x="670.48" y="1203" as="targetPoint" />
          </mxGeometry>
        </mxCell>
        <mxCell id="my2wBsY7dScjlPKwic7B-88" value="COK Cisco Router" style="text;html=1;strokeColor=none;fillColor=none;align=center;verticalAlign=middle;whiteSpace=wrap;rounded=0;spacing=0;" parent="5ZAUk3ZZXwPiC2q51OY_-203" vertex="1">
          <mxGeometry x="220" y="895" width="105.48" height="20" as="geometry" />
        </mxCell>
        <mxCell id="kBP0Oe7k8TxSiVuU12CA-52" value="Employee" style="pointerEvents=1;shadow=0;dashed=0;html=1;strokeColor=none;fillColor=#505050;labelPosition=center;verticalLabelPosition=bottom;verticalAlign=top;outlineConnect=0;align=center;shape=mxgraph.office.users.user;rotation=0;spacing=0;" parent="5ZAUk3ZZXwPiC2q51OY_-203" vertex="1">
          <mxGeometry x="308.5" y="586" width="31.5" height="35" as="geometry" />
        </mxCell>
        <mxCell id="kBP0Oe7k8TxSiVuU12CA-89" value="" style="endArrow=none;dashed=1;html=1;dashPattern=1 2;strokeWidth=2;spacing=0;" parent="5ZAUk3ZZXwPiC2q51OY_-203" source="kBP0Oe7k8TxSiVuU12CA-88" target="kBP0Oe7k8TxSiVuU12CA-52" edge="1">
          <mxGeometry width="50" height="50" relative="1" as="geometry">
            <mxPoint x="269" y="856" as="sourcePoint" />
            <mxPoint x="319" y="806" as="targetPoint" />
          </mxGeometry>
        </mxCell>
        <mxCell id="kBP0Oe7k8TxSiVuU12CA-440" value="&lt;div&gt;&lt;font style=&quot;font-size: 17px&quot;&gt;&lt;span style=&quot;font-family: &amp;#34;calibri&amp;#34; , sans-serif&quot;&gt;&lt;span&gt;1400 Loraine Street&lt;/span&gt;&lt;br&gt;&lt;/span&gt;&lt;/font&gt;&lt;/div&gt;&lt;div&gt;&lt;font style=&quot;font-size: 17px&quot;&gt;&lt;span style=&quot;font-family: &amp;#34;calibri&amp;#34; , sans-serif&quot;&gt;2 Islands, 6 Fuel Dispensers, 12 Hoses,&amp;nbsp; 2 Tanks&lt;/span&gt;&lt;/font&gt;&lt;/div&gt;" style="text;html=1;strokeColor=none;fillColor=none;align=center;verticalAlign=middle;whiteSpace=wrap;rounded=0;spacing=0;" parent="5ZAUk3ZZXwPiC2q51OY_-203" vertex="1">
          <mxGeometry x="240.48000000000002" y="56" width="324.52" height="45" as="geometry" />
        </mxCell>
        <mxCell id="kBP0Oe7k8TxSiVuU12CA-129" value="Wireless" style="pointerEvents=1;shadow=0;dashed=0;html=1;strokeColor=none;fillColor=#505050;labelPosition=center;verticalLabelPosition=bottom;verticalAlign=top;outlineConnect=0;align=center;shape=mxgraph.office.devices.modem;spacing=0;" parent="5ZAUk3ZZXwPiC2q51OY_-203" vertex="1">
          <mxGeometry x="532.1664985163204" y="715" width="49.99406528189911" height="34" as="geometry" />
        </mxCell>
        <mxCell id="kBP0Oe7k8TxSiVuU12CA-132" value="" style="fontColor=#0066CC;verticalAlign=top;verticalLabelPosition=bottom;labelPosition=center;align=center;html=1;outlineConnect=0;fillColor=#CCCCCC;strokeColor=#6881B3;gradientColor=none;gradientDirection=north;strokeWidth=2;shape=mxgraph.networks.laptop;spacing=0;" parent="5ZAUk3ZZXwPiC2q51OY_-203" vertex="1">
          <mxGeometry x="643.2644213649852" y="712" width="69.43620178041543" height="40" as="geometry" />
        </mxCell>
        <mxCell id="kBP0Oe7k8TxSiVuU12CA-2" value="COK Switch" style="verticalAlign=top;verticalLabelPosition=bottom;labelPosition=center;align=center;html=1;outlineConnect=0;fillColor=#CCCCCC;strokeColor=#6881B3;gradientColor=none;gradientDirection=north;strokeWidth=2;shape=mxgraph.networks.switch;spacing=0;" parent="5ZAUk3ZZXwPiC2q51OY_-203" vertex="1">
          <mxGeometry x="329.92910979228486" y="717" width="92.58160237388724" height="30" as="geometry" />
        </mxCell>
        <mxCell id="7c3789c024ecab99-2" value="PROKEE Encoder" style="verticalAlign=top;verticalLabelPosition=bottom;labelPosition=center;align=center;html=1;fillColor=#CCCCCC;strokeColor=#6881B3;gradientColor=none;gradientDirection=north;strokeWidth=2;shape=mxgraph.networks.pc;rounded=0;shadow=0;comic=0;spacing=0;" parent="5ZAUk3ZZXwPiC2q51OY_-203" vertex="1">
          <mxGeometry x="87.77480712166198" y="708" width="92.58160237388724" height="70" as="geometry" />
        </mxCell>
        <mxCell id="kBP0Oe7k8TxSiVuU12CA-138" value="" style="shape=mxgraph.signs.tech.usb;html=1;pointerEvents=1;fillColor=#000000;strokeColor=none;verticalLabelPosition=bottom;verticalAlign=top;align=center;spacing=0;" parent="5ZAUk3ZZXwPiC2q51OY_-203" vertex="1">
          <mxGeometry x="60.00032640949553" y="706" width="18.516320474777448" height="42" as="geometry" />
        </mxCell>
        <mxCell id="kBP0Oe7k8TxSiVuU12CA-131" value="" style="endArrow=classic;startArrow=classic;html=1;strokeWidth=2;entryX=1;entryY=0.5;entryDx=0;entryDy=0;entryPerimeter=0;spacing=0;strokeColor=#FF0000;" parent="5ZAUk3ZZXwPiC2q51OY_-203" source="kBP0Oe7k8TxSiVuU12CA-129" target="kBP0Oe7k8TxSiVuU12CA-2" edge="1">
          <mxGeometry width="50" height="50" relative="1" as="geometry">
            <mxPoint x="342.973293768546" y="567" as="sourcePoint" />
            <mxPoint x="389.2640949554896" y="517" as="targetPoint" />
          </mxGeometry>
        </mxCell>
        <mxCell id="kBP0Oe7k8TxSiVuU12CA-288" value="" style="edgeStyle=orthogonalEdgeStyle;rounded=0;orthogonalLoop=1;jettySize=auto;html=1;startArrow=classic;startFill=1;endArrow=classic;endFill=1;strokeWidth=2;spacing=0;fillColor=#dae8fc;strokeColor=#FF0000;" parent="5ZAUk3ZZXwPiC2q51OY_-203" source="kBP0Oe7k8TxSiVuU12CA-129" target="kBP0Oe7k8TxSiVuU12CA-2" edge="1">
          <mxGeometry relative="1" as="geometry" />
        </mxCell>
        <mxCell id="kBP0Oe7k8TxSiVuU12CA-133" value="" style="html=1;outlineConnect=0;fillColor=#dae8fc;gradientDirection=north;strokeWidth=2;shape=mxgraph.networks.comm_link_edge;html=1;startArrow=classic;startFill=1;endArrow=classic;endFill=1;entryX=0.15;entryY=0.5;entryDx=0;entryDy=0;entryPerimeter=0;strokeColor=#6c8ebf;exitX=0.852;exitY=0.284;exitDx=0;exitDy=0;exitPerimeter=0;spacing=0;" parent="5ZAUk3ZZXwPiC2q51OY_-203" source="kBP0Oe7k8TxSiVuU12CA-129" target="kBP0Oe7k8TxSiVuU12CA-132" edge="1">
          <mxGeometry width="100" height="100" relative="1" as="geometry">
            <mxPoint x="635.5311572700297" y="86" as="sourcePoint" />
            <mxPoint x="724.4094955489614" y="100" as="targetPoint" />
          </mxGeometry>
        </mxCell>
        <mxCell id="kBP0Oe7k8TxSiVuU12CA-18" value="" style="endArrow=classic;html=1;exitX=1;exitY=0.343;exitDx=0;exitDy=0;exitPerimeter=0;strokeWidth=2;startArrow=classic;startFill=1;endFill=1;spacing=0;strokeColor=#FF0000;" parent="5ZAUk3ZZXwPiC2q51OY_-203" source="7c3789c024ecab99-2" target="kBP0Oe7k8TxSiVuU12CA-2" edge="1">
          <mxGeometry width="50" height="50" relative="1" as="geometry">
            <mxPoint x="278.1661721068249" y="693" as="sourcePoint" />
            <mxPoint x="370.74777448071217" y="543" as="targetPoint" />
          </mxGeometry>
        </mxCell>
        <mxCell id="kBP0Oe7k8TxSiVuU12CA-139" style="edgeStyle=orthogonalEdgeStyle;rounded=0;orthogonalLoop=1;jettySize=auto;html=1;exitX=0.5;exitY=1;exitDx=0;exitDy=0;exitPerimeter=0;startArrow=none;startFill=0;endArrow=none;endFill=0;strokeWidth=2;spacing=0;" parent="5ZAUk3ZZXwPiC2q51OY_-203" edge="1">
          <mxGeometry relative="1" as="geometry">
            <mxPoint x="70" y="752" as="sourcePoint" />
            <mxPoint x="90" y="786" as="targetPoint" />
            <Array as="points">
              <mxPoint x="70" y="786" />
            </Array>
          </mxGeometry>
        </mxCell>
        <mxCell id="kBP0Oe7k8TxSiVuU12CA-105" value="" style="group;spacing=0;" parent="5ZAUk3ZZXwPiC2q51OY_-203" vertex="1" connectable="0">
          <mxGeometry x="687.3442136498517" y="241" width="46.29080118694362" height="158" as="geometry" />
        </mxCell>
        <object label="Tank B" Tank1="" id="kBP0Oe7k8TxSiVuU12CA-106">
          <mxCell style="shape=mxgraph.pid.vessels.tank;html=1;pointerEvents=1;align=center;verticalLabelPosition=bottom;verticalAlign=top;dashed=0;spacing=0;" parent="kBP0Oe7k8TxSiVuU12CA-105" vertex="1">
            <mxGeometry width="46.29080118694362" height="158" as="geometry" />
          </mxCell>
        </object>
        <mxCell id="kBP0Oe7k8TxSiVuU12CA-107" value="" style="group;spacing=0;" parent="kBP0Oe7k8TxSiVuU12CA-105" vertex="1" connectable="0">
          <mxGeometry x="1" y="18" width="46.29080118694362" height="90" as="geometry" />
        </mxCell>
        <mxCell id="kBP0Oe7k8TxSiVuU12CA-108" value="RS 232" style="pointerEvents=1;verticalLabelPosition=bottom;shadow=0;dashed=0;align=center;html=1;verticalAlign=top;shape=mxgraph.electrical.miscellaneous.small_d_connector;spacing=0;" parent="kBP0Oe7k8TxSiVuU12CA-107" vertex="1">
          <mxGeometry x="-1" y="70" width="46.29080118694362" height="20" as="geometry" />
        </mxCell>
        <mxCell id="kBP0Oe7k8TxSiVuU12CA-109" value="&lt;div&gt;Tank&lt;/div&gt;&lt;div&gt;Monitor&lt;/div&gt;&lt;div&gt;Unit&lt;/div&gt;&lt;div&gt;Interface&lt;/div&gt;" style="text;html=1;strokeColor=none;fillColor=none;align=center;verticalAlign=middle;whiteSpace=wrap;rounded=0;spacing=0;" parent="kBP0Oe7k8TxSiVuU12CA-107" vertex="1">
          <mxGeometry width="46.29080118694362" height="70" as="geometry" />
        </mxCell>
        <mxCell id="kBP0Oe7k8TxSiVuU12CA-88" value="Prokey FOB" style="shape=image;imageAspect=0;aspect=fixed;verticalLabelPosition=bottom;verticalAlign=top;image=data:image/png,iVBORw0KGgoAAAANSUhEUgAAADsAAAA6CAYAAAAOeSEWAAAg0npUWHRSYXcgcHJvZmlsZSB0eXBlIGV4aWYAAHjarZtpcpy5ckX/YxVeAsYEsByMEd6Bl+9zURQlqxX9+r2w2C1SxfqmHO6QQLnzP/993X/xp1rOLpfarJt5/uSeexz80PzPP+fr++e14PP7+8ef8PV3cL/+4s6vX0deSXxPn3/W/PV6+nr9x4ns+zsn+sMvQvntgPR9/fjrhev4vnD8P3dUVtj+1z/t5//37nbv+TzdyEYY7PNQn0u4H6fhjTxYTu8w46vyf+Hn+r46X80Pv0L22y8/+VqhhxiSvyGH7cIIN5yw+b7C4h5zPLHyPcYV03utpRp7XMmnkLK+wo019bRTSzGteFJK2aX4fS/hXbe/663QuPIOvDUGThY45G+/3L96wz/5und5YhTCC+Z8seK+YlQegsKY9DdvIyHhfuWtvAD/+Pr+435JbCKD5YW58YDDz88pZgk/ayu9Aki8r/D9U1+hbmUtvirJXLtwMyGRAm8hlWDB1xhrCDnFRoIGdx5TjpMMhFLi5iZjTsnITaOOuDbH1PDeG0v8vE6rkJ+SLFVy09MgWTkX6qfmRg2NkkoupVippZVehrNk2YqZVVPPjZpqrqVarbXVXkdLLbfSrNXWWm+jx55oydKt195672NwzZHdKIOjB+8YY8aZZp5l2qyzzT7HonxWXmXZqqutvsaOO+28y7Zdd9t9jxMOpeROPuXYqaedfsal1m66+ZZrt952+x3fWfvK6l++/o2sha+sxZcpva9+Z41Xa9WJ3imCcKYoZ2Qs5kDGqzJAQUflzLeQc1TmlDPfI11RIjdZlJsd/HDBSGE+IZYbvnP3M3P/OG+OWP+rvMV/kjmn1P0/ZC66k37L2x+ytoWE62Xs04WKqU90Hwhid+4wq9unbwiAi7RTwpx1n7bnufmM2ICX/f5h+9ZRS8gF1Dv6xztB4ikiV6h23Tvd52wBDP+3z0Qe++x5utJWms2i70Rg5r4J9/L9vc142G1lDuLV71qnUymTy48wBlDcd01jGVG75mocOe94VDbGz+ZvAhUuHbujUQt19VFPn37PvcmV1XZj4Qm6rVNaD6uHfhoEadTCLGQ43rozpTRtdTu25rpztHPqWjxeabQPwe3A+C2jznRqWCXPmOyk6+LJnn/m4m9dsO7lrGsMTkSMwO99zy5xLIDdbg6Hhjlglt0S9pjhmBXKf163bl8ljZPr1p2Mnc6xS7z25uZSP/02bjneQ93xg63rV64nFcIw1ojnUJOruJBPvp5cjbhPbvPsPmsdvXCF0hdFn7YN8nhbmneC9RAZ/+JxV608Nkma9VbSP0gJ/UG6SWvfcZblLXXbKytzZ4YeFee0Wlu53Uw6UuIOU1v1bn68Z25XKsVIl3EDfF2Y9VKx5Uxgt5a8bqANYh8xNw6hbz3MXUkRMGDzDC5GAkJ15ChNsp9apK3Hp9jO2sXgyRC31dDTufwUZ07mOTTuDiV3XXCY2pJaWk5vW/ymnE1HmnUfDYJd22i8xG0R/ZFiWXBJpnaOH/3SxtAv7ZaWD+0sG92tHULb9AtV3E+c4wBkQMSJq3FbBwRSYyAnIn3VaN8/f3efH3rmRhos20aJvlEtaT1Io+rWbLfaPvPS/pn/IjV2/Mw01zp3BvpqckchrXtC2S1TrmDLsUZg6NdM1IBdGo6DSCMdVQCbWdSIJwBao/IEYxNYYGTZKZej03lxzqcOo0fTAlYALotCONtTkoeTzrYOt0VoeiqrUopZ6ucURy8R4FZU8j7T2aQpLnVrLrNCfvRXAN4q0achCjebuTvAuoKxu1GC61DOrs/Z6tgV8QWupDlB8LG4/egX0DTa4lVoyUbklJwtVcqU+PBDuCVlO4uCae7WOoGNCZwBHl3wNSbqMPXR4Cs1elnQD0kl0DSIOoq86CKEgwvyDyrLHRtpUZN0+DQJutwA8chZadhdwtrJuB9aGylCP2QgxkIYp1YlgBqmyta6Lq0Fk84agDNLSm8ae1FpAywpQk4xaz8GuRQeL03YNylBG5bSwxUaMqBGIKtBW9L4cc8Z8znQx9jgE8oo2OERgU3qlJSm2XXkpiV7nceq+DOIAZqjONryf1+1fOfJQDXqpJMa8HeP4QGNpAymBCG4ZkTokppIH4MTlM+Et8cZBkVFyojrGzGa4UK0A5wH3mmaeXnaSxKoEyyMywIoH+c6ixiPffi+Y/Ln5JlAoVK4eMHa8Ms2F8wNMFV0NhVQK0KcMNBKhayRKXqHWyl750njUmcioizVn/KgbmcGEANlSFk0EJfK5fD30GiEropxAPPQUUEpjwKyDDhz5tRGVsFEBAWJjwgKUrpmbBfYiGYJTkokmGNXvKgRj9whAfG+x9iNngPXGldcF07kDsM2JNWhOSB7kWOHOrizKjhGH9CZcD+oecpMQH7jTNQMcEmw4WqeAr0L3zVSX2mP2StQSe9v0ADhfOmgmi8iZm+HGDqktvsJlgZYq3HiIVxZnZN6iUokDIThIR9k06d4/HmF8bN23B+LBpHEDaPgFliwR98lbemkCxt5/iNng+t3WAUVlS5sxoloPYQZeAbpUFs8GE9KQ/Icu1cbKHzB3T3QHxLh7LNUPXDL8MTbIhZheifgaIu8rZ2BG4KcZ1DeBeBrjivVVlZDJ8BA0iVWNmlF7VR1HOQJ8lRkDexCrGYut/YIlm65SVSvwIRbIcxUngALnEAQU05joucSaIgaqQIeCqW50jNprUXFluFoD28RgrNH5vqdWiR/iCEenVf0Lth+JGUxdvQpeOHv2mhI6wjhlUZ50a5AfUkp7EsI0DWIO8RLEKohkDqEMid5HNwHZ1+Q/0QmUHnOg7iDuqCX54/HMGTRjbQbtBZU4potjHJnLEN5nPD5BfoNEXNLRxqm4XDCmUsEuGkBRYaW5znnQT6Hjjk7OfOPBK3h5mBbuJTf02O7PvBVGMrtx+2N1JOZluRBmPUjJgroayRSu9sXC/CHlSiERHn1tVoaj/ltTBKLlKMkXIxgNAZiJigGzco5N2gTCkoW1y66Vjx//U6k6fOr9oP9gWMeHl4DJioSClZOk1anEEleBrQo3uQRALPTTDdM08U8sUdrBJpuoWmpRiQ+HE3WQH50GNGhJgNtjWCi3yhRKsfTxUBkiUDg3qjnjTqmWCIazATsEz0WgVwIMms2QFgvnYEYJIh0fm0oSFtNwEFWJyKVVxAG9ATYFyLENZv4ctIyBB9zDCQfkorkWIqJR8aVtTKMCXEB3Nap98VViSvimPLgmoI8Mks1wSYFr1QTCDmTOnyAvvyna0Dmsjk5G0WMLgkQD4qBaEL3FS6HR5Hp6rNVxquLshyEwvFtN1GXaeR0hKueDKM3hBJgFVKBYxHar4LGpVISEW506SLykI1hRcU+JchaUahIGok+o2GjHSJMi6uEZ/Eb9U2beOQTQnB4HgPWICV7jwaMDEkvuOLQbEhSeq+QDmCtSyiDwk++FetRDwZUAxK0m8c+UaIIUJwoAtwh6EDbC91ByvSyIXavCbKnYTzVWhmU2ROykcuBAxCq6CXcMrre+kUWIDJchCkmlZ+ArHIXN4mQ7XqahLozKkd8h0RCX3NTtDwShci0MSnrSEe1ewitCx5KOW/GUwEyasaM8gNjl7q/Q00IUqguI7x5jVtGr67kDZnR4V6gUOznajOZfdoOgKk1L5HFxq3B46pKSBY8kcdNcpV4lUIjccGIaKAOuPaRkHJrLUKomoO10TUK+LLHuvQN+hinthsCd0Jx8iYARDBstlySJUxd38otagQn1EAnyWZP7dB4ALEYTBp4U+w8Lk+GrEIZxgq3iPkBEdD3vsc0TUaRCyEiTQhG4ARzSfpwDbSpRmSUsKroOZgwkPKJjkb/FrQjyQdBIsgMrLpdFi3Cz4TsceeIyIK/cCb4XSoIB06XGJ8gaPQzjiRwpysOR6kpN5pCgjJ+Y+OhScQkRpksAOJNDhSujdL56EOAcUFrHIFpO42SNeoTl43rToRA1F/JcQU70PsDBptcCUFN2bSMvOQikYDzsKnxNAGNVibOrGHTvQPzwW/cIBkjGSAV8hYYTWjhPh4tFI1mrHVZcY0FAIwK3HJay0BCf/Nf5+nZw3s/uS4QE0FL8t5RfgI8LblizyqKr1PC+MS6BtE9UQNLOANX3CswIusCN3DTYrFcIrQCA3pVAMT98SHyyV1iA2aizEDdgCCkTuXAJqrDsOtIbHUTrIpgApcbLYIcihpAgYfo6k6Tcxrw6nJFGBC1Hq6ADTNanyPM2Cy8egWL0L0g2J14GhAFO+4597j4e/rBVHj4Uj8u8ssv7meprWm3gFpoOUHZTQrpsSbeicLEa6Fnw5scgFKKbyUL3LcGCnIfeByAA6yTbKAFKVMsRBxlto2KWp1HWIMOPJuzIioDTRhmpzIUYCy2DDFmigPoD1JPc4ZLHQJEzusiPC2ng7Ct5NS4GAV0C9IWvYIdi4S8UAeoDjTPEzKoSntIg4a/om8H8pbJPQrmIzd0psg84SiQIHhsGhx9Bl1Q4hAw2kGHbfHoAnHjJgUFQgD84aAPa7SoTFq+wDzVgHBTtsE1MInmwLVZVQHq0JM0yrQpjkr0TnIcCqE+1RxJfwCQuJsuDgsVg0jqaAvJejzmhAJCb4gxiIms1Mlt+UybJtfRHgG2ABEEkkhAwViqheDj0PohGtLrtV1khcYOJ9SPBASFQcUIV/NOB2sAUmQUsqOkw5VcFSs328fLC6MrpiozaLqBbhKJH60qwG22EgyzgD6nycwOCXqMx8/lb6OvCrxKA+4OwIQodSPrSmknqUYJ4ehzI44LyAARvVZqutRJKXhYwiavzRPQjWNQIgVyNF/gXgK21PPFUEoX/M9Pw+q0tBvK1OVkHVU1PGoIgQMgIR4UMog0etElxgSq33lUCFUD2pyzXArKkZRz9wdTUNCQDZSgbqYGShiM/EReASeo5Pej//m9gF0yS+LWfsLeyBZSTss71D+mW6VNl8pqHFnBA43i325SLgbeOhDqIh4R/UtywWa77guWEqx4o8Obi9eGaSCAXYbykPQdKYtmH6AJLVkkxjQKgUMgFBTBxTtGqnG2iijm8skBMbtrQEmrfIbK6CCsHUddzManIWo54RHhUqk3TTX2vSNpsjv0jpadvq35mdwBxkRG8IMMbXI0oKDGCihPnSW/qZf6SFr6UNE4pIXVAk8dlr/oZFJBByLm78oh+Qlyqq3huILG3VOPzEXRDTHpjtHsGfNQ13rdP8AV4nfRRkE4mRPKE4zRL3vdkgMailpCDUPig1v0OponygXy51miKt5BfegnYn0lzPg1UpucwvCDCEkR0gn+AvVgU6K3AFZck+b2adF4XyoZwX4PuFI97MjNEiXZm10VYU1KDc9kvgWTRdmoEQnrLS2dQ3oiJyD0LJkrE/9U99R8D/UB4xT1uiZQ8AqQC0dBNygiTodObOhCMNb4GT6LdjXYiinAIvvmdaXPZzoNfY2jykSpSz5y888rGE71oPEyeZhe09g3zpx0zhNsqTmosyXsMxB+56DWkXbYYnoFPHhyCFwWrt/wmeKilKlQpCdqAFVyORumYjpFBFAj+83LhVALmcTiQz6lKA7EPsUqVU3nV1UCPvkKl64hGNqusIJDhDWTKf3Ync750eqTG7np3YjfJm0r5C3vPqY/MtNV19BAQ0WlFkEcPFSctvilLG32VAvSYd4hTZ5v4DQQhjzGOVKxWHlUNxGb8CCNhAtxF1WB8kRKJnVIlovGVU8VZ5BBxQFTLpphBjoG3JXe8bgCUkCyg2aOquw2RUYo4VYG5fymvAjmLecgysui0k42KJ8u85hCEfKFO4nZ7QoaMnO5AtKtLSh5NpWC9KgzkshBVfyM0qYPEPDcpSZCDw+1FENezFrwktU7uPriAFfSlAgbVIP6B1sIQlAFo8idobm5bgORMSy4ALzClU0hjXosT8m6vp7hoPwrsk9dmIGYKquL6ErAxgm/jMZhW1LRE8A+LJtHpyLJdqgajNNY/UqsYPBAej/HW7aU4xpzpIKcsBGMRpTLbKocSmc1SoFvEICQ06FPC5JH8g2cwVkVT7+B1+B/RIQTWUUhcCos7yxP54F4BuFs4e7ykDfdT2Tpx6QB85QI5FegClksGvejq7V6RDjj9CFSZVqcTp1nQtOB16NqTEx0HHpd/KVRMK7pSHo0uIlgEXaDcnkErTUNKnT4YaijrJYjJGjgpam8TOd0mhKiEwrwj9u3bYAWYIC9XJKk4mm/laEEIW/CAOFEDCBKLyDVhRGmGaFDKmpQrN45yHIk0vQUt0RETHK5r25ANUGCVtsCYecNFHcDNR+i432rA1rzs3s5TVIS3+rQ2nLlkDmydjfN7eCzFTgVANu7H2jQi9CpGj6V0lAuyBqxOgHVOP6aXFuj0VEC9BceF68JzgLUAEQ25QOUhoeQeAqEVmIwpPli/LYWoZA9KDb0hqFYzmdFQEArrqUNwB7Ut0RmnCJdtDhGcsgrIrfkkB2VqEkXEph+vzQHwBSCBrfo+KrHEN/S8UFFO2idQ4l6kLuAQIHkc548m4PNo6Y6BFFZF0zTVUANxR/qFlhEkqiupi46xKjhulU80CSSpWKkgfjp0rPoqB1QAtAmByj2vFQrj+p5WmDfl1iwb/LrhE+VTzA0SMgyg6Becuj9GIA65FEn4TwDhjXj7YvIEM+F4QPFIz4wauREo2sZGI5az2g0cQg9iTsCeDUybRQqx3d+on3OooRWRyVNualj4cQAOAAM1Ci0oVFj0Monxx3a1okaMFJrHrrxNin5iZBGU/piyAwQMYJnHXG+kEDDJN1RbLN7roFzOlnNn1H+MlCa9GrAKR6r6H6tdmn2ErTm8GxemuIZk03umsfh3/E5SwOdg4UOTssSGZGBw4dJtbGqj/Jcov6xoOolD4kkot0KshuqI5+0bDyagRQkYNspu3G8psjNlNdUUCUdjSUlhX58EBg1/QWEguYQPdK2xBT4pPQ1IMRGXT+z/BqSsWGEuIk3ydwD5Be6ytChKaZHNFJgfcWmJky+eSpaTbZpcG25wB063tKbJ5qgNnzyRr6r8KYO6YKpiEd5RyRC6U0TL+qQRsnVR8OqSdhv6jM5zDmo2AO3+xb/glbVaJiIs8GIpc8qK7/kgYJOrnol1q2jZqHhmLG9JNkdraNrpVZYSuNoRQZIaaMhgzWNQARDPrlVTbx9mZqVay6V9LdWah6qTocBzov3aHEVE8LbU8CLAKuoeFphgADIX15DLGwp+4gOemuk0pxkqUnUanVdBsEw3QnC0sobz/H2OdAbSD/MJ+qPFtVSDaU83hyTXplaKFoGol/MigpS6xVNlVWRJY//3zx+9qzYx51hTOTpkgNAi2hIy1++4uZF7IgDKig7rawR2Z5bQiiuh2ZU4DpUf3iubhU6lo6YVbwX7ioAE/YqHhwlWbt07R5uYEBDRBN3lIOvWkiZBWHeUyS4tqSS0cW8Zz/lKD8YqY1wyuP9CorQ7Rd5rI1sGE2EPXDUNMrZXtvXwMsO4GuBdGuvTfSbSuLeloY42HhTRaDv3qo8ImLzbyptHwhJa4xE9MaBhMoaLfaiSTzIHzfRpmP7gjnDDVpUblCrlgKpGi3UvcU5Wb2rAhhcoLTPjH9pVlWmcAOxlyZGgrtWBWPDkNBgBQ1TfR7mNK1cHC3/rFUnqPCSHC3DklYJNC3qdBp9ae44Ak88Q9J8a2dNHQ0gAICdBYAd/4hYlkagp69mBiU8x9+bZGrX6hDtg1P1kfwOTc54C3AUaGTkWPOuQtE0Eg0D4tGH3IrMWQebdDsUS41CnZj21X49E9lSawRSeyI019Hq23WQC71b0ytc1BMhTGOUIWeEDH6yXXtG8EMTgy47oNmeFKIKYu432RrH4Rx4U7jj0T1aGspvC6ZCx4Rn6bY2QMKKFugy1T8lprHZCU0B05IQkthleO3tu6EwES4IEy0tnwYwA8emk2EV8puVg85wJUqSi6XRLjJ7vVisTfcrGEfzZKCd28KLvdWcrd1CovG3E8lne9rqKh3oIZhMAxyaKMvCFI+pAQxxaO9V0APOxSJomuGRFB78H30lLgKlUa7at2KV/tSyi6obWYWQxKuC2aJKxJPHJ8UX2oc6LWoFRAMl4A+hTE1UtWF+9UIh6LAc1z3aNzMwNVVrijEvoWTxoenpAclBYavclnZGSKpqaYe4Yc9Mooc+pDc6SrAs7RRzaJkMCdNKaHXNPgecLxEjhUqZaPXqeIJEQaKNoK0VclSfySty3BtUj+B+rJxhY4o2r5gMNWSKO8x6RK0XoYPUkLwOzEtB9yd86hJcnSmBVt3IT/tqWU3uGYgCjHbgkIPz1fBXyzGasiH7SslTu32ixtDPxqeI8ZYWcK8p5MA7TUZk4ILr0wIua5CfWdLBWs1MmgcL7FBKoI31TUuDh/QcwnM6bIe9BNxcZoOU12cGkWR2lSYkLbhScSgR2YXqerhIwqq2YUg97yKbxcVMjU5ljef0hyARTZMaqEyvA2iUk8bCWt3X5EnuTmPFqk1TIWgIBow0HEHQnKxrodZMW6DaehUqcpX4P5qB0EHRsFaoT55IGyHyeJt6UdDdb+1A0PYZ7Y7DIdGMgBolC3hvoAzmC01WHhM25xakZLxKrZA4pPd2wGCG8K0oti4sBCMDPow4UwJ6tCEPSXUOjT5n0iIXroK4DgBYk06ptK7J/ke5aA75YxKHSBFOLa0l0hVN+nR73ahp/f05B7JvBO9Q0Ks+YxA0ZQaxaBH0lfAJNtLWQ+jBwzNL7SGKRp3jaVV32CzQsWq7FLeCQDvaP6qRBc9jbmsDlQyn7CmibeKDUEqaknf8BGHwGvYBejLL2qFH6hKY/BYuUAya7hEcx8+I4EGASq8a/BOJEdG7AKQAbJ4YaRltpxt0g5YzLuymQT7YgLW/aOQcuuNwQLrut6RwMMJpk9LnXBBayHIQnUM0LexUA2WVtek+mYT4lcojGLcUh7whIrZoxFqky3bEV9G/fGlehnFdqvwFIXVINI31+KOJ6htCBirULiqXw+floZerNtk2zXi1IeU1w5ZjQqIgBtcG2grBpUZ/nP4MIGYWX512/1LQ+I/pD1F44xUUdO4beUDKTQQXNPDH4NPTS9tBDqHyaIPdtc0SUdqdtnc0RUmoYFeb3QJcpGE+EFq0lqshy9Vysn3pRhP0F20MXMRVVKEtepAF/gisJyYwRVJGYU0NVOXMOlZJ7YZMeZQkztQaQdZewDW0g26TTW0bkmNFo21ioFEwhXY0uRDSFYSV9ntw9xVFVdHLZ6Pd8HEoClrUqodmM3HFHWlXJTh+M3KNWxraqKc9eOUMxA/ICmwEIkDuM9ZLe0qgijnxQiCulsKQmNkFDBTPIAom6hm2lV3usQqtmnZjEB2kbDTpe55Czcal+XWtEQaZmuZl045x4fV8LkRbwLVRMz1qAOH8b9+xdsAEYu9yNQSJ1/ZXSLwvF+kvbSKtqnoSj07m+a7GtdMkJYzzyoAe9D+JXkdja6CKHtZ4nIKpxDE5DSJKLgf+Gj1p4fVofoIOB/m0VAFra3caodZaOpRsyPjWA7I2lrcykzUVc2QKNiPtAVG8JrALvWhWFa9c7SYc2rOnj4GISjavNdV60ZKUintCOIhPl+kBLQrSRPW1iSENeUIIKxTtGTeu0VGTVS0Eur0tZKPibrQO44NOtvN2MIXYSrtQgjZ2Vp4xDw23LgInYM64MQImpzw1es9cqQHSh7Oo4yAsCor0V/NEgZanRzVcf804NOQAw6ChOFpvQjdknbYklrfNI9BqSCjtFtAnZfx1cjsTKC9E9RQtIGilqqBjlETTMmST29/a/aZdOpnnmuo4RIuc2sEmzJNdEb5NBYh7RW5PQK0D2toep61O2sIj6320Jw0zRJ/WvDTszFvLSviQN+GnIGvtmqgK/4oW6TQZo1UF/dpbE1eeb49f0lYjOPM07dMMRWQK1W5tlWjLlQoVjYQDynKShgLIszYIAIHf3u4CLZs/2RAVbSglaPL+EUZYnU/Ru790wff3JYYG2beG2BoT6sMI2pYRUDwolLmihv28XyM+N/TBHMgfJQggDcrRijY37NY1udRm/EnmrsxehOSmZpLwJ4UNTJ23YMRZqSNUqT6F0DQvkpzGvkARN2n2JZOhLZvU0bpeGg3pilOIi4IF2ZsmXB0Fl4NLV/P8rT2lXbuZznNNBAboPTgdngZalK4COhJ4DYYCXw1OMCnFN5hGzDqfIu3bpcKgwa5SWge91DXEAEY1Na9acGuo4jS1LgCvYkNpIcyb5O0zJARbipMKwLFwJGGCpg9YJYylABay17TONDSuQZ7dz6LG0GokRgjA0WJyJEZfqx1U4/5sqEQLYQYoG+pJA8w738FS8VnrBXC95qhTG/q2JiYDi+g0a0wwcH7eFADZOeHuovaFaXZM7H3QZhiJYNMmX3K2Rqva2SyyIGxFdVSaPvBE3RbtYZoLjDj4bG0aI+FLsv6tbeb+16XNX7+7P/yCAgP53pb9HbX+B3SNz6+A7FS063OoLzTx9trQjex2Ss5jfz2u8AQTQS2CGhOwzqiwR3FPNMNHmbreXxEbIZYm/aZd+86Q8hzYTMveco2U43j7eAYIMAEKLa9y+awP0QSNv0hKC+fNU/WpOhVlNIedmrhJbXlDamvpYmkvjvblIWp4KH87MkKfdZvPDqOFrgW8t5ZJAhJWzJGG04dwgKLRUWx4DdhI86RetXem4RAMDb7oRApXK5noA0lAfRjq+raHmu5q+cEFJIN2ueqzH9xK0oYSlHl7anGRR310J2knfpnyzlgq7e+8KQDpyFh51UBHuzbhea99aipT4WfEO26vgqsHXSw3tN5+GgTYaDwTzKHyL+WVmkabNKS7CAJ6UvtiiKfZc920oVbZm57g6F/AWpiotjx7fz50mlzREI++z/7Ir1n820r7Y6Fl7YHV7gcqCYiNs7k3DtCHjhBx77NxsU0e7/e3hqo912r7/PlV0+bj43P/HBfRR1uzMCkkTQNQ6jysPgmojyAdbf4foVEa/W1NHPr8R9OWa1QtknK9DwIoIViIRPljlDTJOJo5tCyB5HEuKAgbUYshQERa2sMwND/ExVowv+lGIUyzFcPbxaq9CdpSRTK0yIf7ROYCZVn8SvlyRfSTpiEgv+lDPZ0SSUprzprgHfTRTvU7EFUs/HehaO9X5e1z1eeufomu+0/D+/s53R9SBh7u7v4Xs8ZF/rZ8C1UAAAGEaUNDUElDQyBwcm9maWxlAAB4nH2RPUjDQBzFX1NFkRYHC4o4RKhOFoqKOEoVi2ChtBVadTC59AuaNCQpLo6Ca8HBj8Wqg4uzrg6ugiD4AeLm5qToIiX+Lym0iPHguB/v7j3u3gFCo8JUsysKqJplpOIxMZtbFXte4ccggohiVGKmnkgvZuA5vu7h4+tdhGd5n/tzBJW8yQCfSDzHdMMi3iCe2bR0zvvEIVaSFOJz4gmDLkj8yHXZ5TfORYcFnhkyMql54hCxWOxguYNZyVCJp4nDiqpRvpB1WeG8xVmt1FjrnvyFgby2kuY6zRHEsYQEkhAho4YyKrAQoVUjxUSK9mMe/mHHnySXTK4yGDkWUIUKyfGD/8Hvbs3C1KSbFIgB3S+2/TEG9OwCzbptfx/bdvME8D8DV1rbX20As5+k19ta+Ajo3wYurtuavAdc7gBDT7pkSI7kpykUCsD7GX1TDhi4BfrW3N5a+zh9ADLU1fINcHAIjBcpe93j3b2dvf17ptXfD7iFcsOX9lWFAAAABGdBTUEAALGPC/xhBQAAAAlwSFlzAAAuIwAALiMBeKU/dgAAAAd0SU1FB+UDFxAgLcxO7sAAABQpSURBVGje7Vt9lFxlef/d77kf870zmclkN5ssCQGyATwon5KA0ULA2nqKbVHUKkWBY4EqVFGLln6cUz2tFj8gBfEDDtq0oqUGrKgEaDAIJEHIJtndyW5md2d253vu3Lnf9/aP5L3emdA2QIL+0XvOnszOvTP7/t7neX7P8/yeNxR+S67LrnqIPnd95yOeW70NPhXxwc5FIpGXQAkHTYuZFEVxSpJTrUd+XCv99JH3u6/lb1C/DUA/d+cDMsd07jb0patd16J93w/usSwDmmZBM7xNU1RPENM/5fjoz1guumuh3FN1XUc8xlWqdVhajzZm5zt44kfXBV+wactWGoD/xPbr/N8s2NxXqTtuUM4ShfY9eq/+ZtftNxjDMKAoCo7jwPO8I9ahKLAsC56PABQDyzTA8ZLu++xBno8cohixJPDi847LvVhvS1P3f39KL++90dm4ZSv9GwN7wy0PsaMrnPdbRvkLrqOnCBDXdeH7PjzPg+u6fSBpmgbLsn3P8DwP13XhOA4oijq6GTxohjF4TuoYlnRfsSR//sFvfMD8jYD9+F88IAyl9C/Bb35E73UpiqLg+z5s28agdck93/fBsixomoZt2wAAmqYhCAJc1w0+R0LA9310u13Ytgcldvo1Tz/PPsi+0UD/8a6HV9pG5but5ty5jmNTvu+DpunAgoMLDt/zPC8ASu67rguKosAwTACYoihomoZutwvP85BK6+tMR6HeMLAXX3YPe/klsTfp3dnvNZsLo67jgKZpAAjcMgyUvCa/hy1K7lEUBdu2wXEcPM+D4zgAAMMw0Gq14DgO1qxZg2R6ub33qfd59MkAdsmV/3xMeFyxOfp+xy79rFGfG7UtK1ic4ziwbTv4l8Sq4zh9sWvbNmiaBk3TQWwS0J7nBe9ZloV2uw3TNFEoFJDJZMAwkRIAnHTL3vaZh5lktH1btz15h6o2Bc/zAquE3ZQAGbQoIS3CyoSoyHeQTSHPqaoKXdeRzWZRKBRAUTRUDZMnDaznHVno9Td/Ly4LC5/vqpWPddUOHWZWYpFff8Y7JkaJW4atSJ51XRc0TYNhGDiOA9d10el0oGkaFEVBoVAAwzCwbN93HH3PSSsqNm3Zyp55urxiKFH/itYtbzFNgyJWCQMMMy15Td4f/J1sRPhZYmXXddFut6FpGliWxejoKFiWhe/74PiopWqJQrUp1k+4ZfnTv06ddQb3tnSi+vVed3GVaRp98UcAk4V7ntcXc+GLACL3w2zr+35ATKqqQtM0eJ6HfD6PXq+HiYkJHDp0CLFYnB/fcO7edDr/4xMK9n3XfofOpbvvjcqL/9Drtocsy4Jt231MG349mG583wfDMH2phmzC4EaQ57rdLlRVheM4yOfzoGkaxWIRpVIJvu9DFCPQe7XlYmH5lScM7Luv/qackOZvs43q7R0HLMuyiEQiYBgGpmn2VUIk1YTdMhy34Z/wFSYwANA0DZ1OB5ZlYWhoCKIoYnFxEbOzszAMA8lkEtFoFCMjI1i2LLt4wsBmU813LVV+9Zlly1K0YXiYn59Hp9PB2rVrkUqlIEkSPM+DruvQdT1g1nDFFI5TsgmDFj3SHLAwDAOdTge6riMWiyEajaLRaODQoUNoNpuIxWJQFAX5fB6rV6+G7TKdEwL2LZfey3dav/pos7lET0/vx9DQEEzTBMdxAIBWq4UdO3YglUohlUpBURQIggBFUeA4DnRdD9iXWJSkIuLKYUIyDAPtdhuGYYDnecTj8QDo/Pw8eJ6HKIpIp9MYHx8Hy7JoddypEwL27DO8TKlYOsv3fSwtLYHjOOi6DlmW8eSTT2L16tUwTRNzc3NQFAW+72NiYgKtVgurV69GPB5HPB5HJBKBruvwPA+macJ1XbAs2wfWNE2oqoperwcASKfTUFUVMzMzmJubg+/7iEajiMViWL9+PdLp9NHU5BknBKzRLW62LU2hKArRaBSiKKLZbCISiaBarSKRSEDTNGQyGUxMTCCRSEDX9SCef/nLX2Lt2rWYnJzEihUrIElSAF6SJPi+D8uyYFlWANRxHKTTaXS7XczNzaFcLsNxHCSTSciyjLGxMYyNjQWekUhILzKvF+i1N9xPtxv772Bo87Tly5dDkiQsLS0hEokE8SWKIgzDgCAImJychKIoUFUVgiBgfn4esiyjXq+j1+theHgYkiTBtm08++yz6HQ6aDQagVs3Gg3Yto1EIgGGYVAqlVCpVKBpGqLRaEBIZ5xxBiRJAkVRiIjRMscN3fqaLLvx8q0UAOx49Dq/3Vos+L6xSRRFFItFNJtNdDodjI2NYd26dSgWi5idnYWiKNA0DfF4HIIgoNlsgud50DQNx3EwMzODXC6Hl19+GY7jQJIkaJoGWZYRi8UgCALK5TJs24YoihAEATMzM1hcXISqqpAkCYqiIJvNYtWqVeB5/uj3KC7LpW5579WbS68J7I5Hj8ge4xfew+Qy9ds9J5FoNBpQVRXRaBTpdBo8z2NhYQGdTge9Xg+5XA6lUgnJZBI0TYPjOMiyDIZhMD09DVEUA68gliwUCpiZmUG320U0GoVpmsjlcvA8D6VSKUgxHMcFf3dsbAyKogSNP80o/1KtOdteV228cctWesulmdPy2egfLSzQmJubw/r16wPXmZqaAs/ziEQiGB4ehqIo4DgOqVQKvV4PkiQF/aYgCBAEAZFIBDzPY2RkBJZlQVEUtFotlMtl1Go1ZLNZUBSFWq2GhYUFdLtd0DSNRCKBeDyO0dFRZLNZuK4LjuNAM+JkW2Vv3fbIYf91gc2mBPbsM3O3DKUjicnJCdx8880AgFqthkajgUqlgjVr1sCyLKRSKXQ6HQwNDSGVSqHZbGJoaChourvdLiKRCGKxGMbHx1EsFnH48GHIsoxOp4NCoQBSpBiGgUqlAlVV4XkekskkEokEhoeHkc/noaoqRFE8yhnCP333B/NligIFwH/NYC86L3ZOuVx8b3nhSJl27rnnQhAElEolPPbYY7jpppswNzeHDRs2oNPpYPfu3VixYgWq1SqWL1+OSCQCy7IwOjqKVquFdDqNRqMBXdfRarUQiUSQSqUwOjqKXq+HQ4cOged5tFotqKoakFQ0GkU+n0c+n0e324VpmhBFEd2uoak9dteTj14X1KSviY0//qmHFAbzD9aq8yv37dsHz/OwsLCASqWCxcVFcByHQqGApaUlXHzxxZiZmUEymcSKFSvgeR5OPfVUMAyDeDwOXddB0zRyuRympqZgGAYYhsHw8DDK5XIAnmEY0DQdMK8sy4jH48jlcli5ciV0XUez2YSiKDBNE1PF+hcrNeWBfS8+htcM9t1X38fm0vU7e93ye0gFYxgG5ufnMTU1hd27d6PRaKDVaqFYLCKZTCKTyWBsbAzFYhFXXXUVKIoCz/MYHx+HpmnI5XJBRUXybCwWQ7lcRqfTAUVRyGazqNfrWFxcDKqmZDKJ0dFRAAjc1/d9zMyWS7WG+OHtP7xT62seXg3Q333PVmbdau1WeLVPG4ZOO44Dy7JgmiYcx4FhGPA8D5ZlYW5uDpqmwTRNrFy5Env37sXMzAx830exWMT5558fNOcbNmzA/v37sXnzZpx++ulBsRGJRDAyMoJVq1YhEolg3759MAwD8Xgc0WgUo6OjiEajQdVFURTq9ZZdbykffOrn975wTE19vED/8APf4U4Zqf2lZS5+0jJ1hnQxpNUiYhgRwYjyt2fPHuzcuTNg3Hq9jlarFWzSeeedh1wuh3q9jocffhg33ngj1q1bB9d1cc0110DXdfA8j4ceegjtdhuKoiAajSKbzSKZTAaSjSAI0HUDlSXn26yy/pFXwnBclr3l1vukbKr6ZcdautnQe0y43wwX6AzDBLUsad/Cei8p+imKQq/XQ7lchizLWLZsGTZu3IiFhQXk83mwLIv9+/ejXC7jnHPOAcuyuPvuu2HbNvL5PBKJBBRFCRoJ0uAXi/NdcKf9mSAWaocO/od73LOejVu2sju2X+f8+W33Lxe48lZTr1/hOHagLIQbbtKdhPvQsEwaFrFJsidimW3b6Ha7iMfjcF0Xb33rW3HZZZehXq/j4MGDME0TlUoF27ZtQyKRAM/z8H0fqVQK6XQ6UD1KpRIabeWO53Z9/69e1WBr05atlOOCPmfcWxuT2z9U1cU1lmkeI5QNKoXhdoz0pWReExa1iUBGhLOwVEMsn8/nYVkWOI7DzMwMDh8+HBQLxBtIAVGv1zE339spKOvfIcjr9Ce2f9R7JVzs/7QFb95gnSXyjX/rqq2Vjm33iWVhy4ZBhFWHsLxJtF4CSBCEPk14sIEnVZIkSTBNE4ZhwDTNQF8WRTH4rGEYqCyqi5y45kPP7PiS9r+F4yuCveBN1u94TvUblqnlyULCbhp2WwIuLK0MqoNhiw+KaRzH9TUELHtkSTzPg2VZtNvtoKUj/S1Zg2VZmJ2d82l2+PpfPL31wP/FPX1gb739AToqdW42epU7TUOVCKCwMPZKwtnge2HrD1o6LLeEfwgAjuMCcjMMA5qm9Yl2hPxs28bc3DxMW/mBkli1fdOWe9gntn/EOS6wH77hWzGOXvpET6t/xjJ1ikgkYUCDmlB4bEEWwfN8sPiw9BkGH5ZHBz0l7PakLAyPLklfq2ka2ioOyNHlH9rxk78xjyersJu2bGUuOEdRBLb6bUOvvdO2TCqsBYVzKbnq9ToqlQqq1WogY/q+D57nkUwmUSgUkM1mwTBM30YNAg/rweEBFkVR6HQ6UFU1+PvEIxjmSLZstXuqFD3jYzufvK91vLUC++azFEkRW/+qdZc2E0F7MH+SRei6jgMHDmBqagqapvXtOFns4uIipqensXr1aoyPj0OW5WOmAOGZTVgxJMAsy0Kz2QxilOO4oMSkaRqttuZGpDWf/sXT3/rJq6kA6aGkdq1lVTcPitmDRGJZFl544QXs3bsX7XY7cK/B+PV9H6Zp4uDBgyiVSn3pJzxPDWvBxLU5jgtSiWmafdZPp9NH9SiA5VZ8QYqf/dVXW9fT8M3POkeBhucug2PBdruN6enpPrIYJKiw9TzPQ6VS6QMaHjmG3w9/ptlsot1uBynJ87y+yoxhY/MReeUXd/7ss96rBuu6ZpIsgFghvKCwBUjhPpgTX4m8ACAej/cRVZgDwt8RJqRGoxE6T+HCdX1Ylu/7vg/Pp21BHL71uWfurocVk+MGq6qawzAMYrFYMK7gOC6IIZIGBEFAPp/vI5tB4gnPYTZs2IB169b1pZyw9YmVWZYNFP5qtRp0TkfOWLA1w85ebbqFjYYZeZZhhx4Ek/lenx62/brjtjBzyinjHygvzKQoigpUO0EQgsUTEuE4LqhFCTkNujpN0xgeHsb555+PM888MygABglq8JiPZVmoVqtot9vBc65HW4Zd+OBzux7atlTZd3jFqsufoWj58d277m2+VnWFtW375WKxOHbo0CGIoohsNotMJoNsNgtZlmEYBizLguu6yGQyOO+887B27dpAQnFdN/CGRCKBTCYDnudhWVaQksjhjnB8kk6IxGmr1QriE6BgWvG/e37Xd74fhMTQW/Y9sf1a//Vo3KwoRWtk9NdsNlGtViGKYiB55HI5xGKxoIigaRqSJKFQKPQd0QmXlIMxGi4hSStIQKuqGvS3hC8Mk9vrMWNfCi/09QIFANZ1MUPIp1qtBhpsq9UKZjOpVAqZTAaZTAbRaBQ8zweDK8KYxCokN5J8PUhiBDzLstB1HbVaDb1eL3jOdnxbN+PXx5ed2tl4+dfZHY9e75yoSSPrelyN446QBCn/HMeBoigAgF6vh0ajgVKpBEmSkEwmkc/nkclkoChKIKEQVyfTOFI6hmObeADLsjBNM4jT8Ok0w4p9bc/z257ZePmmoR2P3lg7kcNy1nHoAywnIxZzUCgUMDc3B8dx0Ov1AgGLgOl2u0d6x7k5SJKEdDqNbDaLVCqFWCwWSDLW0aM/4TQTzrOkISdnlYLCxY4UKeG0v79kyxWM51P1E30EgrW8Zb8SIqkXPdfYcNFFF2FychITExMBkw6eZiFnkgjw2dlZyLKMZDKJVCqFfD4fACfgifV7vR5UVUWlUoFhGL8eUdA0AMbx6JGPy9FTaoAnURR0AM6JBEsBwDuu+MSo2jrwwJnjKy7MZjNoNBqYnZ3Fnj17jqmYjknURwmH9KWiKCIajQYDKYZhYNs2Op1OMEAmeZs0GAzDwnYT98qpt99M06z98+0fs07GKR4WAP7zR1+c2fL7d73Tdpd+z4f0J2p34S3T09NCuON5pXxJLE0Gw2SYXKvV+iqjMCOzLAtBEILUQ9M0QClTFDdyOyhB9OHoJ+sA2jEa1JZ338X4bnVtfWn/H2vdyh/o2tJphtHpq5vDEowsy1hcXIRt24FlybgwzMAEOMdxEEUxeI6iGMujR656dud3//1kn7Y7RkqdnHjUnzqwo7bm7E/ukEXpfpYTHue4GE/BGfU8m/c8lwozqyiKGB4eRq1WC1JQON4Hj+YRNSISiYAXBDhu8su8cu7XSsXH/ZMN9rhPuF146e0j7ca+zaZee5djdzebxpLkeR44jsPZZ5+NZrOJl156CYZhQJbloKYONwkkHUmShGg0CoZNTNg49cLndt7VxBtwverjfBsvv4vpNJ7PWqZ6kanXrjKNxtsV2UusOWUMlmWhWCxCVdW+XpfEZhisLKdbbOSUdz7z1P1Pv1HHgF/9yJLivd27vlkGsA3AtnMuuCmndaavPDDZeRf8ziW6rsuDbjvYEnJ8YpIWzvhTXhn/L+D+N+xg9wk7qHnBpk8xlllLW2b7Sl0rv88y1XWe20v5viVQlAeGEW1eUKqyknuYl1b99a6nvlLBG3ydtP8jcMHbPpfQ2pPDNOWO0JTL0wxzWJRXTz75+N928P/Xyb/+Gw+g04deoQv9AAAAAElFTkSuQmCC;spacing=0;" parent="5ZAUk3ZZXwPiC2q51OY_-203" vertex="1">
          <mxGeometry x="286" y="498" width="59" height="58" as="geometry" />
        </mxCell>
        <mxCell id="kBP0Oe7k8TxSiVuU12CA-46" value="" style="group;spacing=0;" parent="5ZAUk3ZZXwPiC2q51OY_-203" vertex="1" connectable="0">
          <mxGeometry x="12" y="240" width="50" height="158" as="geometry" />
        </mxCell>
        <object label="Tank A" Tank1="" id="kBP0Oe7k8TxSiVuU12CA-7">
          <mxCell style="shape=mxgraph.pid.vessels.tank;html=1;pointerEvents=1;align=center;verticalLabelPosition=bottom;verticalAlign=top;dashed=0;spacing=0;" parent="kBP0Oe7k8TxSiVuU12CA-46" vertex="1">
            <mxGeometry width="50" height="158" as="geometry" />
          </mxCell>
        </object>
        <mxCell id="kBP0Oe7k8TxSiVuU12CA-43" value="" style="group;spacing=0;" parent="kBP0Oe7k8TxSiVuU12CA-46" vertex="1" connectable="0">
          <mxGeometry y="18" width="50" height="90" as="geometry" />
        </mxCell>
        <mxCell id="kBP0Oe7k8TxSiVuU12CA-31" value="RS 232" style="pointerEvents=1;verticalLabelPosition=bottom;shadow=0;dashed=0;align=center;html=1;verticalAlign=top;shape=mxgraph.electrical.miscellaneous.small_d_connector;spacing=0;" parent="kBP0Oe7k8TxSiVuU12CA-43" vertex="1">
          <mxGeometry y="70" width="50" height="20" as="geometry" />
        </mxCell>
        <mxCell id="kBP0Oe7k8TxSiVuU12CA-42" value="&lt;div&gt;Tank&lt;/div&gt;&lt;div&gt;Monitor&lt;/div&gt;&lt;div&gt;Unit&lt;/div&gt;&lt;div&gt;Interface&lt;/div&gt;" style="text;html=1;strokeColor=none;fillColor=none;align=center;verticalAlign=middle;whiteSpace=wrap;rounded=0;spacing=0;" parent="kBP0Oe7k8TxSiVuU12CA-43" vertex="1">
          <mxGeometry width="50" height="70" as="geometry" />
        </mxCell>
        <mxCell id="my2wBsY7dScjlPKwic7B-92" value="" style="shape=mxgraph.signs.transportation.truck_3;html=1;pointerEvents=1;fillColor=#000000;strokeColor=none;verticalLabelPosition=bottom;verticalAlign=top;align=center;" parent="5ZAUk3ZZXwPiC2q51OY_-203" vertex="1">
          <mxGeometry x="170.75" y="521" width="98" height="44" as="geometry" />
        </mxCell>
        <mxCell id="5ZAUk3ZZXwPiC2q51OY_-61" value="" style="group" parent="5ZAUk3ZZXwPiC2q51OY_-203" vertex="1" connectable="0">
          <mxGeometry x="405" y="136" width="212" height="350" as="geometry" />
        </mxCell>
        <mxCell id="5ZAUk3ZZXwPiC2q51OY_-62" value="" style="rounded=0;whiteSpace=wrap;html=1;spacing=0;" parent="5ZAUk3ZZXwPiC2q51OY_-61" vertex="1">
          <mxGeometry width="212" height="350" as="geometry" />
        </mxCell>
        <mxCell id="5ZAUk3ZZXwPiC2q51OY_-63" value="Pump 1" style="shape=mxgraph.signs.transportation.gas_1;html=1;pointerEvents=1;fillColor=#000000;strokeColor=none;verticalLabelPosition=bottom;verticalAlign=top;align=center;spacing=0;flipH=1;" parent="5ZAUk3ZZXwPiC2q51OY_-61" vertex="1">
          <mxGeometry x="42.93" y="77" width="32.86" height="37" as="geometry" />
        </mxCell>
        <mxCell id="5ZAUk3ZZXwPiC2q51OY_-64" value="Pump 3" style="shape=mxgraph.signs.transportation.gas_1;html=1;pointerEvents=1;fillColor=#000000;strokeColor=none;verticalLabelPosition=bottom;verticalAlign=top;align=center;spacing=0;" parent="5ZAUk3ZZXwPiC2q51OY_-61" vertex="1">
          <mxGeometry x="94.075" y="280" width="32.86" height="38" as="geometry" />
        </mxCell>
        <mxCell id="5ZAUk3ZZXwPiC2q51OY_-65" value="" style="shape=image;html=1;verticalLabelPosition=bottom;verticalAlign=top;imageAspect=0;image=img/clipart/Gear_128x128.png;direction=west;spacing=0;" parent="5ZAUk3ZZXwPiC2q51OY_-61" vertex="1">
          <mxGeometry x="48.760000000000005" y="27" width="27.03" height="30" as="geometry" />
        </mxCell>
        <mxCell id="5ZAUk3ZZXwPiC2q51OY_-66" value="" style="shape=image;html=1;verticalLabelPosition=bottom;verticalAlign=top;imageAspect=0;image=img/clipart/Gear_128x128.png;direction=west;spacing=0;" parent="5ZAUk3ZZXwPiC2q51OY_-61" vertex="1">
          <mxGeometry x="37.1" y="284" width="27.03" height="30" as="geometry" />
        </mxCell>
        <mxCell id="5ZAUk3ZZXwPiC2q51OY_-67" value="" style="endArrow=classic;html=1;strokeWidth=2;exitX=0.41;exitY=0;exitDx=0;exitDy=0;exitPerimeter=0;spacing=0;entryX=1;entryY=0.5;entryDx=0;entryDy=0;" parent="5ZAUk3ZZXwPiC2q51OY_-61" source="5ZAUk3ZZXwPiC2q51OY_-64" target="5ZAUk3ZZXwPiC2q51OY_-79" edge="1">
          <mxGeometry x="79.5" y="195" width="53" height="50" as="geometry">
            <mxPoint x="630.7" y="585" as="sourcePoint" />
            <mxPoint x="107.06" y="250" as="targetPoint" />
          </mxGeometry>
        </mxCell>
        <mxCell id="5ZAUk3ZZXwPiC2q51OY_-68" style="edgeStyle=none;html=1;labelBackgroundColor=none;endArrow=none;endFill=0;strokeWidth=2;fontFamily=Verdana;fontSize=15;fontColor=#036897;spacing=0;entryX=0.5;entryY=0;entryDx=0;entryDy=0;exitX=0.41;exitY=0;exitDx=0;exitDy=0;exitPerimeter=0;" parent="5ZAUk3ZZXwPiC2q51OY_-61" source="5ZAUk3ZZXwPiC2q51OY_-63" target="5ZAUk3ZZXwPiC2q51OY_-65" edge="1">
          <mxGeometry x="79.5" y="195" as="geometry">
            <mxPoint x="84.80000000000001" y="47" as="targetPoint" />
            <mxPoint x="121.9" y="47" as="sourcePoint" />
          </mxGeometry>
        </mxCell>
        <mxCell id="5ZAUk3ZZXwPiC2q51OY_-69" style="edgeStyle=none;html=1;labelBackgroundColor=none;endArrow=none;endFill=0;strokeWidth=2;fontFamily=Verdana;fontSize=15;fontColor=#036897;entryX=0.095;entryY=0.5;entryDx=0;entryDy=0;entryPerimeter=0;exitX=0;exitY=0.5;exitDx=0;exitDy=0;spacing=0;" parent="5ZAUk3ZZXwPiC2q51OY_-61" source="5ZAUk3ZZXwPiC2q51OY_-66" target="5ZAUk3ZZXwPiC2q51OY_-64" edge="1">
          <mxGeometry x="79.5" y="195" as="geometry">
            <mxPoint x="874.5" y="515" as="sourcePoint" />
            <mxPoint x="927.5" y="514.9992857142857" as="targetPoint" />
          </mxGeometry>
        </mxCell>
        <mxCell id="5ZAUk3ZZXwPiC2q51OY_-70" value="" style="shape=image;html=1;verticalLabelPosition=bottom;verticalAlign=top;imageAspect=0;image=img/clipart/Gear_128x128.png;direction=west;spacing=0;" parent="5ZAUk3ZZXwPiC2q51OY_-61" vertex="1">
          <mxGeometry x="137.535" y="26" width="27.03" height="30" as="geometry" />
        </mxCell>
        <mxCell id="5ZAUk3ZZXwPiC2q51OY_-71" value="Pump 2" style="shape=mxgraph.signs.transportation.gas_1;html=1;pointerEvents=1;fillColor=#000000;strokeColor=none;verticalLabelPosition=bottom;verticalAlign=top;align=center;spacing=0;" parent="5ZAUk3ZZXwPiC2q51OY_-61" vertex="1">
          <mxGeometry x="137.535" y="76" width="32.86" height="38" as="geometry" />
        </mxCell>
        <mxCell id="5ZAUk3ZZXwPiC2q51OY_-72" value="" style="endArrow=classic;html=1;strokeWidth=2;entryX=0.25;entryY=0;entryDx=0;entryDy=0;spacing=0;" parent="5ZAUk3ZZXwPiC2q51OY_-61" source="5ZAUk3ZZXwPiC2q51OY_-63" target="5ZAUk3ZZXwPiC2q51OY_-80" edge="1">
          <mxGeometry x="79.5" y="195" width="53" height="50" as="geometry">
            <mxPoint x="90.10000000000001" y="110" as="sourcePoint" />
            <mxPoint x="91.5309999999999" y="171.19999999999982" as="targetPoint" />
            <Array as="points">
              <mxPoint x="93.28" y="97" />
            </Array>
          </mxGeometry>
        </mxCell>
        <mxCell id="5ZAUk3ZZXwPiC2q51OY_-73" style="edgeStyle=none;html=1;labelBackgroundColor=none;endArrow=none;endFill=0;strokeWidth=2;fontFamily=Verdana;fontSize=15;fontColor=#036897;exitX=0.41;exitY=0;exitDx=0;exitDy=0;spacing=0;exitPerimeter=0;entryX=0.5;entryY=0;entryDx=0;entryDy=0;" parent="5ZAUk3ZZXwPiC2q51OY_-61" source="5ZAUk3ZZXwPiC2q51OY_-71" target="5ZAUk3ZZXwPiC2q51OY_-70" edge="1">
          <mxGeometry x="139.92000000000002" y="249" as="geometry">
            <mxPoint x="180.20000000000002" y="78" as="targetPoint" />
            <mxPoint x="149.99" y="79" as="sourcePoint" />
            <Array as="points" />
          </mxGeometry>
        </mxCell>
        <mxCell id="5ZAUk3ZZXwPiC2q51OY_-74" value="" style="endArrow=classic;html=1;strokeWidth=2;spacing=0;entryX=0.75;entryY=0;entryDx=0;entryDy=0;" parent="5ZAUk3ZZXwPiC2q51OY_-61" source="5ZAUk3ZZXwPiC2q51OY_-71" target="5ZAUk3ZZXwPiC2q51OY_-80" edge="1">
          <mxGeometry x="120.575" y="278" width="53" height="50" as="geometry">
            <mxPoint x="140.65669999999994" y="95.00000000000023" as="sourcePoint" />
            <mxPoint x="122.15705000000007" y="165.28999999999996" as="targetPoint" />
            <Array as="points">
              <mxPoint x="121.9" y="94" />
            </Array>
          </mxGeometry>
        </mxCell>
        <mxCell id="5ZAUk3ZZXwPiC2q51OY_-75" value="Pump Relay" style="text;html=1;strokeColor=none;fillColor=none;align=center;verticalAlign=middle;whiteSpace=wrap;rounded=0;" parent="5ZAUk3ZZXwPiC2q51OY_-61" vertex="1">
          <mxGeometry x="2.12" y="32" width="42.400000000000006" height="20" as="geometry" />
        </mxCell>
        <mxCell id="5ZAUk3ZZXwPiC2q51OY_-76" value="Pump Relay" style="text;html=1;strokeColor=none;fillColor=none;align=center;verticalAlign=middle;whiteSpace=wrap;rounded=0;" parent="5ZAUk3ZZXwPiC2q51OY_-61" vertex="1">
          <mxGeometry x="165.095" y="30" width="42.400000000000006" height="20" as="geometry" />
        </mxCell>
        <mxCell id="5ZAUk3ZZXwPiC2q51OY_-77" value="" style="group" parent="5ZAUk3ZZXwPiC2q51OY_-61" vertex="1" connectable="0">
          <mxGeometry x="78.44" y="165.28999999999996" width="58.300000000000004" height="68.935" as="geometry" />
        </mxCell>
        <mxCell id="5ZAUk3ZZXwPiC2q51OY_-78" value="" style="rounded=0;whiteSpace=wrap;html=1;fillColor=#D1D1D1;strokeColor=#007FFF;" parent="5ZAUk3ZZXwPiC2q51OY_-77" vertex="1">
          <mxGeometry width="58.300000000000004" height="20" as="geometry" />
        </mxCell>
        <mxCell id="5ZAUk3ZZXwPiC2q51OY_-79" value="" style="rounded=0;whiteSpace=wrap;html=1;rotation=90;fillColor=#CCCCCC;spacing=2;strokeColor=#007FFF;" parent="5ZAUk3ZZXwPiC2q51OY_-77" vertex="1">
          <mxGeometry x="2.8195999999999963" y="35.97" width="52.6608" height="16.25" as="geometry" />
        </mxCell>
        <mxCell id="5ZAUk3ZZXwPiC2q51OY_-80" value="&lt;div style=&quot;font-size: 9px&quot;&gt;&lt;font style=&quot;font-size: 9px&quot;&gt;FMU&lt;/font&gt;&lt;/div&gt;&lt;div style=&quot;font-size: 9px&quot;&gt;&lt;font style=&quot;font-size: 9px&quot;&gt;SN XXX004 &lt;br&gt;&lt;/font&gt;&lt;/div&gt;" style="text;html=1;strokeColor=none;align=center;verticalAlign=middle;whiteSpace=wrap;rounded=0;fillColor=#A9C4EB;" parent="5ZAUk3ZZXwPiC2q51OY_-77" vertex="1">
          <mxGeometry width="58.28940000000001" height="20" as="geometry" />
        </mxCell>
        <mxCell id="5ZAUk3ZZXwPiC2q51OY_-81" value="Pump Relay" style="text;html=1;strokeColor=none;fillColor=none;align=center;verticalAlign=middle;whiteSpace=wrap;rounded=0;" parent="5ZAUk3ZZXwPiC2q51OY_-61" vertex="1">
          <mxGeometry x="30.21" y="260" width="42.400000000000006" height="20" as="geometry" />
        </mxCell>
        <mxCell id="5ZAUk3ZZXwPiC2q51OY_-86" value="&lt;div style=&quot;font-size: 8px&quot; align=&quot;left&quot;&gt;&lt;font style=&quot;font-size: 8px&quot;&gt;Public IP: 12.204.220.56&lt;/font&gt;&lt;font style=&quot;font-size: 8px&quot;&gt;&lt;br style=&quot;font-size: 8px&quot;&gt;&lt;/font&gt;&lt;/div&gt;&lt;div style=&quot;font-size: 8px&quot; align=&quot;left&quot;&gt;&lt;font style=&quot;font-size: 8px&quot;&gt;Internal IP: 10.7.1.75&lt;/font&gt;&lt;/div&gt;&lt;div style=&quot;font-size: 8px&quot; align=&quot;left&quot;&gt;&lt;font style=&quot;font-size: 8px&quot;&gt;Internal Gateway: 10.7.1.2&lt;/font&gt;&lt;font style=&quot;font-size: 8px&quot;&gt;&lt;font style=&quot;font-size: 8px&quot;&gt;&lt;span style=&quot;line-height: 100% ; font-size: 8px&quot;&gt;&lt;/span&gt;&lt;/font&gt;&lt;/font&gt;&lt;/div&gt;" style="text;html=1;strokeColor=none;fillColor=none;align=left;verticalAlign=middle;whiteSpace=wrap;rounded=0;fontSize=8;" parent="5ZAUk3ZZXwPiC2q51OY_-61" vertex="1">
          <mxGeometry x="2.12" y="190" width="103.88000000000001" height="40" as="geometry" />
        </mxCell>
        <mxCell id="kBP0Oe7k8TxSiVuU12CA-111" value="" style="endArrow=classic;html=1;strokeWidth=2;exitX=0;exitY=0.75;exitDx=0;exitDy=0;spacing=0;entryX=1;entryY=0.5;entryDx=0;entryDy=0;" parent="5ZAUk3ZZXwPiC2q51OY_-203" source="kBP0Oe7k8TxSiVuU12CA-109" target="5ZAUk3ZZXwPiC2q51OY_-80" edge="1">
          <mxGeometry x="875.3175074183976" y="342" as="geometry">
            <mxPoint x="921.6083086053412" y="483" as="sourcePoint" />
            <mxPoint x="575" y="292" as="targetPoint" />
            <Array as="points" />
          </mxGeometry>
        </mxCell>
        <mxCell id="kBP0Oe7k8TxSiVuU12CA-112" value="Serial Comm" style="edgeLabel;resizable=0;html=1;align=center;verticalAlign=middle;spacing=0;" parent="kBP0Oe7k8TxSiVuU12CA-111" connectable="0" vertex="1">
          <mxGeometry relative="1" as="geometry">
            <mxPoint x="34" y="-17" as="offset" />
          </mxGeometry>
        </mxCell>
        <mxCell id="kBP0Oe7k8TxSiVuU12CA-80" value="" style="endArrow=classic;html=1;strokeWidth=2;exitX=1;exitY=0.75;exitDx=0;exitDy=0;spacing=0;entryX=0;entryY=0.5;entryDx=0;entryDy=0;" parent="5ZAUk3ZZXwPiC2q51OY_-203" source="kBP0Oe7k8TxSiVuU12CA-42" target="5ZAUk3ZZXwPiC2q51OY_-26" edge="1">
          <mxGeometry x="43" y="138" as="geometry">
            <mxPoint x="93" y="279" as="sourcePoint" />
            <mxPoint x="215" y="313" as="targetPoint" />
            <Array as="points" />
          </mxGeometry>
        </mxCell>
        <mxCell id="kBP0Oe7k8TxSiVuU12CA-81" value="Serial Comm" style="edgeLabel;resizable=0;html=1;align=center;verticalAlign=middle;spacing=0;" parent="kBP0Oe7k8TxSiVuU12CA-80" connectable="0" vertex="1">
          <mxGeometry relative="1" as="geometry">
            <mxPoint x="-38" y="-17.9" as="offset" />
          </mxGeometry>
        </mxCell>
        <mxCell id="kBP0Oe7k8TxSiVuU12CA-144" value="" style="endArrow=classic;startArrow=classic;html=1;strokeWidth=2;spacing=0;strokeColor=#FF0000;exitX=0;exitY=0.5;exitDx=0;exitDy=0;" parent="5ZAUk3ZZXwPiC2q51OY_-203" source="5ZAUk3ZZXwPiC2q51OY_-80" target="kBP0Oe7k8TxSiVuU12CA-2" edge="1">
          <mxGeometry width="50" height="50" relative="1" as="geometry">
            <mxPoint x="405" y="292" as="sourcePoint" />
            <mxPoint x="460.5519287833828" y="186" as="targetPoint" />
            <Array as="points">
              <mxPoint x="375" y="311" />
            </Array>
          </mxGeometry>
        </mxCell>
        <mxCell id="kBP0Oe7k8TxSiVuU12CA-135" value="" style="endArrow=classic;html=1;strokeWidth=2;endFill=1;startArrow=classic;startFill=1;spacing=0;strokeColor=#FF0000;entryX=0.05;entryY=0.05;entryDx=0;entryDy=0;entryPerimeter=0;exitX=0.1;exitY=1;exitDx=0;exitDy=0;exitPerimeter=0;" parent="5ZAUk3ZZXwPiC2q51OY_-203" source="kBP0Oe7k8TxSiVuU12CA-2" target="kBP0Oe7k8TxSiVuU12CA-450" edge="1">
          <mxGeometry width="50" height="50" relative="1" as="geometry">
            <mxPoint x="343" y="752" as="sourcePoint" />
            <mxPoint x="415" y="1052" as="targetPoint" />
          </mxGeometry>
        </mxCell>
        <mxCell id="kBP0Oe7k8TxSiVuU12CA-142" value="" style="endArrow=classic;startArrow=classic;html=1;strokeWidth=2;spacing=0;strokeColor=#FF0000;exitX=1;exitY=0.5;exitDx=0;exitDy=0;" parent="5ZAUk3ZZXwPiC2q51OY_-203" source="5ZAUk3ZZXwPiC2q51OY_-26" target="kBP0Oe7k8TxSiVuU12CA-2" edge="1">
          <mxGeometry width="50" height="50" relative="1" as="geometry">
            <mxPoint x="353" y="346" as="sourcePoint" />
            <mxPoint x="353" y="719" as="targetPoint" />
            <Array as="points">
              <mxPoint x="376" y="311" />
            </Array>
          </mxGeometry>
        </mxCell>
        <mxCell id="kBP0Oe7k8TxSiVuU12CA-91" value="" style="html=1;outlineConnect=0;fillColor=#e1d5e7;gradientDirection=north;strokeWidth=2;shape=mxgraph.networks.comm_link_edge;html=1;startArrow=classic;startFill=1;endArrow=classic;endFill=1;entryX=0.5;entryY=0;entryDx=0;entryDy=0;exitX=1;exitY=0;exitDx=0;exitDy=0;strokeColor=#9673a6;spacing=0;" parent="5ZAUk3ZZXwPiC2q51OY_-203" source="5ZAUk3ZZXwPiC2q51OY_-25" target="kBP0Oe7k8TxSiVuU12CA-88" edge="1">
          <mxGeometry x="-27" y="261.2" width="100" height="100" as="geometry">
            <mxPoint x="177.75" y="483.7" as="sourcePoint" />
            <mxPoint x="368.5" y="779.4200000000001" as="targetPoint" />
            <Array as="points">
              <mxPoint x="322" y="700.4200000000001" />
            </Array>
          </mxGeometry>
        </mxCell>
        <mxCell id="kBP0Oe7k8TxSiVuU12CA-36" value="&lt;div style=&quot;font-size: 8px&quot;&gt;&lt;font style=&quot;font-size: 8px&quot;&gt;Aim&lt;/font&gt;&lt;/div&gt;" style="image;html=1;image=img/lib/clip_art/telecommunication/Signal_tower_on_128x128.png;rotation=0;spacing=0;" parent="5ZAUk3ZZXwPiC2q51OY_-203" vertex="1">
          <mxGeometry x="174" y="501" width="20" height="25" as="geometry" />
        </mxCell>
        <mxCell id="SXGCaw3eZDn8gsVC37cF-1" value="&lt;div style=&quot;text-align: left&quot;&gt;&lt;span style=&quot;font-size: 8px&quot;&gt;COK tag: 116989&lt;/span&gt;&lt;/div&gt;&lt;font style=&quot;font-size: 8px&quot;&gt;&lt;div style=&quot;text-align: left&quot;&gt;&lt;span&gt;Internal IP : 10.7.1.108&lt;/span&gt;&lt;/div&gt;&lt;div style=&quot;text-align: left&quot;&gt;&lt;span&gt;Internal Gateway: 10.7.1.2&lt;/span&gt;&lt;/div&gt;&lt;/font&gt;" style="text;html=1;strokeColor=none;fillColor=none;align=center;verticalAlign=middle;whiteSpace=wrap;rounded=0;" vertex="1" parent="5ZAUk3ZZXwPiC2q51OY_-203">
          <mxGeometry x="185" y="741" width="110" height="45" as="geometry" />
        </mxCell>
        <mxCell id="7c3789c024ecab99-56" style="edgeStyle=none;html=1;labelBackgroundColor=none;endArrow=none;endFill=0;strokeWidth=2;fontFamily=Verdana;fontSize=28;fontColor=#6881B3;" parent="1" edge="1">
          <mxGeometry relative="1" as="geometry">
            <mxPoint x="1665.797101449275" y="781" as="targetPoint" />
          </mxGeometry>
        </mxCell>
        <mxCell id="kBP0Oe7k8TxSiVuU12CA-362" value="&amp;nbsp;Light Vehicle Shop" style="rounded=1;whiteSpace=wrap;html=1;shadow=0;comic=0;strokeColor=#036897;strokeWidth=2;fillColor=none;fontFamily=Verdana;fontSize=28;fontColor=#6881B3;align=center;arcSize=11;verticalAlign=top;spacing=0;" parent="1" vertex="1">
          <mxGeometry x="44.34" y="1120" width="760" height="805" as="geometry" />
        </mxCell>
        <mxCell id="my2wBsY7dScjlPKwic7B-33" value="&amp;nbsp;&amp;nbsp; Safety Building" style="rounded=1;whiteSpace=wrap;html=1;shadow=0;comic=0;strokeColor=#036897;strokeWidth=2;fillColor=none;fontFamily=Verdana;fontSize=28;fontColor=#6881B3;align=center;arcSize=11;verticalAlign=top;spacing=0;" parent="1" vertex="1">
          <mxGeometry x="42.5" y="2220" width="762.5" height="821" as="geometry" />
        </mxCell>
        <mxCell id="5ZAUk3ZZXwPiC2q51OY_-205" value="" style="group" parent="1" vertex="1" connectable="0">
          <mxGeometry x="304" y="1230" width="200" height="371" as="geometry" />
        </mxCell>
        <mxCell id="5ZAUk3ZZXwPiC2q51OY_-206" value="" style="group" parent="5ZAUk3ZZXwPiC2q51OY_-205" vertex="1" connectable="0">
          <mxGeometry y="21" width="200" height="350" as="geometry" />
        </mxCell>
        <mxCell id="5ZAUk3ZZXwPiC2q51OY_-207" value="" style="rounded=0;whiteSpace=wrap;html=1;spacing=0;" parent="5ZAUk3ZZXwPiC2q51OY_-206" vertex="1">
          <mxGeometry width="200" height="350" as="geometry" />
        </mxCell>
        <mxCell id="5ZAUk3ZZXwPiC2q51OY_-208" value="Pump 1" style="shape=mxgraph.signs.transportation.gas_1;html=1;pointerEvents=1;fillColor=#000000;strokeColor=none;verticalLabelPosition=bottom;verticalAlign=top;align=center;spacing=0;flipH=1;" parent="5ZAUk3ZZXwPiC2q51OY_-206" vertex="1">
          <mxGeometry x="40.5" y="77" width="31" height="37" as="geometry" />
        </mxCell>
        <mxCell id="5ZAUk3ZZXwPiC2q51OY_-209" value="Pump 2" style="shape=mxgraph.signs.transportation.gas_1;html=1;pointerEvents=1;fillColor=#000000;strokeColor=none;verticalLabelPosition=bottom;verticalAlign=top;align=center;spacing=0;" parent="5ZAUk3ZZXwPiC2q51OY_-206" vertex="1">
          <mxGeometry x="88.75" y="280" width="31" height="38" as="geometry" />
        </mxCell>
        <mxCell id="5ZAUk3ZZXwPiC2q51OY_-210" value="" style="shape=image;html=1;verticalLabelPosition=bottom;verticalAlign=top;imageAspect=0;image=img/clipart/Gear_128x128.png;direction=west;spacing=0;" parent="5ZAUk3ZZXwPiC2q51OY_-206" vertex="1">
          <mxGeometry x="46" y="27" width="25.5" height="30" as="geometry" />
        </mxCell>
        <mxCell id="5ZAUk3ZZXwPiC2q51OY_-211" value="" style="endArrow=classic;html=1;strokeWidth=2;exitX=0.41;exitY=0;exitDx=0;exitDy=0;exitPerimeter=0;spacing=0;entryX=1;entryY=0.5;entryDx=0;entryDy=0;" parent="5ZAUk3ZZXwPiC2q51OY_-206" source="5ZAUk3ZZXwPiC2q51OY_-209" target="5ZAUk3ZZXwPiC2q51OY_-223" edge="1">
          <mxGeometry x="75" y="195" width="50" height="50" as="geometry">
            <mxPoint x="595" y="585" as="sourcePoint" />
            <mxPoint x="101" y="250" as="targetPoint" />
          </mxGeometry>
        </mxCell>
        <mxCell id="5ZAUk3ZZXwPiC2q51OY_-212" style="edgeStyle=none;html=1;labelBackgroundColor=none;endArrow=none;endFill=0;strokeWidth=2;fontFamily=Verdana;fontSize=15;fontColor=#036897;spacing=0;entryX=0.5;entryY=0;entryDx=0;entryDy=0;exitX=0.41;exitY=0;exitDx=0;exitDy=0;exitPerimeter=0;" parent="5ZAUk3ZZXwPiC2q51OY_-206" source="5ZAUk3ZZXwPiC2q51OY_-208" target="5ZAUk3ZZXwPiC2q51OY_-210" edge="1">
          <mxGeometry x="75" y="195" as="geometry">
            <mxPoint x="80" y="47" as="targetPoint" />
            <mxPoint x="115" y="47" as="sourcePoint" />
          </mxGeometry>
        </mxCell>
        <mxCell id="5ZAUk3ZZXwPiC2q51OY_-213" style="edgeStyle=none;html=1;labelBackgroundColor=none;endArrow=none;endFill=0;strokeWidth=2;fontFamily=Verdana;fontSize=15;fontColor=#036897;entryX=0.095;entryY=0.5;entryDx=0;entryDy=0;entryPerimeter=0;exitX=0;exitY=0.5;exitDx=0;exitDy=0;spacing=0;" parent="5ZAUk3ZZXwPiC2q51OY_-206" source="5ZAUk3ZZXwPiC2q51OY_-225" target="5ZAUk3ZZXwPiC2q51OY_-209" edge="1">
          <mxGeometry x="75" y="195" as="geometry">
            <mxPoint x="825" y="515" as="sourcePoint" />
            <mxPoint x="875" y="514.9992857142857" as="targetPoint" />
          </mxGeometry>
        </mxCell>
        <mxCell id="5ZAUk3ZZXwPiC2q51OY_-216" value="" style="endArrow=classic;html=1;strokeWidth=2;entryX=0.25;entryY=0;entryDx=0;entryDy=0;spacing=0;" parent="5ZAUk3ZZXwPiC2q51OY_-206" source="5ZAUk3ZZXwPiC2q51OY_-208" target="5ZAUk3ZZXwPiC2q51OY_-224" edge="1">
          <mxGeometry x="75" y="195" width="50" height="50" as="geometry">
            <mxPoint x="85" y="110" as="sourcePoint" />
            <mxPoint x="86.34999999999991" y="171.19999999999982" as="targetPoint" />
            <Array as="points">
              <mxPoint x="88" y="97" />
            </Array>
          </mxGeometry>
        </mxCell>
        <mxCell id="5ZAUk3ZZXwPiC2q51OY_-219" value="Pump Relay" style="text;html=1;strokeColor=none;fillColor=none;align=center;verticalAlign=middle;whiteSpace=wrap;rounded=0;" parent="5ZAUk3ZZXwPiC2q51OY_-206" vertex="1">
          <mxGeometry x="2" y="32" width="40" height="20" as="geometry" />
        </mxCell>
        <mxCell id="5ZAUk3ZZXwPiC2q51OY_-221" value="" style="group" parent="5ZAUk3ZZXwPiC2q51OY_-206" vertex="1" connectable="0">
          <mxGeometry x="74" y="165.28999999999996" width="55" height="68.935" as="geometry" />
        </mxCell>
        <mxCell id="5ZAUk3ZZXwPiC2q51OY_-222" value="" style="rounded=0;whiteSpace=wrap;html=1;fillColor=#D1D1D1;strokeColor=#007FFF;" parent="5ZAUk3ZZXwPiC2q51OY_-221" vertex="1">
          <mxGeometry width="55" height="20" as="geometry" />
        </mxCell>
        <mxCell id="5ZAUk3ZZXwPiC2q51OY_-223" value="" style="rounded=0;whiteSpace=wrap;html=1;rotation=90;fillColor=#CCCCCC;spacing=2;strokeColor=#007FFF;" parent="5ZAUk3ZZXwPiC2q51OY_-221" vertex="1">
          <mxGeometry x="2.6599999999999966" y="35.97" width="49.68" height="16.25" as="geometry" />
        </mxCell>
        <mxCell id="5ZAUk3ZZXwPiC2q51OY_-224" value="&lt;div style=&quot;font-size: 9px&quot;&gt;&lt;font style=&quot;font-size: 9px&quot;&gt;FMU&lt;/font&gt;&lt;/div&gt;&lt;div style=&quot;font-size: 9px&quot;&gt;&lt;font style=&quot;font-size: 9px&quot;&gt;SN XXX003 &lt;br&gt;&lt;/font&gt;&lt;/div&gt;" style="text;html=1;strokeColor=none;align=center;verticalAlign=middle;whiteSpace=wrap;rounded=0;fillColor=#A9C4EB;" parent="5ZAUk3ZZXwPiC2q51OY_-221" vertex="1">
          <mxGeometry width="54.99" height="20" as="geometry" />
        </mxCell>
        <mxCell id="5ZAUk3ZZXwPiC2q51OY_-225" value="" style="shape=image;html=1;verticalLabelPosition=bottom;verticalAlign=top;imageAspect=0;image=img/clipart/Gear_128x128.png;direction=west;spacing=0;" parent="5ZAUk3ZZXwPiC2q51OY_-206" vertex="1">
          <mxGeometry x="29" y="284" width="25.5" height="30" as="geometry" />
        </mxCell>
        <mxCell id="5ZAUk3ZZXwPiC2q51OY_-226" value="Pump Relay" style="text;html=1;strokeColor=none;fillColor=none;align=center;verticalAlign=middle;whiteSpace=wrap;rounded=0;" parent="5ZAUk3ZZXwPiC2q51OY_-206" vertex="1">
          <mxGeometry x="22.5" y="260" width="40" height="20" as="geometry" />
        </mxCell>
        <mxCell id="5ZAUk3ZZXwPiC2q51OY_-227" value="&lt;div style=&quot;font-size: 8px&quot; align=&quot;left&quot;&gt;&lt;font style=&quot;font-size: 8px&quot;&gt;Public IP: 12.204.220.57&lt;/font&gt;&lt;font style=&quot;font-size: 8px&quot;&gt;&lt;/font&gt;&lt;/div&gt;&lt;div style=&quot;font-size: 8px&quot; align=&quot;left&quot;&gt;&lt;font style=&quot;font-size: 8px&quot;&gt;Internal IP: 10.40.33.65&lt;/font&gt;&lt;/div&gt;&lt;div style=&quot;font-size: 8px&quot; align=&quot;left&quot;&gt;&lt;font style=&quot;font-size: 8px&quot;&gt;Internal Gateway: 10.40.250.1&lt;/font&gt;&lt;font style=&quot;font-size: 8px&quot;&gt;&lt;font style=&quot;font-size: 8px&quot;&gt;&lt;span style=&quot;line-height: 100% ; font-size: 8px&quot;&gt;&lt;/span&gt;&lt;/font&gt;&lt;/font&gt;&lt;/div&gt;" style="text;html=1;strokeColor=none;fillColor=none;align=left;verticalAlign=middle;whiteSpace=wrap;rounded=0;fontSize=8;" parent="5ZAUk3ZZXwPiC2q51OY_-206" vertex="1">
          <mxGeometry x="81" y="22" width="111.25" height="40" as="geometry" />
        </mxCell>
        <mxCell id="5ZAUk3ZZXwPiC2q51OY_-228" value="Island A" style="text;html=1;strokeColor=none;fillColor=none;align=center;verticalAlign=middle;whiteSpace=wrap;rounded=0;spacing=0;" parent="5ZAUk3ZZXwPiC2q51OY_-205" vertex="1">
          <mxGeometry x="69" width="61" height="20" as="geometry" />
        </mxCell>
        <mxCell id="5ZAUk3ZZXwPiC2q51OY_-230" value="" style="html=1;outlineConnect=0;fillColor=#e1d5e7;gradientDirection=north;strokeWidth=2;shape=mxgraph.networks.comm_link_edge;html=1;startArrow=classic;startFill=1;endArrow=classic;endFill=1;entryX=0.75;entryY=0;entryDx=0;entryDy=0;strokeColor=#9673a6;spacing=0;exitX=1;exitY=1;exitDx=0;exitDy=0;" parent="1" source="5ZAUk3ZZXwPiC2q51OY_-223" target="5ZAUk3ZZXwPiC2q51OY_-295" edge="1">
          <mxGeometry x="87" y="2230" width="100" height="100" as="geometry">
            <mxPoint x="145" y="1551" as="sourcePoint" />
            <mxPoint x="494" y="1872.2" as="targetPoint" />
            <Array as="points">
              <mxPoint x="125" y="1576" />
              <mxPoint x="474" y="1852.2" />
            </Array>
          </mxGeometry>
        </mxCell>
        <mxCell id="5ZAUk3ZZXwPiC2q51OY_-239" value="COK Cisco Router" style="text;html=1;strokeColor=none;fillColor=none;align=center;verticalAlign=middle;whiteSpace=wrap;rounded=0;spacing=0;" parent="1" vertex="1">
          <mxGeometry x="540" y="2048" width="109" height="20" as="geometry" />
        </mxCell>
        <mxCell id="5ZAUk3ZZXwPiC2q51OY_-240" value="Employee" style="pointerEvents=1;shadow=0;dashed=0;html=1;strokeColor=none;fillColor=#505050;labelPosition=center;verticalLabelPosition=bottom;verticalAlign=top;outlineConnect=0;align=center;shape=mxgraph.office.users.user;rotation=0;spacing=0;" parent="1" vertex="1">
          <mxGeometry x="476.25" y="1705" width="31.5" height="35" as="geometry" />
        </mxCell>
        <mxCell id="5ZAUk3ZZXwPiC2q51OY_-241" value="" style="endArrow=none;dashed=1;html=1;dashPattern=1 2;strokeWidth=2;spacing=0;" parent="1" source="5ZAUk3ZZXwPiC2q51OY_-258" target="5ZAUk3ZZXwPiC2q51OY_-240" edge="1">
          <mxGeometry x="87" y="2230" width="50" height="50" as="geometry">
            <mxPoint x="314" y="1976" as="sourcePoint" />
            <mxPoint x="364" y="1926" as="targetPoint" />
          </mxGeometry>
        </mxCell>
        <mxCell id="5ZAUk3ZZXwPiC2q51OY_-242" value="&lt;div&gt;&lt;font style=&quot;font-size: 17px&quot;&gt;&lt;span style=&quot;font-family: &amp;#34;calibri&amp;#34; , sans-serif&quot;&gt;&lt;span&gt;3409 Vice Mayor Jack Sharp Road&lt;/span&gt;&lt;br&gt;&lt;/span&gt;&lt;/font&gt;&lt;/div&gt;&lt;div&gt;&lt;font style=&quot;font-size: 17px&quot;&gt;&lt;span style=&quot;font-family: &amp;#34;calibri&amp;#34; , sans-serif&quot;&gt;1 Island, 2 Fuel Dispensers, 4 Hoses,&amp;nbsp; 1 Tank&lt;/span&gt;&lt;/font&gt;&lt;/div&gt;" style="text;html=1;strokeColor=none;fillColor=none;align=center;verticalAlign=middle;whiteSpace=wrap;rounded=0;spacing=0;" parent="1" vertex="1">
          <mxGeometry x="264.49" y="1175.5" width="324.52" height="45" as="geometry" />
        </mxCell>
        <mxCell id="5ZAUk3ZZXwPiC2q51OY_-243" value="Wireless" style="pointerEvents=1;shadow=0;dashed=0;html=1;strokeColor=none;fillColor=#505050;labelPosition=center;verticalLabelPosition=bottom;verticalAlign=top;outlineConnect=0;align=center;shape=mxgraph.office.devices.modem;spacing=0;" parent="1" vertex="1">
          <mxGeometry x="459.0064985163204" y="1813" width="49.99406528189911" height="34" as="geometry" />
        </mxCell>
        <mxCell id="5ZAUk3ZZXwPiC2q51OY_-244" value="" style="fontColor=#0066CC;verticalAlign=top;verticalLabelPosition=bottom;labelPosition=center;align=center;html=1;outlineConnect=0;fillColor=#CCCCCC;strokeColor=#6881B3;gradientColor=none;gradientDirection=north;strokeWidth=2;shape=mxgraph.networks.laptop;spacing=0;" parent="1" vertex="1">
          <mxGeometry x="334.7544213649852" y="1810" width="69.43620178041543" height="40" as="geometry" />
        </mxCell>
        <mxCell id="5ZAUk3ZZXwPiC2q51OY_-245" value="COK Switch" style="verticalAlign=top;verticalLabelPosition=bottom;labelPosition=center;align=center;html=1;outlineConnect=0;fillColor=#CCCCCC;strokeColor=#6881B3;gradientColor=none;gradientDirection=north;strokeWidth=2;shape=mxgraph.networks.switch;spacing=0;" parent="1" vertex="1">
          <mxGeometry x="577.9991097922849" y="1815" width="92.58160237388724" height="30" as="geometry" />
        </mxCell>
        <mxCell id="5ZAUk3ZZXwPiC2q51OY_-248" value="" style="endArrow=classic;startArrow=classic;html=1;strokeWidth=2;spacing=0;strokeColor=#FF0000;exitX=0.1;exitY=1;exitDx=0;exitDy=0;exitPerimeter=0;" parent="1" source="5ZAUk3ZZXwPiC2q51OY_-245" target="5ZAUk3ZZXwPiC2q51OY_-233" edge="1">
          <mxGeometry x="87" y="2230" width="50" height="50" as="geometry">
            <mxPoint x="387.973293768546" y="1687" as="sourcePoint" />
            <mxPoint x="434.2640949554896" y="1637" as="targetPoint" />
          </mxGeometry>
        </mxCell>
        <mxCell id="5ZAUk3ZZXwPiC2q51OY_-249" value="" style="edgeStyle=orthogonalEdgeStyle;rounded=0;orthogonalLoop=1;jettySize=auto;html=1;startArrow=classic;startFill=1;endArrow=classic;endFill=1;strokeWidth=2;spacing=0;fillColor=#dae8fc;strokeColor=#FF0000;" parent="1" source="5ZAUk3ZZXwPiC2q51OY_-243" target="5ZAUk3ZZXwPiC2q51OY_-245" edge="1">
          <mxGeometry x="87" y="2230" as="geometry" />
        </mxCell>
        <mxCell id="5ZAUk3ZZXwPiC2q51OY_-250" value="" style="html=1;outlineConnect=0;fillColor=#dae8fc;gradientDirection=north;strokeWidth=2;shape=mxgraph.networks.comm_link_edge;html=1;startArrow=classic;startFill=1;endArrow=classic;endFill=1;entryX=0.85;entryY=0.5;entryDx=0;entryDy=0;entryPerimeter=0;strokeColor=#6c8ebf;spacing=0;" parent="1" source="5ZAUk3ZZXwPiC2q51OY_-243" target="5ZAUk3ZZXwPiC2q51OY_-244" edge="1">
          <mxGeometry x="87" y="2230" width="100" height="100" as="geometry">
            <mxPoint x="680.5311572700297" y="1206" as="sourcePoint" />
            <mxPoint x="769.4094955489614" y="1220" as="targetPoint" />
          </mxGeometry>
        </mxCell>
        <mxCell id="5ZAUk3ZZXwPiC2q51OY_-258" value="Prokey FOB" style="shape=image;imageAspect=0;aspect=fixed;verticalLabelPosition=bottom;verticalAlign=top;image=data:image/png,iVBORw0KGgoAAAANSUhEUgAAADsAAAA6CAYAAAAOeSEWAAAg0npUWHRSYXcgcHJvZmlsZSB0eXBlIGV4aWYAAHjarZtpcpy5ckX/YxVeAsYEsByMEd6Bl+9zURQlqxX9+r2w2C1SxfqmHO6QQLnzP/993X/xp1rOLpfarJt5/uSeexz80PzPP+fr++e14PP7+8ef8PV3cL/+4s6vX0deSXxPn3/W/PV6+nr9x4ns+zsn+sMvQvntgPR9/fjrhev4vnD8P3dUVtj+1z/t5//37nbv+TzdyEYY7PNQn0u4H6fhjTxYTu8w46vyf+Hn+r46X80Pv0L22y8/+VqhhxiSvyGH7cIIN5yw+b7C4h5zPLHyPcYV03utpRp7XMmnkLK+wo019bRTSzGteFJK2aX4fS/hXbe/663QuPIOvDUGThY45G+/3L96wz/5und5YhTCC+Z8seK+YlQegsKY9DdvIyHhfuWtvAD/+Pr+435JbCKD5YW58YDDz88pZgk/ayu9Aki8r/D9U1+hbmUtvirJXLtwMyGRAm8hlWDB1xhrCDnFRoIGdx5TjpMMhFLi5iZjTsnITaOOuDbH1PDeG0v8vE6rkJ+SLFVy09MgWTkX6qfmRg2NkkoupVippZVehrNk2YqZVVPPjZpqrqVarbXVXkdLLbfSrNXWWm+jx55oydKt195672NwzZHdKIOjB+8YY8aZZp5l2qyzzT7HonxWXmXZqqutvsaOO+28y7Zdd9t9jxMOpeROPuXYqaedfsal1m66+ZZrt952+x3fWfvK6l++/o2sha+sxZcpva9+Z41Xa9WJ3imCcKYoZ2Qs5kDGqzJAQUflzLeQc1TmlDPfI11RIjdZlJsd/HDBSGE+IZYbvnP3M3P/OG+OWP+rvMV/kjmn1P0/ZC66k37L2x+ytoWE62Xs04WKqU90Hwhid+4wq9unbwiAi7RTwpx1n7bnufmM2ICX/f5h+9ZRS8gF1Dv6xztB4ikiV6h23Tvd52wBDP+3z0Qe++x5utJWms2i70Rg5r4J9/L9vc142G1lDuLV71qnUymTy48wBlDcd01jGVG75mocOe94VDbGz+ZvAhUuHbujUQt19VFPn37PvcmV1XZj4Qm6rVNaD6uHfhoEadTCLGQ43rozpTRtdTu25rpztHPqWjxeabQPwe3A+C2jznRqWCXPmOyk6+LJnn/m4m9dsO7lrGsMTkSMwO99zy5xLIDdbg6Hhjlglt0S9pjhmBXKf163bl8ljZPr1p2Mnc6xS7z25uZSP/02bjneQ93xg63rV64nFcIw1ojnUJOruJBPvp5cjbhPbvPsPmsdvXCF0hdFn7YN8nhbmneC9RAZ/+JxV608Nkma9VbSP0gJ/UG6SWvfcZblLXXbKytzZ4YeFee0Wlu53Uw6UuIOU1v1bn68Z25XKsVIl3EDfF2Y9VKx5Uxgt5a8bqANYh8xNw6hbz3MXUkRMGDzDC5GAkJ15ChNsp9apK3Hp9jO2sXgyRC31dDTufwUZ07mOTTuDiV3XXCY2pJaWk5vW/ymnE1HmnUfDYJd22i8xG0R/ZFiWXBJpnaOH/3SxtAv7ZaWD+0sG92tHULb9AtV3E+c4wBkQMSJq3FbBwRSYyAnIn3VaN8/f3efH3rmRhos20aJvlEtaT1Io+rWbLfaPvPS/pn/IjV2/Mw01zp3BvpqckchrXtC2S1TrmDLsUZg6NdM1IBdGo6DSCMdVQCbWdSIJwBao/IEYxNYYGTZKZej03lxzqcOo0fTAlYALotCONtTkoeTzrYOt0VoeiqrUopZ6ucURy8R4FZU8j7T2aQpLnVrLrNCfvRXAN4q0achCjebuTvAuoKxu1GC61DOrs/Z6tgV8QWupDlB8LG4/egX0DTa4lVoyUbklJwtVcqU+PBDuCVlO4uCae7WOoGNCZwBHl3wNSbqMPXR4Cs1elnQD0kl0DSIOoq86CKEgwvyDyrLHRtpUZN0+DQJutwA8chZadhdwtrJuB9aGylCP2QgxkIYp1YlgBqmyta6Lq0Fk84agDNLSm8ae1FpAywpQk4xaz8GuRQeL03YNylBG5bSwxUaMqBGIKtBW9L4cc8Z8znQx9jgE8oo2OERgU3qlJSm2XXkpiV7nceq+DOIAZqjONryf1+1fOfJQDXqpJMa8HeP4QGNpAymBCG4ZkTokppIH4MTlM+Et8cZBkVFyojrGzGa4UK0A5wH3mmaeXnaSxKoEyyMywIoH+c6ixiPffi+Y/Ln5JlAoVK4eMHa8Ms2F8wNMFV0NhVQK0KcMNBKhayRKXqHWyl750njUmcioizVn/KgbmcGEANlSFk0EJfK5fD30GiEropxAPPQUUEpjwKyDDhz5tRGVsFEBAWJjwgKUrpmbBfYiGYJTkokmGNXvKgRj9whAfG+x9iNngPXGldcF07kDsM2JNWhOSB7kWOHOrizKjhGH9CZcD+oecpMQH7jTNQMcEmw4WqeAr0L3zVSX2mP2StQSe9v0ADhfOmgmi8iZm+HGDqktvsJlgZYq3HiIVxZnZN6iUokDIThIR9k06d4/HmF8bN23B+LBpHEDaPgFliwR98lbemkCxt5/iNng+t3WAUVlS5sxoloPYQZeAbpUFs8GE9KQ/Icu1cbKHzB3T3QHxLh7LNUPXDL8MTbIhZheifgaIu8rZ2BG4KcZ1DeBeBrjivVVlZDJ8BA0iVWNmlF7VR1HOQJ8lRkDexCrGYut/YIlm65SVSvwIRbIcxUngALnEAQU05joucSaIgaqQIeCqW50jNprUXFluFoD28RgrNH5vqdWiR/iCEenVf0Lth+JGUxdvQpeOHv2mhI6wjhlUZ50a5AfUkp7EsI0DWIO8RLEKohkDqEMid5HNwHZ1+Q/0QmUHnOg7iDuqCX54/HMGTRjbQbtBZU4potjHJnLEN5nPD5BfoNEXNLRxqm4XDCmUsEuGkBRYaW5znnQT6Hjjk7OfOPBK3h5mBbuJTf02O7PvBVGMrtx+2N1JOZluRBmPUjJgroayRSu9sXC/CHlSiERHn1tVoaj/ltTBKLlKMkXIxgNAZiJigGzco5N2gTCkoW1y66Vjx//U6k6fOr9oP9gWMeHl4DJioSClZOk1anEEleBrQo3uQRALPTTDdM08U8sUdrBJpuoWmpRiQ+HE3WQH50GNGhJgNtjWCi3yhRKsfTxUBkiUDg3qjnjTqmWCIazATsEz0WgVwIMms2QFgvnYEYJIh0fm0oSFtNwEFWJyKVVxAG9ATYFyLENZv4ctIyBB9zDCQfkorkWIqJR8aVtTKMCXEB3Nap98VViSvimPLgmoI8Mks1wSYFr1QTCDmTOnyAvvyna0Dmsjk5G0WMLgkQD4qBaEL3FS6HR5Hp6rNVxquLshyEwvFtN1GXaeR0hKueDKM3hBJgFVKBYxHar4LGpVISEW506SLykI1hRcU+JchaUahIGok+o2GjHSJMi6uEZ/Eb9U2beOQTQnB4HgPWICV7jwaMDEkvuOLQbEhSeq+QDmCtSyiDwk++FetRDwZUAxK0m8c+UaIIUJwoAtwh6EDbC91ByvSyIXavCbKnYTzVWhmU2ROykcuBAxCq6CXcMrre+kUWIDJchCkmlZ+ArHIXN4mQ7XqahLozKkd8h0RCX3NTtDwShci0MSnrSEe1ewitCx5KOW/GUwEyasaM8gNjl7q/Q00IUqguI7x5jVtGr67kDZnR4V6gUOznajOZfdoOgKk1L5HFxq3B46pKSBY8kcdNcpV4lUIjccGIaKAOuPaRkHJrLUKomoO10TUK+LLHuvQN+hinthsCd0Jx8iYARDBstlySJUxd38otagQn1EAnyWZP7dB4ALEYTBp4U+w8Lk+GrEIZxgq3iPkBEdD3vsc0TUaRCyEiTQhG4ARzSfpwDbSpRmSUsKroOZgwkPKJjkb/FrQjyQdBIsgMrLpdFi3Cz4TsceeIyIK/cCb4XSoIB06XGJ8gaPQzjiRwpysOR6kpN5pCgjJ+Y+OhScQkRpksAOJNDhSujdL56EOAcUFrHIFpO42SNeoTl43rToRA1F/JcQU70PsDBptcCUFN2bSMvOQikYDzsKnxNAGNVibOrGHTvQPzwW/cIBkjGSAV8hYYTWjhPh4tFI1mrHVZcY0FAIwK3HJay0BCf/Nf5+nZw3s/uS4QE0FL8t5RfgI8LblizyqKr1PC+MS6BtE9UQNLOANX3CswIusCN3DTYrFcIrQCA3pVAMT98SHyyV1iA2aizEDdgCCkTuXAJqrDsOtIbHUTrIpgApcbLYIcihpAgYfo6k6Tcxrw6nJFGBC1Hq6ADTNanyPM2Cy8egWL0L0g2J14GhAFO+4597j4e/rBVHj4Uj8u8ssv7meprWm3gFpoOUHZTQrpsSbeicLEa6Fnw5scgFKKbyUL3LcGCnIfeByAA6yTbKAFKVMsRBxlto2KWp1HWIMOPJuzIioDTRhmpzIUYCy2DDFmigPoD1JPc4ZLHQJEzusiPC2ng7Ct5NS4GAV0C9IWvYIdi4S8UAeoDjTPEzKoSntIg4a/om8H8pbJPQrmIzd0psg84SiQIHhsGhx9Bl1Q4hAw2kGHbfHoAnHjJgUFQgD84aAPa7SoTFq+wDzVgHBTtsE1MInmwLVZVQHq0JM0yrQpjkr0TnIcCqE+1RxJfwCQuJsuDgsVg0jqaAvJejzmhAJCb4gxiIms1Mlt+UybJtfRHgG2ABEEkkhAwViqheDj0PohGtLrtV1khcYOJ9SPBASFQcUIV/NOB2sAUmQUsqOkw5VcFSs328fLC6MrpiozaLqBbhKJH60qwG22EgyzgD6nycwOCXqMx8/lb6OvCrxKA+4OwIQodSPrSmknqUYJ4ehzI44LyAARvVZqutRJKXhYwiavzRPQjWNQIgVyNF/gXgK21PPFUEoX/M9Pw+q0tBvK1OVkHVU1PGoIgQMgIR4UMog0etElxgSq33lUCFUD2pyzXArKkZRz9wdTUNCQDZSgbqYGShiM/EReASeo5Pej//m9gF0yS+LWfsLeyBZSTss71D+mW6VNl8pqHFnBA43i325SLgbeOhDqIh4R/UtywWa77guWEqx4o8Obi9eGaSCAXYbykPQdKYtmH6AJLVkkxjQKgUMgFBTBxTtGqnG2iijm8skBMbtrQEmrfIbK6CCsHUddzManIWo54RHhUqk3TTX2vSNpsjv0jpadvq35mdwBxkRG8IMMbXI0oKDGCihPnSW/qZf6SFr6UNE4pIXVAk8dlr/oZFJBByLm78oh+Qlyqq3huILG3VOPzEXRDTHpjtHsGfNQ13rdP8AV4nfRRkE4mRPKE4zRL3vdkgMailpCDUPig1v0OponygXy51miKt5BfegnYn0lzPg1UpucwvCDCEkR0gn+AvVgU6K3AFZck+b2adF4XyoZwX4PuFI97MjNEiXZm10VYU1KDc9kvgWTRdmoEQnrLS2dQ3oiJyD0LJkrE/9U99R8D/UB4xT1uiZQ8AqQC0dBNygiTodObOhCMNb4GT6LdjXYiinAIvvmdaXPZzoNfY2jykSpSz5y888rGE71oPEyeZhe09g3zpx0zhNsqTmosyXsMxB+56DWkXbYYnoFPHhyCFwWrt/wmeKilKlQpCdqAFVyORumYjpFBFAj+83LhVALmcTiQz6lKA7EPsUqVU3nV1UCPvkKl64hGNqusIJDhDWTKf3Ync750eqTG7np3YjfJm0r5C3vPqY/MtNV19BAQ0WlFkEcPFSctvilLG32VAvSYd4hTZ5v4DQQhjzGOVKxWHlUNxGb8CCNhAtxF1WB8kRKJnVIlovGVU8VZ5BBxQFTLpphBjoG3JXe8bgCUkCyg2aOquw2RUYo4VYG5fymvAjmLecgysui0k42KJ8u85hCEfKFO4nZ7QoaMnO5AtKtLSh5NpWC9KgzkshBVfyM0qYPEPDcpSZCDw+1FENezFrwktU7uPriAFfSlAgbVIP6B1sIQlAFo8idobm5bgORMSy4ALzClU0hjXosT8m6vp7hoPwrsk9dmIGYKquL6ErAxgm/jMZhW1LRE8A+LJtHpyLJdqgajNNY/UqsYPBAej/HW7aU4xpzpIKcsBGMRpTLbKocSmc1SoFvEICQ06FPC5JH8g2cwVkVT7+B1+B/RIQTWUUhcCos7yxP54F4BuFs4e7ykDfdT2Tpx6QB85QI5FegClksGvejq7V6RDjj9CFSZVqcTp1nQtOB16NqTEx0HHpd/KVRMK7pSHo0uIlgEXaDcnkErTUNKnT4YaijrJYjJGjgpam8TOd0mhKiEwrwj9u3bYAWYIC9XJKk4mm/laEEIW/CAOFEDCBKLyDVhRGmGaFDKmpQrN45yHIk0vQUt0RETHK5r25ANUGCVtsCYecNFHcDNR+i432rA1rzs3s5TVIS3+rQ2nLlkDmydjfN7eCzFTgVANu7H2jQi9CpGj6V0lAuyBqxOgHVOP6aXFuj0VEC9BceF68JzgLUAEQ25QOUhoeQeAqEVmIwpPli/LYWoZA9KDb0hqFYzmdFQEArrqUNwB7Ut0RmnCJdtDhGcsgrIrfkkB2VqEkXEph+vzQHwBSCBrfo+KrHEN/S8UFFO2idQ4l6kLuAQIHkc548m4PNo6Y6BFFZF0zTVUANxR/qFlhEkqiupi46xKjhulU80CSSpWKkgfjp0rPoqB1QAtAmByj2vFQrj+p5WmDfl1iwb/LrhE+VTzA0SMgyg6Becuj9GIA65FEn4TwDhjXj7YvIEM+F4QPFIz4wauREo2sZGI5az2g0cQg9iTsCeDUybRQqx3d+on3OooRWRyVNualj4cQAOAAM1Ci0oVFj0Monxx3a1okaMFJrHrrxNin5iZBGU/piyAwQMYJnHXG+kEDDJN1RbLN7roFzOlnNn1H+MlCa9GrAKR6r6H6tdmn2ErTm8GxemuIZk03umsfh3/E5SwOdg4UOTssSGZGBw4dJtbGqj/Jcov6xoOolD4kkot0KshuqI5+0bDyagRQkYNspu3G8psjNlNdUUCUdjSUlhX58EBg1/QWEguYQPdK2xBT4pPQ1IMRGXT+z/BqSsWGEuIk3ydwD5Be6ytChKaZHNFJgfcWmJky+eSpaTbZpcG25wB063tKbJ5qgNnzyRr6r8KYO6YKpiEd5RyRC6U0TL+qQRsnVR8OqSdhv6jM5zDmo2AO3+xb/glbVaJiIs8GIpc8qK7/kgYJOrnol1q2jZqHhmLG9JNkdraNrpVZYSuNoRQZIaaMhgzWNQARDPrlVTbx9mZqVay6V9LdWah6qTocBzov3aHEVE8LbU8CLAKuoeFphgADIX15DLGwp+4gOemuk0pxkqUnUanVdBsEw3QnC0sobz/H2OdAbSD/MJ+qPFtVSDaU83hyTXplaKFoGol/MigpS6xVNlVWRJY//3zx+9qzYx51hTOTpkgNAi2hIy1++4uZF7IgDKig7rawR2Z5bQiiuh2ZU4DpUf3iubhU6lo6YVbwX7ioAE/YqHhwlWbt07R5uYEBDRBN3lIOvWkiZBWHeUyS4tqSS0cW8Zz/lKD8YqY1wyuP9CorQ7Rd5rI1sGE2EPXDUNMrZXtvXwMsO4GuBdGuvTfSbSuLeloY42HhTRaDv3qo8ImLzbyptHwhJa4xE9MaBhMoaLfaiSTzIHzfRpmP7gjnDDVpUblCrlgKpGi3UvcU5Wb2rAhhcoLTPjH9pVlWmcAOxlyZGgrtWBWPDkNBgBQ1TfR7mNK1cHC3/rFUnqPCSHC3DklYJNC3qdBp9ae44Ak88Q9J8a2dNHQ0gAICdBYAd/4hYlkagp69mBiU8x9+bZGrX6hDtg1P1kfwOTc54C3AUaGTkWPOuQtE0Eg0D4tGH3IrMWQebdDsUS41CnZj21X49E9lSawRSeyI019Hq23WQC71b0ytc1BMhTGOUIWeEDH6yXXtG8EMTgy47oNmeFKIKYu432RrH4Rx4U7jj0T1aGspvC6ZCx4Rn6bY2QMKKFugy1T8lprHZCU0B05IQkthleO3tu6EwES4IEy0tnwYwA8emk2EV8puVg85wJUqSi6XRLjJ7vVisTfcrGEfzZKCd28KLvdWcrd1CovG3E8lne9rqKh3oIZhMAxyaKMvCFI+pAQxxaO9V0APOxSJomuGRFB78H30lLgKlUa7at2KV/tSyi6obWYWQxKuC2aJKxJPHJ8UX2oc6LWoFRAMl4A+hTE1UtWF+9UIh6LAc1z3aNzMwNVVrijEvoWTxoenpAclBYavclnZGSKpqaYe4Yc9Mooc+pDc6SrAs7RRzaJkMCdNKaHXNPgecLxEjhUqZaPXqeIJEQaKNoK0VclSfySty3BtUj+B+rJxhY4o2r5gMNWSKO8x6RK0XoYPUkLwOzEtB9yd86hJcnSmBVt3IT/tqWU3uGYgCjHbgkIPz1fBXyzGasiH7SslTu32ixtDPxqeI8ZYWcK8p5MA7TUZk4ILr0wIua5CfWdLBWs1MmgcL7FBKoI31TUuDh/QcwnM6bIe9BNxcZoOU12cGkWR2lSYkLbhScSgR2YXqerhIwqq2YUg97yKbxcVMjU5ljef0hyARTZMaqEyvA2iUk8bCWt3X5EnuTmPFqk1TIWgIBow0HEHQnKxrodZMW6DaehUqcpX4P5qB0EHRsFaoT55IGyHyeJt6UdDdb+1A0PYZ7Y7DIdGMgBolC3hvoAzmC01WHhM25xakZLxKrZA4pPd2wGCG8K0oti4sBCMDPow4UwJ6tCEPSXUOjT5n0iIXroK4DgBYk06ptK7J/ke5aA75YxKHSBFOLa0l0hVN+nR73ahp/f05B7JvBO9Q0Ks+YxA0ZQaxaBH0lfAJNtLWQ+jBwzNL7SGKRp3jaVV32CzQsWq7FLeCQDvaP6qRBc9jbmsDlQyn7CmibeKDUEqaknf8BGHwGvYBejLL2qFH6hKY/BYuUAya7hEcx8+I4EGASq8a/BOJEdG7AKQAbJ4YaRltpxt0g5YzLuymQT7YgLW/aOQcuuNwQLrut6RwMMJpk9LnXBBayHIQnUM0LexUA2WVtek+mYT4lcojGLcUh7whIrZoxFqky3bEV9G/fGlehnFdqvwFIXVINI31+KOJ6htCBirULiqXw+floZerNtk2zXi1IeU1w5ZjQqIgBtcG2grBpUZ/nP4MIGYWX512/1LQ+I/pD1F44xUUdO4beUDKTQQXNPDH4NPTS9tBDqHyaIPdtc0SUdqdtnc0RUmoYFeb3QJcpGE+EFq0lqshy9Vysn3pRhP0F20MXMRVVKEtepAF/gisJyYwRVJGYU0NVOXMOlZJ7YZMeZQkztQaQdZewDW0g26TTW0bkmNFo21ioFEwhXY0uRDSFYSV9ntw9xVFVdHLZ6Pd8HEoClrUqodmM3HFHWlXJTh+M3KNWxraqKc9eOUMxA/ICmwEIkDuM9ZLe0qgijnxQiCulsKQmNkFDBTPIAom6hm2lV3usQqtmnZjEB2kbDTpe55Czcal+XWtEQaZmuZl045x4fV8LkRbwLVRMz1qAOH8b9+xdsAEYu9yNQSJ1/ZXSLwvF+kvbSKtqnoSj07m+a7GtdMkJYzzyoAe9D+JXkdja6CKHtZ4nIKpxDE5DSJKLgf+Gj1p4fVofoIOB/m0VAFra3caodZaOpRsyPjWA7I2lrcykzUVc2QKNiPtAVG8JrALvWhWFa9c7SYc2rOnj4GISjavNdV60ZKUintCOIhPl+kBLQrSRPW1iSENeUIIKxTtGTeu0VGTVS0Eur0tZKPibrQO44NOtvN2MIXYSrtQgjZ2Vp4xDw23LgInYM64MQImpzw1es9cqQHSh7Oo4yAsCor0V/NEgZanRzVcf804NOQAw6ChOFpvQjdknbYklrfNI9BqSCjtFtAnZfx1cjsTKC9E9RQtIGilqqBjlETTMmST29/a/aZdOpnnmuo4RIuc2sEmzJNdEb5NBYh7RW5PQK0D2toep61O2sIj6320Jw0zRJ/WvDTszFvLSviQN+GnIGvtmqgK/4oW6TQZo1UF/dpbE1eeb49f0lYjOPM07dMMRWQK1W5tlWjLlQoVjYQDynKShgLIszYIAIHf3u4CLZs/2RAVbSglaPL+EUZYnU/Ru790wff3JYYG2beG2BoT6sMI2pYRUDwolLmihv28XyM+N/TBHMgfJQggDcrRijY37NY1udRm/EnmrsxehOSmZpLwJ4UNTJ23YMRZqSNUqT6F0DQvkpzGvkARN2n2JZOhLZvU0bpeGg3pilOIi4IF2ZsmXB0Fl4NLV/P8rT2lXbuZznNNBAboPTgdngZalK4COhJ4DYYCXw1OMCnFN5hGzDqfIu3bpcKgwa5SWge91DXEAEY1Na9acGuo4jS1LgCvYkNpIcyb5O0zJARbipMKwLFwJGGCpg9YJYylABay17TONDSuQZ7dz6LG0GokRgjA0WJyJEZfqx1U4/5sqEQLYQYoG+pJA8w738FS8VnrBXC95qhTG/q2JiYDi+g0a0wwcH7eFADZOeHuovaFaXZM7H3QZhiJYNMmX3K2Rqva2SyyIGxFdVSaPvBE3RbtYZoLjDj4bG0aI+FLsv6tbeb+16XNX7+7P/yCAgP53pb9HbX+B3SNz6+A7FS063OoLzTx9trQjex2Ss5jfz2u8AQTQS2CGhOwzqiwR3FPNMNHmbreXxEbIZYm/aZd+86Q8hzYTMveco2U43j7eAYIMAEKLa9y+awP0QSNv0hKC+fNU/WpOhVlNIedmrhJbXlDamvpYmkvjvblIWp4KH87MkKfdZvPDqOFrgW8t5ZJAhJWzJGG04dwgKLRUWx4DdhI86RetXem4RAMDb7oRApXK5noA0lAfRjq+raHmu5q+cEFJIN2ueqzH9xK0oYSlHl7anGRR310J2knfpnyzlgq7e+8KQDpyFh51UBHuzbhea99aipT4WfEO26vgqsHXSw3tN5+GgTYaDwTzKHyL+WVmkabNKS7CAJ6UvtiiKfZc920oVbZm57g6F/AWpiotjx7fz50mlzREI++z/7Ir1n820r7Y6Fl7YHV7gcqCYiNs7k3DtCHjhBx77NxsU0e7/e3hqo912r7/PlV0+bj43P/HBfRR1uzMCkkTQNQ6jysPgmojyAdbf4foVEa/W1NHPr8R9OWa1QtknK9DwIoIViIRPljlDTJOJo5tCyB5HEuKAgbUYshQERa2sMwND/ExVowv+lGIUyzFcPbxaq9CdpSRTK0yIf7ROYCZVn8SvlyRfSTpiEgv+lDPZ0SSUprzprgHfTRTvU7EFUs/HehaO9X5e1z1eeufomu+0/D+/s53R9SBh7u7v4Xs8ZF/rZ8C1UAAAGEaUNDUElDQyBwcm9maWxlAAB4nH2RPUjDQBzFX1NFkRYHC4o4RKhOFoqKOEoVi2ChtBVadTC59AuaNCQpLo6Ca8HBj8Wqg4uzrg6ugiD4AeLm5qToIiX+Lym0iPHguB/v7j3u3gFCo8JUsysKqJplpOIxMZtbFXte4ccggohiVGKmnkgvZuA5vu7h4+tdhGd5n/tzBJW8yQCfSDzHdMMi3iCe2bR0zvvEIVaSFOJz4gmDLkj8yHXZ5TfORYcFnhkyMql54hCxWOxguYNZyVCJp4nDiqpRvpB1WeG8xVmt1FjrnvyFgby2kuY6zRHEsYQEkhAho4YyKrAQoVUjxUSK9mMe/mHHnySXTK4yGDkWUIUKyfGD/8Hvbs3C1KSbFIgB3S+2/TEG9OwCzbptfx/bdvME8D8DV1rbX20As5+k19ta+Ajo3wYurtuavAdc7gBDT7pkSI7kpykUCsD7GX1TDhi4BfrW3N5a+zh9ADLU1fINcHAIjBcpe93j3b2dvf17ptXfD7iFcsOX9lWFAAAABGdBTUEAALGPC/xhBQAAAAlwSFlzAAAuIwAALiMBeKU/dgAAAAd0SU1FB+UDFxAgLcxO7sAAABQpSURBVGje7Vt9lFxlef/d77kf870zmclkN5ssCQGyATwon5KA0ULA2nqKbVHUKkWBY4EqVFGLln6cUz2tFj8gBfEDDtq0oqUGrKgEaDAIJEHIJtndyW5md2d253vu3Lnf9/aP5L3emdA2QIL+0XvOnszOvTP7/t7neX7P8/yeNxR+S67LrnqIPnd95yOeW70NPhXxwc5FIpGXQAkHTYuZFEVxSpJTrUd+XCv99JH3u6/lb1C/DUA/d+cDMsd07jb0patd16J93w/usSwDmmZBM7xNU1RPENM/5fjoz1guumuh3FN1XUc8xlWqdVhajzZm5zt44kfXBV+wactWGoD/xPbr/N8s2NxXqTtuUM4ShfY9eq/+ZtftNxjDMKAoCo7jwPO8I9ahKLAsC56PABQDyzTA8ZLu++xBno8cohixJPDi847LvVhvS1P3f39KL++90dm4ZSv9GwN7wy0PsaMrnPdbRvkLrqOnCBDXdeH7PjzPg+u6fSBpmgbLsn3P8DwP13XhOA4oijq6GTxohjF4TuoYlnRfsSR//sFvfMD8jYD9+F88IAyl9C/Bb35E73UpiqLg+z5s28agdck93/fBsixomoZt2wAAmqYhCAJc1w0+R0LA9310u13Ytgcldvo1Tz/PPsi+0UD/8a6HV9pG5but5ty5jmNTvu+DpunAgoMLDt/zPC8ASu67rguKosAwTACYoihomoZutwvP85BK6+tMR6HeMLAXX3YPe/klsTfp3dnvNZsLo67jgKZpAAjcMgyUvCa/hy1K7lEUBdu2wXEcPM+D4zgAAMMw0Gq14DgO1qxZg2R6ub33qfd59MkAdsmV/3xMeFyxOfp+xy79rFGfG7UtK1ic4ziwbTv4l8Sq4zh9sWvbNmiaBk3TQWwS0J7nBe9ZloV2uw3TNFEoFJDJZMAwkRIAnHTL3vaZh5lktH1btz15h6o2Bc/zAquE3ZQAGbQoIS3CyoSoyHeQTSHPqaoKXdeRzWZRKBRAUTRUDZMnDaznHVno9Td/Ly4LC5/vqpWPddUOHWZWYpFff8Y7JkaJW4atSJ51XRc0TYNhGDiOA9d10el0oGkaFEVBoVAAwzCwbN93HH3PSSsqNm3Zyp55urxiKFH/itYtbzFNgyJWCQMMMy15Td4f/J1sRPhZYmXXddFut6FpGliWxejoKFiWhe/74PiopWqJQrUp1k+4ZfnTv06ddQb3tnSi+vVed3GVaRp98UcAk4V7ntcXc+GLACL3w2zr+35ATKqqQtM0eJ6HfD6PXq+HiYkJHDp0CLFYnB/fcO7edDr/4xMK9n3XfofOpbvvjcqL/9Drtocsy4Jt231MG349mG583wfDMH2phmzC4EaQ57rdLlRVheM4yOfzoGkaxWIRpVIJvu9DFCPQe7XlYmH5lScM7Luv/qackOZvs43q7R0HLMuyiEQiYBgGpmn2VUIk1YTdMhy34Z/wFSYwANA0DZ1OB5ZlYWhoCKIoYnFxEbOzszAMA8lkEtFoFCMjI1i2LLt4wsBmU813LVV+9Zlly1K0YXiYn59Hp9PB2rVrkUqlIEkSPM+DruvQdT1g1nDFFI5TsgmDFj3SHLAwDAOdTge6riMWiyEajaLRaODQoUNoNpuIxWJQFAX5fB6rV6+G7TKdEwL2LZfey3dav/pos7lET0/vx9DQEEzTBMdxAIBWq4UdO3YglUohlUpBURQIggBFUeA4DnRdD9iXWJSkIuLKYUIyDAPtdhuGYYDnecTj8QDo/Pw8eJ6HKIpIp9MYHx8Hy7JoddypEwL27DO8TKlYOsv3fSwtLYHjOOi6DlmW8eSTT2L16tUwTRNzc3NQFAW+72NiYgKtVgurV69GPB5HPB5HJBKBruvwPA+macJ1XbAs2wfWNE2oqoperwcASKfTUFUVMzMzmJubg+/7iEajiMViWL9+PdLp9NHU5BknBKzRLW62LU2hKArRaBSiKKLZbCISiaBarSKRSEDTNGQyGUxMTCCRSEDX9SCef/nLX2Lt2rWYnJzEihUrIElSAF6SJPi+D8uyYFlWANRxHKTTaXS7XczNzaFcLsNxHCSTSciyjLGxMYyNjQWekUhILzKvF+i1N9xPtxv772Bo87Tly5dDkiQsLS0hEokE8SWKIgzDgCAImJychKIoUFUVgiBgfn4esiyjXq+j1+theHgYkiTBtm08++yz6HQ6aDQagVs3Gg3Yto1EIgGGYVAqlVCpVKBpGqLRaEBIZ5xxBiRJAkVRiIjRMscN3fqaLLvx8q0UAOx49Dq/3Vos+L6xSRRFFItFNJtNdDodjI2NYd26dSgWi5idnYWiKNA0DfF4HIIgoNlsgud50DQNx3EwMzODXC6Hl19+GY7jQJIkaJoGWZYRi8UgCALK5TJs24YoihAEATMzM1hcXISqqpAkCYqiIJvNYtWqVeB5/uj3KC7LpW5579WbS68J7I5Hj8ge4xfew+Qy9ds9J5FoNBpQVRXRaBTpdBo8z2NhYQGdTge9Xg+5XA6lUgnJZBI0TYPjOMiyDIZhMD09DVEUA68gliwUCpiZmUG320U0GoVpmsjlcvA8D6VSKUgxHMcFf3dsbAyKogSNP80o/1KtOdteV228cctWesulmdPy2egfLSzQmJubw/r16wPXmZqaAs/ziEQiGB4ehqIo4DgOqVQKvV4PkiQF/aYgCBAEAZFIBDzPY2RkBJZlQVEUtFotlMtl1Go1ZLNZUBSFWq2GhYUFdLtd0DSNRCKBeDyO0dFRZLNZuK4LjuNAM+JkW2Vv3fbIYf91gc2mBPbsM3O3DKUjicnJCdx8880AgFqthkajgUqlgjVr1sCyLKRSKXQ6HQwNDSGVSqHZbGJoaChourvdLiKRCGKxGMbHx1EsFnH48GHIsoxOp4NCoQBSpBiGgUqlAlVV4XkekskkEokEhoeHkc/noaoqRFE8yhnCP333B/NligIFwH/NYC86L3ZOuVx8b3nhSJl27rnnQhAElEolPPbYY7jpppswNzeHDRs2oNPpYPfu3VixYgWq1SqWL1+OSCQCy7IwOjqKVquFdDqNRqMBXdfRarUQiUSQSqUwOjqKXq+HQ4cOged5tFotqKoakFQ0GkU+n0c+n0e324VpmhBFEd2uoak9dteTj14X1KSviY0//qmHFAbzD9aq8yv37dsHz/OwsLCASqWCxcVFcByHQqGApaUlXHzxxZiZmUEymcSKFSvgeR5OPfVUMAyDeDwOXddB0zRyuRympqZgGAYYhsHw8DDK5XIAnmEY0DQdMK8sy4jH48jlcli5ciV0XUez2YSiKDBNE1PF+hcrNeWBfS8+htcM9t1X38fm0vU7e93ye0gFYxgG5ufnMTU1hd27d6PRaKDVaqFYLCKZTCKTyWBsbAzFYhFXXXUVKIoCz/MYHx+HpmnI5XJBRUXybCwWQ7lcRqfTAUVRyGazqNfrWFxcDKqmZDKJ0dFRAAjc1/d9zMyWS7WG+OHtP7xT62seXg3Q333PVmbdau1WeLVPG4ZOO44Dy7JgmiYcx4FhGPA8D5ZlYW5uDpqmwTRNrFy5Env37sXMzAx830exWMT5558fNOcbNmzA/v37sXnzZpx++ulBsRGJRDAyMoJVq1YhEolg3759MAwD8Xgc0WgUo6OjiEajQdVFURTq9ZZdbykffOrn975wTE19vED/8APf4U4Zqf2lZS5+0jJ1hnQxpNUiYhgRwYjyt2fPHuzcuTNg3Hq9jlarFWzSeeedh1wuh3q9jocffhg33ngj1q1bB9d1cc0110DXdfA8j4ceegjtdhuKoiAajSKbzSKZTAaSjSAI0HUDlSXn26yy/pFXwnBclr3l1vukbKr6ZcdautnQe0y43wwX6AzDBLUsad/Cei8p+imKQq/XQ7lchizLWLZsGTZu3IiFhQXk83mwLIv9+/ejXC7jnHPOAcuyuPvuu2HbNvL5PBKJBBRFCRoJ0uAXi/NdcKf9mSAWaocO/od73LOejVu2sju2X+f8+W33Lxe48lZTr1/hOHagLIQbbtKdhPvQsEwaFrFJsidimW3b6Ha7iMfjcF0Xb33rW3HZZZehXq/j4MGDME0TlUoF27ZtQyKRAM/z8H0fqVQK6XQ6UD1KpRIabeWO53Z9/69e1WBr05atlOOCPmfcWxuT2z9U1cU1lmkeI5QNKoXhdoz0pWReExa1iUBGhLOwVEMsn8/nYVkWOI7DzMwMDh8+HBQLxBtIAVGv1zE339spKOvfIcjr9Ce2f9R7JVzs/7QFb95gnSXyjX/rqq2Vjm33iWVhy4ZBhFWHsLxJtF4CSBCEPk14sIEnVZIkSTBNE4ZhwDTNQF8WRTH4rGEYqCyqi5y45kPP7PiS9r+F4yuCveBN1u94TvUblqnlyULCbhp2WwIuLK0MqoNhiw+KaRzH9TUELHtkSTzPg2VZtNvtoKUj/S1Zg2VZmJ2d82l2+PpfPL31wP/FPX1gb739AToqdW42epU7TUOVCKCwMPZKwtnge2HrD1o6LLeEfwgAjuMCcjMMA5qm9Yl2hPxs28bc3DxMW/mBkli1fdOWe9gntn/EOS6wH77hWzGOXvpET6t/xjJ1ikgkYUCDmlB4bEEWwfN8sPiw9BkGH5ZHBz0l7PakLAyPLklfq2ka2ioOyNHlH9rxk78xjyersJu2bGUuOEdRBLb6bUOvvdO2TCqsBYVzKbnq9ToqlQqq1WogY/q+D57nkUwmUSgUkM1mwTBM30YNAg/rweEBFkVR6HQ6UFU1+PvEIxjmSLZstXuqFD3jYzufvK91vLUC++azFEkRW/+qdZc2E0F7MH+SRei6jgMHDmBqagqapvXtOFns4uIipqensXr1aoyPj0OW5WOmAOGZTVgxJMAsy0Kz2QxilOO4oMSkaRqttuZGpDWf/sXT3/rJq6kA6aGkdq1lVTcPitmDRGJZFl544QXs3bsX7XY7cK/B+PV9H6Zp4uDBgyiVSn3pJzxPDWvBxLU5jgtSiWmafdZPp9NH9SiA5VZ8QYqf/dVXW9fT8M3POkeBhucug2PBdruN6enpPrIYJKiw9TzPQ6VS6QMaHjmG3w9/ptlsot1uBynJ87y+yoxhY/MReeUXd/7ss96rBuu6ZpIsgFghvKCwBUjhPpgTX4m8ACAej/cRVZgDwt8RJqRGoxE6T+HCdX1Ylu/7vg/Pp21BHL71uWfurocVk+MGq6qawzAMYrFYMK7gOC6IIZIGBEFAPp/vI5tB4gnPYTZs2IB169b1pZyw9YmVWZYNFP5qtRp0TkfOWLA1w85ebbqFjYYZeZZhhx4Ek/lenx62/brjtjBzyinjHygvzKQoigpUO0EQgsUTEuE4LqhFCTkNujpN0xgeHsb555+PM888MygABglq8JiPZVmoVqtot9vBc65HW4Zd+OBzux7atlTZd3jFqsufoWj58d277m2+VnWFtW375WKxOHbo0CGIoohsNotMJoNsNgtZlmEYBizLguu6yGQyOO+887B27dpAQnFdN/CGRCKBTCYDnudhWVaQksjhjnB8kk6IxGmr1QriE6BgWvG/e37Xd74fhMTQW/Y9sf1a//Vo3KwoRWtk9NdsNlGtViGKYiB55HI5xGKxoIigaRqSJKFQKPQd0QmXlIMxGi4hSStIQKuqGvS3hC8Mk9vrMWNfCi/09QIFANZ1MUPIp1qtBhpsq9UKZjOpVAqZTAaZTAbRaBQ8zweDK8KYxCokN5J8PUhiBDzLstB1HbVaDb1eL3jOdnxbN+PXx5ed2tl4+dfZHY9e75yoSSPrelyN446QBCn/HMeBoigAgF6vh0ajgVKpBEmSkEwmkc/nkclkoChKIKEQVyfTOFI6hmObeADLsjBNM4jT8Ok0w4p9bc/z257ZePmmoR2P3lg7kcNy1nHoAywnIxZzUCgUMDc3B8dx0Ov1AgGLgOl2u0d6x7k5SJKEdDqNbDaLVCqFWCwWSDLW0aM/4TQTzrOkISdnlYLCxY4UKeG0v79kyxWM51P1E30EgrW8Zb8SIqkXPdfYcNFFF2FychITExMBkw6eZiFnkgjw2dlZyLKMZDKJVCqFfD4fACfgifV7vR5UVUWlUoFhGL8eUdA0AMbx6JGPy9FTaoAnURR0AM6JBEsBwDuu+MSo2jrwwJnjKy7MZjNoNBqYnZ3Fnj17jqmYjknURwmH9KWiKCIajQYDKYZhYNs2Op1OMEAmeZs0GAzDwnYT98qpt99M06z98+0fs07GKR4WAP7zR1+c2fL7d73Tdpd+z4f0J2p34S3T09NCuON5pXxJLE0Gw2SYXKvV+iqjMCOzLAtBEILUQ9M0QClTFDdyOyhB9OHoJ+sA2jEa1JZ338X4bnVtfWn/H2vdyh/o2tJphtHpq5vDEowsy1hcXIRt24FlybgwzMAEOMdxEEUxeI6iGMujR656dud3//1kn7Y7RkqdnHjUnzqwo7bm7E/ukEXpfpYTHue4GE/BGfU8m/c8lwozqyiKGB4eRq1WC1JQON4Hj+YRNSISiYAXBDhu8su8cu7XSsXH/ZMN9rhPuF146e0j7ca+zaZee5djdzebxpLkeR44jsPZZ5+NZrOJl156CYZhQJbloKYONwkkHUmShGg0CoZNTNg49cLndt7VxBtwverjfBsvv4vpNJ7PWqZ6kanXrjKNxtsV2UusOWUMlmWhWCxCVdW+XpfEZhisLKdbbOSUdz7z1P1Pv1HHgF/9yJLivd27vlkGsA3AtnMuuCmndaavPDDZeRf8ziW6rsuDbjvYEnJ8YpIWzvhTXhn/L+D+N+xg9wk7qHnBpk8xlllLW2b7Sl0rv88y1XWe20v5viVQlAeGEW1eUKqyknuYl1b99a6nvlLBG3ydtP8jcMHbPpfQ2pPDNOWO0JTL0wxzWJRXTz75+N928P/Xyb/+Gw+g04deoQv9AAAAAElFTkSuQmCC;spacing=0;" parent="1" vertex="1">
          <mxGeometry x="450" y="1613" width="59" height="58" as="geometry" />
        </mxCell>
        <mxCell id="5ZAUk3ZZXwPiC2q51OY_-259" value="" style="group;spacing=0;" parent="1" vertex="1" connectable="0">
          <mxGeometry x="195" y="1355" width="50" height="158" as="geometry" />
        </mxCell>
        <object label="Tank A" Tank1="" id="5ZAUk3ZZXwPiC2q51OY_-260">
          <mxCell style="shape=mxgraph.pid.vessels.tank;html=1;pointerEvents=1;align=center;verticalLabelPosition=bottom;verticalAlign=top;dashed=0;spacing=0;" parent="5ZAUk3ZZXwPiC2q51OY_-259" vertex="1">
            <mxGeometry width="50" height="158" as="geometry" />
          </mxCell>
        </object>
        <mxCell id="5ZAUk3ZZXwPiC2q51OY_-261" value="" style="group;spacing=0;" parent="5ZAUk3ZZXwPiC2q51OY_-259" vertex="1" connectable="0">
          <mxGeometry y="18" width="50" height="90" as="geometry" />
        </mxCell>
        <mxCell id="5ZAUk3ZZXwPiC2q51OY_-262" value="RS 232" style="pointerEvents=1;verticalLabelPosition=bottom;shadow=0;dashed=0;align=center;html=1;verticalAlign=top;shape=mxgraph.electrical.miscellaneous.small_d_connector;spacing=0;" parent="5ZAUk3ZZXwPiC2q51OY_-261" vertex="1">
          <mxGeometry y="70" width="50" height="20" as="geometry" />
        </mxCell>
        <mxCell id="5ZAUk3ZZXwPiC2q51OY_-263" value="&lt;div&gt;Tank&lt;/div&gt;&lt;div&gt;Monitor&lt;/div&gt;&lt;div&gt;Unit&lt;/div&gt;&lt;div&gt;Interface&lt;/div&gt;" style="text;html=1;strokeColor=none;fillColor=none;align=center;verticalAlign=middle;whiteSpace=wrap;rounded=0;spacing=0;" parent="5ZAUk3ZZXwPiC2q51OY_-261" vertex="1">
          <mxGeometry width="50" height="70" as="geometry" />
        </mxCell>
        <mxCell id="5ZAUk3ZZXwPiC2q51OY_-264" value="" style="shape=mxgraph.signs.transportation.truck_3;html=1;pointerEvents=1;fillColor=#000000;strokeColor=none;verticalLabelPosition=bottom;verticalAlign=top;align=center;" parent="1" vertex="1">
          <mxGeometry x="334.75" y="1636" width="98" height="44" as="geometry" />
        </mxCell>
        <mxCell id="5ZAUk3ZZXwPiC2q51OY_-289" value="" style="endArrow=classic;html=1;strokeWidth=2;exitX=1;exitY=0.75;exitDx=0;exitDy=0;spacing=0;entryX=0;entryY=0.5;entryDx=0;entryDy=0;" parent="1" source="5ZAUk3ZZXwPiC2q51OY_-263" target="5ZAUk3ZZXwPiC2q51OY_-224" edge="1">
          <mxGeometry x="88" y="1258" as="geometry">
            <mxPoint x="138" y="1399" as="sourcePoint" />
            <mxPoint x="260" y="1433" as="targetPoint" />
            <Array as="points" />
          </mxGeometry>
        </mxCell>
        <mxCell id="5ZAUk3ZZXwPiC2q51OY_-290" value="Serial Comm" style="edgeLabel;resizable=0;html=1;align=center;verticalAlign=middle;spacing=0;" parent="5ZAUk3ZZXwPiC2q51OY_-289" connectable="0" vertex="1">
          <mxGeometry relative="1" as="geometry">
            <mxPoint x="-38" y="-17.9" as="offset" />
          </mxGeometry>
        </mxCell>
        <mxCell id="5ZAUk3ZZXwPiC2q51OY_-293" value="" style="endArrow=classic;startArrow=classic;html=1;strokeWidth=2;spacing=0;strokeColor=#FF0000;" parent="1" source="5ZAUk3ZZXwPiC2q51OY_-224" target="5ZAUk3ZZXwPiC2q51OY_-245" edge="1">
          <mxGeometry x="87" y="2230" width="50" height="50" as="geometry">
            <mxPoint x="398" y="1466" as="sourcePoint" />
            <mxPoint x="398" y="1839" as="targetPoint" />
            <Array as="points">
              <mxPoint x="624" y="1425" />
            </Array>
          </mxGeometry>
        </mxCell>
        <mxCell id="5ZAUk3ZZXwPiC2q51OY_-294" value="" style="html=1;outlineConnect=0;fillColor=#e1d5e7;gradientDirection=north;strokeWidth=2;shape=mxgraph.networks.comm_link_edge;html=1;startArrow=classic;startFill=1;endArrow=classic;endFill=1;entryX=0.5;entryY=0;entryDx=0;entryDy=0;exitX=1;exitY=0;exitDx=0;exitDy=0;strokeColor=#9673a6;spacing=0;" parent="1" source="5ZAUk3ZZXwPiC2q51OY_-223" target="5ZAUk3ZZXwPiC2q51OY_-258" edge="1">
          <mxGeometry x="18" y="1381.2" width="100" height="100" as="geometry">
            <mxPoint x="222.75" y="1603.7" as="sourcePoint" />
            <mxPoint x="413.5" y="1899.42" as="targetPoint" />
            <Array as="points">
              <mxPoint x="367" y="1820.42" />
            </Array>
          </mxGeometry>
        </mxCell>
        <mxCell id="5ZAUk3ZZXwPiC2q51OY_-295" value="&lt;div style=&quot;font-size: 8px&quot;&gt;&lt;font style=&quot;font-size: 8px&quot;&gt;Aim&lt;/font&gt;&lt;/div&gt;" style="image;html=1;image=img/lib/clip_art/telecommunication/Signal_tower_on_128x128.png;rotation=0;spacing=0;" parent="1" vertex="1">
          <mxGeometry x="338" y="1616" width="20" height="25" as="geometry" />
        </mxCell>
        <mxCell id="5ZAUk3ZZXwPiC2q51OY_-232" value="Internet" style="html=1;verticalLabelPosition=bottom;align=center;labelBackgroundColor=#ffffff;verticalAlign=top;strokeWidth=2;strokeColor=#0080F0;shadow=0;dashed=0;shape=mxgraph.ios7.icons.globe;spacing=0;rotation=0;" parent="1" vertex="1">
          <mxGeometry x="320" y="1990" width="78" height="71" as="geometry" />
        </mxCell>
        <mxCell id="5ZAUk3ZZXwPiC2q51OY_-233" value="" style="fontColor=#0066CC;verticalAlign=top;verticalLabelPosition=bottom;labelPosition=center;align=center;html=1;outlineConnect=0;fillColor=#CCCCCC;strokeColor=#6881B3;gradientColor=none;gradientDirection=north;strokeWidth=2;shape=mxgraph.networks.router;spacing=0;rotation=-180;" parent="1" vertex="1">
          <mxGeometry x="538" y="2009" width="100" height="30" as="geometry" />
        </mxCell>
        <mxCell id="5ZAUk3ZZXwPiC2q51OY_-234" value="COK Firewall" style="image;html=1;image=img/lib/clip_art/networking/Firewall_02_128x128.png;spacing=0;rotation=0;" parent="1" vertex="1">
          <mxGeometry x="464" y="2000" width="56" height="48" as="geometry" />
        </mxCell>
        <mxCell id="5ZAUk3ZZXwPiC2q51OY_-235" value="" style="shape=link;html=1;startArrow=classic;startFill=1;endArrow=classic;endFill=1;strokeColor=#000000;strokeWidth=2;exitX=1;exitY=0.5;exitDx=0;exitDy=0;exitPerimeter=0;entryX=0;entryY=0.5;entryDx=0;entryDy=0;spacing=0;" parent="1" edge="1">
          <mxGeometry x="828" y="1814" width="100" as="geometry">
            <mxPoint x="530" y="2024" as="sourcePoint" />
            <mxPoint x="521" y="2024" as="targetPoint" />
          </mxGeometry>
        </mxCell>
        <mxCell id="5ZAUk3ZZXwPiC2q51OY_-236" value="" style="endArrow=classic;startArrow=classic;html=1;strokeWidth=2;spacing=0;strokeColor=#FF8000;exitX=0;exitY=0.5;exitDx=0;exitDy=0;entryX=0.987;entryY=0.512;entryDx=0;entryDy=0;entryPerimeter=0;" parent="1" source="5ZAUk3ZZXwPiC2q51OY_-234" target="5ZAUk3ZZXwPiC2q51OY_-232" edge="1">
          <mxGeometry x="885" y="1764" width="50" height="50" as="geometry">
            <mxPoint x="450" y="1990" as="sourcePoint" />
            <mxPoint x="435" y="1960" as="targetPoint" />
          </mxGeometry>
        </mxCell>
        <mxCell id="5ZAUk3ZZXwPiC2q51OY_-237" value="FMLive" style="aspect=fixed;html=1;points=[];align=center;image;fontSize=12;image=img/lib/mscae/Cloud_Services_Classic.svg;spacing=0;rotation=0;" parent="1" vertex="1">
          <mxGeometry x="204.00000000000003" y="2003" width="50" height="42" as="geometry" />
        </mxCell>
        <mxCell id="5ZAUk3ZZXwPiC2q51OY_-238" value="" style="endArrow=classic;startArrow=classic;html=1;strokeWidth=2;spacing=0;strokeColor=#FF8000;entryX=0.993;entryY=0.587;entryDx=0;entryDy=0;entryPerimeter=0;exitX=0.013;exitY=0.54;exitDx=0;exitDy=0;exitPerimeter=0;" parent="1" source="5ZAUk3ZZXwPiC2q51OY_-232" target="5ZAUk3ZZXwPiC2q51OY_-237" edge="1">
          <mxGeometry x="854.49" y="1789" width="50" height="50" as="geometry">
            <mxPoint x="289.49" y="2000" as="sourcePoint" />
            <mxPoint x="264.49" y="2010" as="targetPoint" />
          </mxGeometry>
        </mxCell>
        <mxCell id="nVHnb64FfqDuX2oSl2bI-1" value="&lt;h1&gt;Definitions&lt;br&gt;&lt;/h1&gt;&lt;p style=&quot;font-size: 14px&quot;&gt;&lt;font style=&quot;font-size: 14px&quot;&gt;Island - Concrete platform on which fuel pumps are installed.&lt;/font&gt;&lt;/p&gt;&lt;p style=&quot;font-size: 14px&quot;&gt;&lt;font style=&quot;font-size: 14px&quot;&gt;&lt;font style=&quot;font-size: 14px&quot;&gt;&lt;font style=&quot;font-size: 14px&quot;&gt;Tank&amp;nbsp; - Container for holding fuel&lt;/font&gt;&lt;/font&gt;&lt;/font&gt;&lt;/p&gt;&lt;font style=&quot;font-size: 14px&quot;&gt;Pump - Dispenser for delivering various fuel types&lt;/font&gt;&lt;p style=&quot;font-size: 14px&quot;&gt;&lt;font style=&quot;font-size: 14px&quot;&gt;Hose - Rubber&amp;nbsp; or other material line for delivering fuel to a vehicle&lt;/font&gt;&lt;/p&gt;&lt;p style=&quot;font-size: 14px&quot;&gt;&lt;font style=&quot;font-size: 14px&quot;&gt;FMU - Fuel Management Unit. A regulator for dispersal of Fuel to a vehicle&lt;/font&gt;&lt;/p&gt;&lt;p style=&quot;font-size: 14px&quot;&gt;&lt;font style=&quot;font-size: 14px&quot;&gt;Pump Relay - device attached to a fuel pump that reports fuel dispersal to the FMU&lt;/font&gt;&lt;/p&gt;&lt;p style=&quot;font-size: 14px&quot;&gt;&lt;font style=&quot;font-size: 14px&quot;&gt;Tank Monitoring Unit Interface - a serial based device that reports fuel levels in the tank to the FMU&lt;/font&gt;&lt;/p&gt;&lt;p style=&quot;font-size: 14px&quot;&gt;&lt;font style=&quot;font-size: 14px&quot;&gt;AIM - &lt;span class=&quot;aCOpRe&quot;&gt;&lt;span&gt;Automotive Information Module. Device for reporting vehicle information to the FMU.&lt;/span&gt;&lt;/span&gt;&lt;/font&gt;&lt;/p&gt;&lt;p style=&quot;font-size: 14px&quot;&gt;&lt;font style=&quot;font-size: 14px&quot;&gt;Prokey FOB - RFID device for unlocking a fuel pump&lt;/font&gt;&lt;/p&gt;&lt;p style=&quot;font-size: 14px&quot;&gt;&lt;font style=&quot;font-size: 14px&quot;&gt;Prokey Encoder - USB device for activating Prokey FOB&lt;/font&gt;&lt;br&gt;&lt;/p&gt;&lt;p&gt;&lt;br&gt;&lt;span class=&quot;aCOpRe&quot;&gt;&lt;span&gt;&lt;em&gt;&lt;/em&gt;&lt;/span&gt;&lt;/span&gt;&lt;/p&gt;&lt;p&gt;&lt;br&gt;&lt;/p&gt;" style="text;html=1;strokeColor=none;fillColor=none;spacing=5;spacingTop=-20;whiteSpace=wrap;overflow=hidden;rounded=0;" parent="1" vertex="1">
          <mxGeometry x="98" y="-430" width="652" height="390" as="geometry" />
        </mxCell>
        <mxCell id="5ZAUk3ZZXwPiC2q51OY_-325" value="" style="group" parent="1" vertex="1" connectable="0">
          <mxGeometry x="25" y="-680" width="800" height="219" as="geometry" />
        </mxCell>
        <mxCell id="dydCn-dSJggDgZLo5YWw-62" value="" style="rounded=0;whiteSpace=wrap;html=1;" parent="5ZAUk3ZZXwPiC2q51OY_-325" vertex="1">
          <mxGeometry width="800" height="219" as="geometry" />
        </mxCell>
        <mxCell id="5ZAUk3ZZXwPiC2q51OY_-313" value="Fuel Management Unit" style="text;html=1;strokeColor=none;fillColor=none;align=center;verticalAlign=middle;whiteSpace=wrap;rounded=0;fontSize=12;fontColor=#000000;" parent="5ZAUk3ZZXwPiC2q51OY_-325" vertex="1">
          <mxGeometry x="589.3167701863355" y="102.5" width="121.24223602484473" height="30" as="geometry" />
        </mxCell>
        <mxCell id="5ZAUk3ZZXwPiC2q51OY_-321" value="" style="group" parent="5ZAUk3ZZXwPiC2q51OY_-325" vertex="1" connectable="0">
          <mxGeometry x="23.850931677018632" y="23" width="725.1677018633541" height="79.5" as="geometry" />
        </mxCell>
        <mxCell id="dydCn-dSJggDgZLo5YWw-1" value="" style="html=1;outlineConnect=0;fillColor=#e1d5e7;gradientDirection=north;strokeWidth=2;shape=mxgraph.networks.comm_link_edge;html=1;startArrow=classic;startFill=1;endArrow=classic;endFill=1;entryX=0.75;entryY=0;entryDx=0;entryDy=0;strokeColor=#9673a6;spacing=0;" parent="5ZAUk3ZZXwPiC2q51OY_-321" edge="1">
          <mxGeometry x="-31.801242236024844" y="-6" width="99.37888198757763" height="100" as="geometry">
            <mxPoint x="77.51552795031056" y="38.80000000000018" as="sourcePoint" />
            <mxPoint x="2.981366459627329" y="35" as="targetPoint" />
            <Array as="points">
              <mxPoint x="356.2732919254658" y="79.5" />
            </Array>
          </mxGeometry>
        </mxCell>
        <mxCell id="dydCn-dSJggDgZLo5YWw-2" value="RFID signal" style="text;html=1;strokeColor=none;fillColor=none;align=center;verticalAlign=middle;whiteSpace=wrap;rounded=0;" parent="5ZAUk3ZZXwPiC2q51OY_-321" vertex="1">
          <mxGeometry x="8.944099378881987" y="53" width="53.66459627329192" height="20" as="geometry" />
        </mxCell>
        <mxCell id="dydCn-dSJggDgZLo5YWw-4" value="" style="html=1;outlineConnect=0;fillColor=#dae8fc;gradientDirection=north;strokeWidth=2;shape=mxgraph.networks.comm_link_edge;html=1;startArrow=classic;startFill=1;endArrow=classic;endFill=1;strokeColor=#6c8ebf;exitX=0.852;exitY=0.284;exitDx=0;exitDy=0;exitPerimeter=0;spacing=0;" parent="5ZAUk3ZZXwPiC2q51OY_-321" edge="1">
          <mxGeometry x="-31.801242236024844" y="-6" width="99.37888198757763" height="100" as="geometry">
            <mxPoint x="89.44099378881987" y="32" as="sourcePoint" />
            <mxPoint x="159.00621118012424" y="39" as="targetPoint" />
          </mxGeometry>
        </mxCell>
        <mxCell id="dydCn-dSJggDgZLo5YWw-5" value=" 2.4 or 5 Ghz Wireless" style="text;html=1;strokeColor=none;fillColor=none;align=center;verticalAlign=middle;whiteSpace=wrap;rounded=0;" parent="5ZAUk3ZZXwPiC2q51OY_-321" vertex="1">
          <mxGeometry x="91.42857142857143" y="52" width="74.53416149068323" height="20" as="geometry" />
        </mxCell>
        <mxCell id="dydCn-dSJggDgZLo5YWw-6" value="" style="endArrow=classic;startArrow=classic;html=1;strokeColor=#FF0000;strokeWidth=2;" parent="5ZAUk3ZZXwPiC2q51OY_-321" edge="1">
          <mxGeometry x="-31.801242236024844" y="-6" width="49.689440993788814" height="50" as="geometry">
            <mxPoint x="187.82608695652172" y="32" as="sourcePoint" />
            <mxPoint x="257.39130434782606" y="32" as="targetPoint" />
          </mxGeometry>
        </mxCell>
        <mxCell id="dydCn-dSJggDgZLo5YWw-9" value="Twisted Pair Ethernet" style="text;html=1;strokeColor=none;fillColor=none;align=center;verticalAlign=middle;whiteSpace=wrap;rounded=0;" parent="5ZAUk3ZZXwPiC2q51OY_-321" vertex="1">
          <mxGeometry x="194.78260869565216" y="54" width="55.65217391304348" height="20" as="geometry" />
        </mxCell>
        <mxCell id="dydCn-dSJggDgZLo5YWw-10" value="Fiber Ethernet" style="text;html=1;strokeColor=none;fillColor=none;align=center;verticalAlign=middle;whiteSpace=wrap;rounded=0;" parent="5ZAUk3ZZXwPiC2q51OY_-321" vertex="1">
          <mxGeometry x="288.19875776397515" y="52" width="55.65217391304348" height="20" as="geometry" />
        </mxCell>
        <mxCell id="dydCn-dSJggDgZLo5YWw-11" value="" style="endArrow=classic;startArrow=classic;html=1;strokeWidth=2;strokeColor=#FF8000;" parent="5ZAUk3ZZXwPiC2q51OY_-321" edge="1">
          <mxGeometry x="-31.801242236024844" y="-6" width="49.689440993788814" height="50" as="geometry">
            <mxPoint x="282.23602484472053" y="32" as="sourcePoint" />
            <mxPoint x="351.80124223602485" y="32" as="targetPoint" />
          </mxGeometry>
        </mxCell>
        <mxCell id="dydCn-dSJggDgZLo5YWw-14" value="" style="fontColor=#0066CC;verticalAlign=top;verticalLabelPosition=bottom;labelPosition=center;align=center;html=1;outlineConnect=0;fillColor=#CCCCCC;strokeColor=#6881B3;gradientColor=none;gradientDirection=north;strokeWidth=2;shape=mxgraph.networks.switch;spacing=0;" parent="5ZAUk3ZZXwPiC2q51OY_-321" vertex="1">
          <mxGeometry x="385.5900621118013" y="24" width="64.59627329192546" height="20" as="geometry" />
        </mxCell>
        <mxCell id="dydCn-dSJggDgZLo5YWw-15" value="&lt;div&gt;Switch&lt;/div&gt;" style="text;html=1;strokeColor=none;fillColor=none;align=center;verticalAlign=middle;whiteSpace=wrap;rounded=0;" parent="5ZAUk3ZZXwPiC2q51OY_-321" vertex="1">
          <mxGeometry x="397.5155279503105" y="59" width="39.75155279503106" height="20" as="geometry" />
        </mxCell>
        <mxCell id="dydCn-dSJggDgZLo5YWw-54" value="&lt;div&gt;2 hose&lt;/div&gt;&lt;div&gt;Fuel Dispenser &lt;/div&gt;" style="shape=mxgraph.signs.transportation.gas_1;html=1;pointerEvents=1;fillColor=#000000;strokeColor=none;verticalLabelPosition=bottom;verticalAlign=top;align=center;spacing=0;" parent="5ZAUk3ZZXwPiC2q51OY_-321" vertex="1">
          <mxGeometry x="495.90062111801245" y="14" width="30.807453416149066" height="38" as="geometry" />
        </mxCell>
        <mxCell id="dydCn-dSJggDgZLo5YWw-61" value="Legend" style="text;html=1;strokeColor=none;fillColor=none;align=center;verticalAlign=middle;whiteSpace=wrap;rounded=0;fontSize=14;" parent="5ZAUk3ZZXwPiC2q51OY_-321" vertex="1">
          <mxGeometry y="-9" width="39.75155279503106" height="20" as="geometry" />
        </mxCell>
        <mxCell id="5ZAUk3ZZXwPiC2q51OY_-306" value="" style="group" parent="5ZAUk3ZZXwPiC2q51OY_-321" vertex="1" connectable="0">
          <mxGeometry x="572.5813664596274" y="3.07000000000005" width="67.91552795031056" height="68.93500000000006" as="geometry" />
        </mxCell>
        <mxCell id="5ZAUk3ZZXwPiC2q51OY_-311" value="" style="group" parent="5ZAUk3ZZXwPiC2q51OY_-306" vertex="1" connectable="0">
          <mxGeometry x="12.919254658385093" width="54.99627329192547" height="68.93500000000003" as="geometry" />
        </mxCell>
        <mxCell id="5ZAUk3ZZXwPiC2q51OY_-31" value="" style="rounded=0;whiteSpace=wrap;html=1;fillColor=#D1D1D1;strokeColor=#007FFF;" parent="5ZAUk3ZZXwPiC2q51OY_-311" vertex="1">
          <mxGeometry width="54.6583850931677" height="20" as="geometry" />
        </mxCell>
        <mxCell id="5ZAUk3ZZXwPiC2q51OY_-308" value="" style="group" parent="5ZAUk3ZZXwPiC2q51OY_-311" vertex="1" connectable="0">
          <mxGeometry x="0.34782608695652134" width="54.648447204968946" height="68.93500000000003" as="geometry" />
        </mxCell>
        <mxCell id="5ZAUk3ZZXwPiC2q51OY_-32" value="" style="rounded=0;whiteSpace=wrap;html=1;rotation=90;fillColor=#CCCCCC;strokeColor=#007FFF;" parent="5ZAUk3ZZXwPiC2q51OY_-308" vertex="1">
          <mxGeometry x="3.637267080745338" y="35.97000000000003" width="49.37142857142857" height="16.25" as="geometry" />
        </mxCell>
        <mxCell id="5ZAUk3ZZXwPiC2q51OY_-33" value="&lt;div style=&quot;font-size: 9px&quot;&gt;&lt;font style=&quot;font-size: 9px&quot;&gt;FMU&lt;/font&gt;&lt;/div&gt;&lt;div style=&quot;font-size: 9px&quot;&gt;&lt;font style=&quot;font-size: 9px&quot;&gt;SN XXXXXX &lt;br&gt;&lt;/font&gt;&lt;/div&gt;" style="text;html=1;strokeColor=none;align=center;verticalAlign=middle;whiteSpace=wrap;rounded=0;fillColor=#A9C4EB;" parent="5ZAUk3ZZXwPiC2q51OY_-308" vertex="1">
          <mxGeometry width="54.648447204968946" height="20" as="geometry" />
        </mxCell>
        <mxCell id="5ZAUk3ZZXwPiC2q51OY_-316" value="&lt;div style=&quot;font-size: 8px&quot;&gt;&lt;font style=&quot;font-size: 8px&quot;&gt;Aim&lt;/font&gt;&lt;/div&gt;" style="image;html=1;image=img/lib/clip_art/telecommunication/Signal_tower_on_128x128.png;rotation=0;spacing=0;" parent="5ZAUk3ZZXwPiC2q51OY_-321" vertex="1">
          <mxGeometry x="700.3540372670808" y="11" width="19.87577639751553" height="25" as="geometry" />
        </mxCell>
        <mxCell id="5ZAUk3ZZXwPiC2q51OY_-317" value="AIM" style="text;html=1;strokeColor=none;fillColor=none;align=center;verticalAlign=middle;whiteSpace=wrap;rounded=0;fontSize=12;fontColor=#000000;" parent="5ZAUk3ZZXwPiC2q51OY_-321" vertex="1">
          <mxGeometry x="690.416149068323" y="59" width="39.75155279503106" height="20" as="geometry" />
        </mxCell>
        <mxCell id="5ZAUk3ZZXwPiC2q51OY_-322" value="Prokey FOB" style="shape=image;imageAspect=0;aspect=fixed;verticalLabelPosition=bottom;verticalAlign=top;image=data:image/png,iVBORw0KGgoAAAANSUhEUgAAADsAAAA6CAYAAAAOeSEWAAAg0npUWHRSYXcgcHJvZmlsZSB0eXBlIGV4aWYAAHjarZtpcpy5ckX/YxVeAsYEsByMEd6Bl+9zURQlqxX9+r2w2C1SxfqmHO6QQLnzP/993X/xp1rOLpfarJt5/uSeexz80PzPP+fr++e14PP7+8ef8PV3cL/+4s6vX0deSXxPn3/W/PV6+nr9x4ns+zsn+sMvQvntgPR9/fjrhev4vnD8P3dUVtj+1z/t5//37nbv+TzdyEYY7PNQn0u4H6fhjTxYTu8w46vyf+Hn+r46X80Pv0L22y8/+VqhhxiSvyGH7cIIN5yw+b7C4h5zPLHyPcYV03utpRp7XMmnkLK+wo019bRTSzGteFJK2aX4fS/hXbe/663QuPIOvDUGThY45G+/3L96wz/5und5YhTCC+Z8seK+YlQegsKY9DdvIyHhfuWtvAD/+Pr+435JbCKD5YW58YDDz88pZgk/ayu9Aki8r/D9U1+hbmUtvirJXLtwMyGRAm8hlWDB1xhrCDnFRoIGdx5TjpMMhFLi5iZjTsnITaOOuDbH1PDeG0v8vE6rkJ+SLFVy09MgWTkX6qfmRg2NkkoupVippZVehrNk2YqZVVPPjZpqrqVarbXVXkdLLbfSrNXWWm+jx55oydKt195672NwzZHdKIOjB+8YY8aZZp5l2qyzzT7HonxWXmXZqqutvsaOO+28y7Zdd9t9jxMOpeROPuXYqaedfsal1m66+ZZrt952+x3fWfvK6l++/o2sha+sxZcpva9+Z41Xa9WJ3imCcKYoZ2Qs5kDGqzJAQUflzLeQc1TmlDPfI11RIjdZlJsd/HDBSGE+IZYbvnP3M3P/OG+OWP+rvMV/kjmn1P0/ZC66k37L2x+ytoWE62Xs04WKqU90Hwhid+4wq9unbwiAi7RTwpx1n7bnufmM2ICX/f5h+9ZRS8gF1Dv6xztB4ikiV6h23Tvd52wBDP+3z0Qe++x5utJWms2i70Rg5r4J9/L9vc142G1lDuLV71qnUymTy48wBlDcd01jGVG75mocOe94VDbGz+ZvAhUuHbujUQt19VFPn37PvcmV1XZj4Qm6rVNaD6uHfhoEadTCLGQ43rozpTRtdTu25rpztHPqWjxeabQPwe3A+C2jznRqWCXPmOyk6+LJnn/m4m9dsO7lrGsMTkSMwO99zy5xLIDdbg6Hhjlglt0S9pjhmBXKf163bl8ljZPr1p2Mnc6xS7z25uZSP/02bjneQ93xg63rV64nFcIw1ojnUJOruJBPvp5cjbhPbvPsPmsdvXCF0hdFn7YN8nhbmneC9RAZ/+JxV608Nkma9VbSP0gJ/UG6SWvfcZblLXXbKytzZ4YeFee0Wlu53Uw6UuIOU1v1bn68Z25XKsVIl3EDfF2Y9VKx5Uxgt5a8bqANYh8xNw6hbz3MXUkRMGDzDC5GAkJ15ChNsp9apK3Hp9jO2sXgyRC31dDTufwUZ07mOTTuDiV3XXCY2pJaWk5vW/ymnE1HmnUfDYJd22i8xG0R/ZFiWXBJpnaOH/3SxtAv7ZaWD+0sG92tHULb9AtV3E+c4wBkQMSJq3FbBwRSYyAnIn3VaN8/f3efH3rmRhos20aJvlEtaT1Io+rWbLfaPvPS/pn/IjV2/Mw01zp3BvpqckchrXtC2S1TrmDLsUZg6NdM1IBdGo6DSCMdVQCbWdSIJwBao/IEYxNYYGTZKZej03lxzqcOo0fTAlYALotCONtTkoeTzrYOt0VoeiqrUopZ6ucURy8R4FZU8j7T2aQpLnVrLrNCfvRXAN4q0achCjebuTvAuoKxu1GC61DOrs/Z6tgV8QWupDlB8LG4/egX0DTa4lVoyUbklJwtVcqU+PBDuCVlO4uCae7WOoGNCZwBHl3wNSbqMPXR4Cs1elnQD0kl0DSIOoq86CKEgwvyDyrLHRtpUZN0+DQJutwA8chZadhdwtrJuB9aGylCP2QgxkIYp1YlgBqmyta6Lq0Fk84agDNLSm8ae1FpAywpQk4xaz8GuRQeL03YNylBG5bSwxUaMqBGIKtBW9L4cc8Z8znQx9jgE8oo2OERgU3qlJSm2XXkpiV7nceq+DOIAZqjONryf1+1fOfJQDXqpJMa8HeP4QGNpAymBCG4ZkTokppIH4MTlM+Et8cZBkVFyojrGzGa4UK0A5wH3mmaeXnaSxKoEyyMywIoH+c6ixiPffi+Y/Ln5JlAoVK4eMHa8Ms2F8wNMFV0NhVQK0KcMNBKhayRKXqHWyl750njUmcioizVn/KgbmcGEANlSFk0EJfK5fD30GiEropxAPPQUUEpjwKyDDhz5tRGVsFEBAWJjwgKUrpmbBfYiGYJTkokmGNXvKgRj9whAfG+x9iNngPXGldcF07kDsM2JNWhOSB7kWOHOrizKjhGH9CZcD+oecpMQH7jTNQMcEmw4WqeAr0L3zVSX2mP2StQSe9v0ADhfOmgmi8iZm+HGDqktvsJlgZYq3HiIVxZnZN6iUokDIThIR9k06d4/HmF8bN23B+LBpHEDaPgFliwR98lbemkCxt5/iNng+t3WAUVlS5sxoloPYQZeAbpUFs8GE9KQ/Icu1cbKHzB3T3QHxLh7LNUPXDL8MTbIhZheifgaIu8rZ2BG4KcZ1DeBeBrjivVVlZDJ8BA0iVWNmlF7VR1HOQJ8lRkDexCrGYut/YIlm65SVSvwIRbIcxUngALnEAQU05joucSaIgaqQIeCqW50jNprUXFluFoD28RgrNH5vqdWiR/iCEenVf0Lth+JGUxdvQpeOHv2mhI6wjhlUZ50a5AfUkp7EsI0DWIO8RLEKohkDqEMid5HNwHZ1+Q/0QmUHnOg7iDuqCX54/HMGTRjbQbtBZU4potjHJnLEN5nPD5BfoNEXNLRxqm4XDCmUsEuGkBRYaW5znnQT6Hjjk7OfOPBK3h5mBbuJTf02O7PvBVGMrtx+2N1JOZluRBmPUjJgroayRSu9sXC/CHlSiERHn1tVoaj/ltTBKLlKMkXIxgNAZiJigGzco5N2gTCkoW1y66Vjx//U6k6fOr9oP9gWMeHl4DJioSClZOk1anEEleBrQo3uQRALPTTDdM08U8sUdrBJpuoWmpRiQ+HE3WQH50GNGhJgNtjWCi3yhRKsfTxUBkiUDg3qjnjTqmWCIazATsEz0WgVwIMms2QFgvnYEYJIh0fm0oSFtNwEFWJyKVVxAG9ATYFyLENZv4ctIyBB9zDCQfkorkWIqJR8aVtTKMCXEB3Nap98VViSvimPLgmoI8Mks1wSYFr1QTCDmTOnyAvvyna0Dmsjk5G0WMLgkQD4qBaEL3FS6HR5Hp6rNVxquLshyEwvFtN1GXaeR0hKueDKM3hBJgFVKBYxHar4LGpVISEW506SLykI1hRcU+JchaUahIGok+o2GjHSJMi6uEZ/Eb9U2beOQTQnB4HgPWICV7jwaMDEkvuOLQbEhSeq+QDmCtSyiDwk++FetRDwZUAxK0m8c+UaIIUJwoAtwh6EDbC91ByvSyIXavCbKnYTzVWhmU2ROykcuBAxCq6CXcMrre+kUWIDJchCkmlZ+ArHIXN4mQ7XqahLozKkd8h0RCX3NTtDwShci0MSnrSEe1ewitCx5KOW/GUwEyasaM8gNjl7q/Q00IUqguI7x5jVtGr67kDZnR4V6gUOznajOZfdoOgKk1L5HFxq3B46pKSBY8kcdNcpV4lUIjccGIaKAOuPaRkHJrLUKomoO10TUK+LLHuvQN+hinthsCd0Jx8iYARDBstlySJUxd38otagQn1EAnyWZP7dB4ALEYTBp4U+w8Lk+GrEIZxgq3iPkBEdD3vsc0TUaRCyEiTQhG4ARzSfpwDbSpRmSUsKroOZgwkPKJjkb/FrQjyQdBIsgMrLpdFi3Cz4TsceeIyIK/cCb4XSoIB06XGJ8gaPQzjiRwpysOR6kpN5pCgjJ+Y+OhScQkRpksAOJNDhSujdL56EOAcUFrHIFpO42SNeoTl43rToRA1F/JcQU70PsDBptcCUFN2bSMvOQikYDzsKnxNAGNVibOrGHTvQPzwW/cIBkjGSAV8hYYTWjhPh4tFI1mrHVZcY0FAIwK3HJay0BCf/Nf5+nZw3s/uS4QE0FL8t5RfgI8LblizyqKr1PC+MS6BtE9UQNLOANX3CswIusCN3DTYrFcIrQCA3pVAMT98SHyyV1iA2aizEDdgCCkTuXAJqrDsOtIbHUTrIpgApcbLYIcihpAgYfo6k6Tcxrw6nJFGBC1Hq6ADTNanyPM2Cy8egWL0L0g2J14GhAFO+4597j4e/rBVHj4Uj8u8ssv7meprWm3gFpoOUHZTQrpsSbeicLEa6Fnw5scgFKKbyUL3LcGCnIfeByAA6yTbKAFKVMsRBxlto2KWp1HWIMOPJuzIioDTRhmpzIUYCy2DDFmigPoD1JPc4ZLHQJEzusiPC2ng7Ct5NS4GAV0C9IWvYIdi4S8UAeoDjTPEzKoSntIg4a/om8H8pbJPQrmIzd0psg84SiQIHhsGhx9Bl1Q4hAw2kGHbfHoAnHjJgUFQgD84aAPa7SoTFq+wDzVgHBTtsE1MInmwLVZVQHq0JM0yrQpjkr0TnIcCqE+1RxJfwCQuJsuDgsVg0jqaAvJejzmhAJCb4gxiIms1Mlt+UybJtfRHgG2ABEEkkhAwViqheDj0PohGtLrtV1khcYOJ9SPBASFQcUIV/NOB2sAUmQUsqOkw5VcFSs328fLC6MrpiozaLqBbhKJH60qwG22EgyzgD6nycwOCXqMx8/lb6OvCrxKA+4OwIQodSPrSmknqUYJ4ehzI44LyAARvVZqutRJKXhYwiavzRPQjWNQIgVyNF/gXgK21PPFUEoX/M9Pw+q0tBvK1OVkHVU1PGoIgQMgIR4UMog0etElxgSq33lUCFUD2pyzXArKkZRz9wdTUNCQDZSgbqYGShiM/EReASeo5Pej//m9gF0yS+LWfsLeyBZSTss71D+mW6VNl8pqHFnBA43i325SLgbeOhDqIh4R/UtywWa77guWEqx4o8Obi9eGaSCAXYbykPQdKYtmH6AJLVkkxjQKgUMgFBTBxTtGqnG2iijm8skBMbtrQEmrfIbK6CCsHUddzManIWo54RHhUqk3TTX2vSNpsjv0jpadvq35mdwBxkRG8IMMbXI0oKDGCihPnSW/qZf6SFr6UNE4pIXVAk8dlr/oZFJBByLm78oh+Qlyqq3huILG3VOPzEXRDTHpjtHsGfNQ13rdP8AV4nfRRkE4mRPKE4zRL3vdkgMailpCDUPig1v0OponygXy51miKt5BfegnYn0lzPg1UpucwvCDCEkR0gn+AvVgU6K3AFZck+b2adF4XyoZwX4PuFI97MjNEiXZm10VYU1KDc9kvgWTRdmoEQnrLS2dQ3oiJyD0LJkrE/9U99R8D/UB4xT1uiZQ8AqQC0dBNygiTodObOhCMNb4GT6LdjXYiinAIvvmdaXPZzoNfY2jykSpSz5y888rGE71oPEyeZhe09g3zpx0zhNsqTmosyXsMxB+56DWkXbYYnoFPHhyCFwWrt/wmeKilKlQpCdqAFVyORumYjpFBFAj+83LhVALmcTiQz6lKA7EPsUqVU3nV1UCPvkKl64hGNqusIJDhDWTKf3Ync750eqTG7np3YjfJm0r5C3vPqY/MtNV19BAQ0WlFkEcPFSctvilLG32VAvSYd4hTZ5v4DQQhjzGOVKxWHlUNxGb8CCNhAtxF1WB8kRKJnVIlovGVU8VZ5BBxQFTLpphBjoG3JXe8bgCUkCyg2aOquw2RUYo4VYG5fymvAjmLecgysui0k42KJ8u85hCEfKFO4nZ7QoaMnO5AtKtLSh5NpWC9KgzkshBVfyM0qYPEPDcpSZCDw+1FENezFrwktU7uPriAFfSlAgbVIP6B1sIQlAFo8idobm5bgORMSy4ALzClU0hjXosT8m6vp7hoPwrsk9dmIGYKquL6ErAxgm/jMZhW1LRE8A+LJtHpyLJdqgajNNY/UqsYPBAej/HW7aU4xpzpIKcsBGMRpTLbKocSmc1SoFvEICQ06FPC5JH8g2cwVkVT7+B1+B/RIQTWUUhcCos7yxP54F4BuFs4e7ykDfdT2Tpx6QB85QI5FegClksGvejq7V6RDjj9CFSZVqcTp1nQtOB16NqTEx0HHpd/KVRMK7pSHo0uIlgEXaDcnkErTUNKnT4YaijrJYjJGjgpam8TOd0mhKiEwrwj9u3bYAWYIC9XJKk4mm/laEEIW/CAOFEDCBKLyDVhRGmGaFDKmpQrN45yHIk0vQUt0RETHK5r25ANUGCVtsCYecNFHcDNR+i432rA1rzs3s5TVIS3+rQ2nLlkDmydjfN7eCzFTgVANu7H2jQi9CpGj6V0lAuyBqxOgHVOP6aXFuj0VEC9BceF68JzgLUAEQ25QOUhoeQeAqEVmIwpPli/LYWoZA9KDb0hqFYzmdFQEArrqUNwB7Ut0RmnCJdtDhGcsgrIrfkkB2VqEkXEph+vzQHwBSCBrfo+KrHEN/S8UFFO2idQ4l6kLuAQIHkc548m4PNo6Y6BFFZF0zTVUANxR/qFlhEkqiupi46xKjhulU80CSSpWKkgfjp0rPoqB1QAtAmByj2vFQrj+p5WmDfl1iwb/LrhE+VTzA0SMgyg6Becuj9GIA65FEn4TwDhjXj7YvIEM+F4QPFIz4wauREo2sZGI5az2g0cQg9iTsCeDUybRQqx3d+on3OooRWRyVNualj4cQAOAAM1Ci0oVFj0Monxx3a1okaMFJrHrrxNin5iZBGU/piyAwQMYJnHXG+kEDDJN1RbLN7roFzOlnNn1H+MlCa9GrAKR6r6H6tdmn2ErTm8GxemuIZk03umsfh3/E5SwOdg4UOTssSGZGBw4dJtbGqj/Jcov6xoOolD4kkot0KshuqI5+0bDyagRQkYNspu3G8psjNlNdUUCUdjSUlhX58EBg1/QWEguYQPdK2xBT4pPQ1IMRGXT+z/BqSsWGEuIk3ydwD5Be6ytChKaZHNFJgfcWmJky+eSpaTbZpcG25wB063tKbJ5qgNnzyRr6r8KYO6YKpiEd5RyRC6U0TL+qQRsnVR8OqSdhv6jM5zDmo2AO3+xb/glbVaJiIs8GIpc8qK7/kgYJOrnol1q2jZqHhmLG9JNkdraNrpVZYSuNoRQZIaaMhgzWNQARDPrlVTbx9mZqVay6V9LdWah6qTocBzov3aHEVE8LbU8CLAKuoeFphgADIX15DLGwp+4gOemuk0pxkqUnUanVdBsEw3QnC0sobz/H2OdAbSD/MJ+qPFtVSDaU83hyTXplaKFoGol/MigpS6xVNlVWRJY//3zx+9qzYx51hTOTpkgNAi2hIy1++4uZF7IgDKig7rawR2Z5bQiiuh2ZU4DpUf3iubhU6lo6YVbwX7ioAE/YqHhwlWbt07R5uYEBDRBN3lIOvWkiZBWHeUyS4tqSS0cW8Zz/lKD8YqY1wyuP9CorQ7Rd5rI1sGE2EPXDUNMrZXtvXwMsO4GuBdGuvTfSbSuLeloY42HhTRaDv3qo8ImLzbyptHwhJa4xE9MaBhMoaLfaiSTzIHzfRpmP7gjnDDVpUblCrlgKpGi3UvcU5Wb2rAhhcoLTPjH9pVlWmcAOxlyZGgrtWBWPDkNBgBQ1TfR7mNK1cHC3/rFUnqPCSHC3DklYJNC3qdBp9ae44Ak88Q9J8a2dNHQ0gAICdBYAd/4hYlkagp69mBiU8x9+bZGrX6hDtg1P1kfwOTc54C3AUaGTkWPOuQtE0Eg0D4tGH3IrMWQebdDsUS41CnZj21X49E9lSawRSeyI019Hq23WQC71b0ytc1BMhTGOUIWeEDH6yXXtG8EMTgy47oNmeFKIKYu432RrH4Rx4U7jj0T1aGspvC6ZCx4Rn6bY2QMKKFugy1T8lprHZCU0B05IQkthleO3tu6EwES4IEy0tnwYwA8emk2EV8puVg85wJUqSi6XRLjJ7vVisTfcrGEfzZKCd28KLvdWcrd1CovG3E8lne9rqKh3oIZhMAxyaKMvCFI+pAQxxaO9V0APOxSJomuGRFB78H30lLgKlUa7at2KV/tSyi6obWYWQxKuC2aJKxJPHJ8UX2oc6LWoFRAMl4A+hTE1UtWF+9UIh6LAc1z3aNzMwNVVrijEvoWTxoenpAclBYavclnZGSKpqaYe4Yc9Mooc+pDc6SrAs7RRzaJkMCdNKaHXNPgecLxEjhUqZaPXqeIJEQaKNoK0VclSfySty3BtUj+B+rJxhY4o2r5gMNWSKO8x6RK0XoYPUkLwOzEtB9yd86hJcnSmBVt3IT/tqWU3uGYgCjHbgkIPz1fBXyzGasiH7SslTu32ixtDPxqeI8ZYWcK8p5MA7TUZk4ILr0wIua5CfWdLBWs1MmgcL7FBKoI31TUuDh/QcwnM6bIe9BNxcZoOU12cGkWR2lSYkLbhScSgR2YXqerhIwqq2YUg97yKbxcVMjU5ljef0hyARTZMaqEyvA2iUk8bCWt3X5EnuTmPFqk1TIWgIBow0HEHQnKxrodZMW6DaehUqcpX4P5qB0EHRsFaoT55IGyHyeJt6UdDdb+1A0PYZ7Y7DIdGMgBolC3hvoAzmC01WHhM25xakZLxKrZA4pPd2wGCG8K0oti4sBCMDPow4UwJ6tCEPSXUOjT5n0iIXroK4DgBYk06ptK7J/ke5aA75YxKHSBFOLa0l0hVN+nR73ahp/f05B7JvBO9Q0Ks+YxA0ZQaxaBH0lfAJNtLWQ+jBwzNL7SGKRp3jaVV32CzQsWq7FLeCQDvaP6qRBc9jbmsDlQyn7CmibeKDUEqaknf8BGHwGvYBejLL2qFH6hKY/BYuUAya7hEcx8+I4EGASq8a/BOJEdG7AKQAbJ4YaRltpxt0g5YzLuymQT7YgLW/aOQcuuNwQLrut6RwMMJpk9LnXBBayHIQnUM0LexUA2WVtek+mYT4lcojGLcUh7whIrZoxFqky3bEV9G/fGlehnFdqvwFIXVINI31+KOJ6htCBirULiqXw+floZerNtk2zXi1IeU1w5ZjQqIgBtcG2grBpUZ/nP4MIGYWX512/1LQ+I/pD1F44xUUdO4beUDKTQQXNPDH4NPTS9tBDqHyaIPdtc0SUdqdtnc0RUmoYFeb3QJcpGE+EFq0lqshy9Vysn3pRhP0F20MXMRVVKEtepAF/gisJyYwRVJGYU0NVOXMOlZJ7YZMeZQkztQaQdZewDW0g26TTW0bkmNFo21ioFEwhXY0uRDSFYSV9ntw9xVFVdHLZ6Pd8HEoClrUqodmM3HFHWlXJTh+M3KNWxraqKc9eOUMxA/ICmwEIkDuM9ZLe0qgijnxQiCulsKQmNkFDBTPIAom6hm2lV3usQqtmnZjEB2kbDTpe55Czcal+XWtEQaZmuZl045x4fV8LkRbwLVRMz1qAOH8b9+xdsAEYu9yNQSJ1/ZXSLwvF+kvbSKtqnoSj07m+a7GtdMkJYzzyoAe9D+JXkdja6CKHtZ4nIKpxDE5DSJKLgf+Gj1p4fVofoIOB/m0VAFra3caodZaOpRsyPjWA7I2lrcykzUVc2QKNiPtAVG8JrALvWhWFa9c7SYc2rOnj4GISjavNdV60ZKUintCOIhPl+kBLQrSRPW1iSENeUIIKxTtGTeu0VGTVS0Eur0tZKPibrQO44NOtvN2MIXYSrtQgjZ2Vp4xDw23LgInYM64MQImpzw1es9cqQHSh7Oo4yAsCor0V/NEgZanRzVcf804NOQAw6ChOFpvQjdknbYklrfNI9BqSCjtFtAnZfx1cjsTKC9E9RQtIGilqqBjlETTMmST29/a/aZdOpnnmuo4RIuc2sEmzJNdEb5NBYh7RW5PQK0D2toep61O2sIj6320Jw0zRJ/WvDTszFvLSviQN+GnIGvtmqgK/4oW6TQZo1UF/dpbE1eeb49f0lYjOPM07dMMRWQK1W5tlWjLlQoVjYQDynKShgLIszYIAIHf3u4CLZs/2RAVbSglaPL+EUZYnU/Ru790wff3JYYG2beG2BoT6sMI2pYRUDwolLmihv28XyM+N/TBHMgfJQggDcrRijY37NY1udRm/EnmrsxehOSmZpLwJ4UNTJ23YMRZqSNUqT6F0DQvkpzGvkARN2n2JZOhLZvU0bpeGg3pilOIi4IF2ZsmXB0Fl4NLV/P8rT2lXbuZznNNBAboPTgdngZalK4COhJ4DYYCXw1OMCnFN5hGzDqfIu3bpcKgwa5SWge91DXEAEY1Na9acGuo4jS1LgCvYkNpIcyb5O0zJARbipMKwLFwJGGCpg9YJYylABay17TONDSuQZ7dz6LG0GokRgjA0WJyJEZfqx1U4/5sqEQLYQYoG+pJA8w738FS8VnrBXC95qhTG/q2JiYDi+g0a0wwcH7eFADZOeHuovaFaXZM7H3QZhiJYNMmX3K2Rqva2SyyIGxFdVSaPvBE3RbtYZoLjDj4bG0aI+FLsv6tbeb+16XNX7+7P/yCAgP53pb9HbX+B3SNz6+A7FS063OoLzTx9trQjex2Ss5jfz2u8AQTQS2CGhOwzqiwR3FPNMNHmbreXxEbIZYm/aZd+86Q8hzYTMveco2U43j7eAYIMAEKLa9y+awP0QSNv0hKC+fNU/WpOhVlNIedmrhJbXlDamvpYmkvjvblIWp4KH87MkKfdZvPDqOFrgW8t5ZJAhJWzJGG04dwgKLRUWx4DdhI86RetXem4RAMDb7oRApXK5noA0lAfRjq+raHmu5q+cEFJIN2ueqzH9xK0oYSlHl7anGRR310J2knfpnyzlgq7e+8KQDpyFh51UBHuzbhea99aipT4WfEO26vgqsHXSw3tN5+GgTYaDwTzKHyL+WVmkabNKS7CAJ6UvtiiKfZc920oVbZm57g6F/AWpiotjx7fz50mlzREI++z/7Ir1n820r7Y6Fl7YHV7gcqCYiNs7k3DtCHjhBx77NxsU0e7/e3hqo912r7/PlV0+bj43P/HBfRR1uzMCkkTQNQ6jysPgmojyAdbf4foVEa/W1NHPr8R9OWa1QtknK9DwIoIViIRPljlDTJOJo5tCyB5HEuKAgbUYshQERa2sMwND/ExVowv+lGIUyzFcPbxaq9CdpSRTK0yIf7ROYCZVn8SvlyRfSTpiEgv+lDPZ0SSUprzprgHfTRTvU7EFUs/HehaO9X5e1z1eeufomu+0/D+/s53R9SBh7u7v4Xs8ZF/rZ8C1UAAAGEaUNDUElDQyBwcm9maWxlAAB4nH2RPUjDQBzFX1NFkRYHC4o4RKhOFoqKOEoVi2ChtBVadTC59AuaNCQpLo6Ca8HBj8Wqg4uzrg6ugiD4AeLm5qToIiX+Lym0iPHguB/v7j3u3gFCo8JUsysKqJplpOIxMZtbFXte4ccggohiVGKmnkgvZuA5vu7h4+tdhGd5n/tzBJW8yQCfSDzHdMMi3iCe2bR0zvvEIVaSFOJz4gmDLkj8yHXZ5TfORYcFnhkyMql54hCxWOxguYNZyVCJp4nDiqpRvpB1WeG8xVmt1FjrnvyFgby2kuY6zRHEsYQEkhAho4YyKrAQoVUjxUSK9mMe/mHHnySXTK4yGDkWUIUKyfGD/8Hvbs3C1KSbFIgB3S+2/TEG9OwCzbptfx/bdvME8D8DV1rbX20As5+k19ta+Ajo3wYurtuavAdc7gBDT7pkSI7kpykUCsD7GX1TDhi4BfrW3N5a+zh9ADLU1fINcHAIjBcpe93j3b2dvf17ptXfD7iFcsOX9lWFAAAABGdBTUEAALGPC/xhBQAAAAlwSFlzAAAuIwAALiMBeKU/dgAAAAd0SU1FB+UDFxAgLcxO7sAAABQpSURBVGje7Vt9lFxlef/d77kf870zmclkN5ssCQGyATwon5KA0ULA2nqKbVHUKkWBY4EqVFGLln6cUz2tFj8gBfEDDtq0oqUGrKgEaDAIJEHIJtndyW5md2d253vu3Lnf9/aP5L3emdA2QIL+0XvOnszOvTP7/t7neX7P8/yeNxR+S67LrnqIPnd95yOeW70NPhXxwc5FIpGXQAkHTYuZFEVxSpJTrUd+XCv99JH3u6/lb1C/DUA/d+cDMsd07jb0patd16J93w/usSwDmmZBM7xNU1RPENM/5fjoz1guumuh3FN1XUc8xlWqdVhajzZm5zt44kfXBV+wactWGoD/xPbr/N8s2NxXqTtuUM4ShfY9eq/+ZtftNxjDMKAoCo7jwPO8I9ahKLAsC56PABQDyzTA8ZLu++xBno8cohixJPDi847LvVhvS1P3f39KL++90dm4ZSv9GwN7wy0PsaMrnPdbRvkLrqOnCBDXdeH7PjzPg+u6fSBpmgbLsn3P8DwP13XhOA4oijq6GTxohjF4TuoYlnRfsSR//sFvfMD8jYD9+F88IAyl9C/Bb35E73UpiqLg+z5s28agdck93/fBsixomoZt2wAAmqYhCAJc1w0+R0LA9310u13Ytgcldvo1Tz/PPsi+0UD/8a6HV9pG5but5ty5jmNTvu+DpunAgoMLDt/zPC8ASu67rguKosAwTACYoihomoZutwvP85BK6+tMR6HeMLAXX3YPe/klsTfp3dnvNZsLo67jgKZpAAjcMgyUvCa/hy1K7lEUBdu2wXEcPM+D4zgAAMMw0Gq14DgO1qxZg2R6ub33qfd59MkAdsmV/3xMeFyxOfp+xy79rFGfG7UtK1ic4ziwbTv4l8Sq4zh9sWvbNmiaBk3TQWwS0J7nBe9ZloV2uw3TNFEoFJDJZMAwkRIAnHTL3vaZh5lktH1btz15h6o2Bc/zAquE3ZQAGbQoIS3CyoSoyHeQTSHPqaoKXdeRzWZRKBRAUTRUDZMnDaznHVno9Td/Ly4LC5/vqpWPddUOHWZWYpFff8Y7JkaJW4atSJ51XRc0TYNhGDiOA9d10el0oGkaFEVBoVAAwzCwbN93HH3PSSsqNm3Zyp55urxiKFH/itYtbzFNgyJWCQMMMy15Td4f/J1sRPhZYmXXddFut6FpGliWxejoKFiWhe/74PiopWqJQrUp1k+4ZfnTv06ddQb3tnSi+vVed3GVaRp98UcAk4V7ntcXc+GLACL3w2zr+35ATKqqQtM0eJ6HfD6PXq+HiYkJHDp0CLFYnB/fcO7edDr/4xMK9n3XfofOpbvvjcqL/9Drtocsy4Jt231MG349mG583wfDMH2phmzC4EaQ57rdLlRVheM4yOfzoGkaxWIRpVIJvu9DFCPQe7XlYmH5lScM7Luv/qackOZvs43q7R0HLMuyiEQiYBgGpmn2VUIk1YTdMhy34Z/wFSYwANA0DZ1OB5ZlYWhoCKIoYnFxEbOzszAMA8lkEtFoFCMjI1i2LLt4wsBmU813LVV+9Zlly1K0YXiYn59Hp9PB2rVrkUqlIEkSPM+DruvQdT1g1nDFFI5TsgmDFj3SHLAwDAOdTge6riMWiyEajaLRaODQoUNoNpuIxWJQFAX5fB6rV6+G7TKdEwL2LZfey3dav/pos7lET0/vx9DQEEzTBMdxAIBWq4UdO3YglUohlUpBURQIggBFUeA4DnRdD9iXWJSkIuLKYUIyDAPtdhuGYYDnecTj8QDo/Pw8eJ6HKIpIp9MYHx8Hy7JoddypEwL27DO8TKlYOsv3fSwtLYHjOOi6DlmW8eSTT2L16tUwTRNzc3NQFAW+72NiYgKtVgurV69GPB5HPB5HJBKBruvwPA+macJ1XbAs2wfWNE2oqoperwcASKfTUFUVMzMzmJubg+/7iEajiMViWL9+PdLp9NHU5BknBKzRLW62LU2hKArRaBSiKKLZbCISiaBarSKRSEDTNGQyGUxMTCCRSEDX9SCef/nLX2Lt2rWYnJzEihUrIElSAF6SJPi+D8uyYFlWANRxHKTTaXS7XczNzaFcLsNxHCSTSciyjLGxMYyNjQWekUhILzKvF+i1N9xPtxv772Bo87Tly5dDkiQsLS0hEokE8SWKIgzDgCAImJychKIoUFUVgiBgfn4esiyjXq+j1+theHgYkiTBtm08++yz6HQ6aDQagVs3Gg3Yto1EIgGGYVAqlVCpVKBpGqLRaEBIZ5xxBiRJAkVRiIjRMscN3fqaLLvx8q0UAOx49Dq/3Vos+L6xSRRFFItFNJtNdDodjI2NYd26dSgWi5idnYWiKNA0DfF4HIIgoNlsgud50DQNx3EwMzODXC6Hl19+GY7jQJIkaJoGWZYRi8UgCALK5TJs24YoihAEATMzM1hcXISqqpAkCYqiIJvNYtWqVeB5/uj3KC7LpW5579WbS68J7I5Hj8ge4xfew+Qy9ds9J5FoNBpQVRXRaBTpdBo8z2NhYQGdTge9Xg+5XA6lUgnJZBI0TYPjOMiyDIZhMD09DVEUA68gliwUCpiZmUG320U0GoVpmsjlcvA8D6VSKUgxHMcFf3dsbAyKogSNP80o/1KtOdteV228cctWesulmdPy2egfLSzQmJubw/r16wPXmZqaAs/ziEQiGB4ehqIo4DgOqVQKvV4PkiQF/aYgCBAEAZFIBDzPY2RkBJZlQVEUtFotlMtl1Go1ZLNZUBSFWq2GhYUFdLtd0DSNRCKBeDyO0dFRZLNZuK4LjuNAM+JkW2Vv3fbIYf91gc2mBPbsM3O3DKUjicnJCdx8880AgFqthkajgUqlgjVr1sCyLKRSKXQ6HQwNDSGVSqHZbGJoaChourvdLiKRCGKxGMbHx1EsFnH48GHIsoxOp4NCoQBSpBiGgUqlAlVV4XkekskkEokEhoeHkc/noaoqRFE8yhnCP333B/NligIFwH/NYC86L3ZOuVx8b3nhSJl27rnnQhAElEolPPbYY7jpppswNzeHDRs2oNPpYPfu3VixYgWq1SqWL1+OSCQCy7IwOjqKVquFdDqNRqMBXdfRarUQiUSQSqUwOjqKXq+HQ4cOged5tFotqKoakFQ0GkU+n0c+n0e324VpmhBFEd2uoak9dteTj14X1KSviY0//qmHFAbzD9aq8yv37dsHz/OwsLCASqWCxcVFcByHQqGApaUlXHzxxZiZmUEymcSKFSvgeR5OPfVUMAyDeDwOXddB0zRyuRympqZgGAYYhsHw8DDK5XIAnmEY0DQdMK8sy4jH48jlcli5ciV0XUez2YSiKDBNE1PF+hcrNeWBfS8+htcM9t1X38fm0vU7e93ye0gFYxgG5ufnMTU1hd27d6PRaKDVaqFYLCKZTCKTyWBsbAzFYhFXXXUVKIoCz/MYHx+HpmnI5XJBRUXybCwWQ7lcRqfTAUVRyGazqNfrWFxcDKqmZDKJ0dFRAAjc1/d9zMyWS7WG+OHtP7xT62seXg3Q333PVmbdau1WeLVPG4ZOO44Dy7JgmiYcx4FhGPA8D5ZlYW5uDpqmwTRNrFy5Env37sXMzAx830exWMT5558fNOcbNmzA/v37sXnzZpx++ulBsRGJRDAyMoJVq1YhEolg3759MAwD8Xgc0WgUo6OjiEajQdVFURTq9ZZdbykffOrn975wTE19vED/8APf4U4Zqf2lZS5+0jJ1hnQxpNUiYhgRwYjyt2fPHuzcuTNg3Hq9jlarFWzSeeedh1wuh3q9jocffhg33ngj1q1bB9d1cc0110DXdfA8j4ceegjtdhuKoiAajSKbzSKZTAaSjSAI0HUDlSXn26yy/pFXwnBclr3l1vukbKr6ZcdautnQe0y43wwX6AzDBLUsad/Cei8p+imKQq/XQ7lchizLWLZsGTZu3IiFhQXk83mwLIv9+/ejXC7jnHPOAcuyuPvuu2HbNvL5PBKJBBRFCRoJ0uAXi/NdcKf9mSAWaocO/od73LOejVu2sju2X+f8+W33Lxe48lZTr1/hOHagLIQbbtKdhPvQsEwaFrFJsidimW3b6Ha7iMfjcF0Xb33rW3HZZZehXq/j4MGDME0TlUoF27ZtQyKRAM/z8H0fqVQK6XQ6UD1KpRIabeWO53Z9/69e1WBr05atlOOCPmfcWxuT2z9U1cU1lmkeI5QNKoXhdoz0pWReExa1iUBGhLOwVEMsn8/nYVkWOI7DzMwMDh8+HBQLxBtIAVGv1zE339spKOvfIcjr9Ce2f9R7JVzs/7QFb95gnSXyjX/rqq2Vjm33iWVhy4ZBhFWHsLxJtF4CSBCEPk14sIEnVZIkSTBNE4ZhwDTNQF8WRTH4rGEYqCyqi5y45kPP7PiS9r+F4yuCveBN1u94TvUblqnlyULCbhp2WwIuLK0MqoNhiw+KaRzH9TUELHtkSTzPg2VZtNvtoKUj/S1Zg2VZmJ2d82l2+PpfPL31wP/FPX1gb739AToqdW42epU7TUOVCKCwMPZKwtnge2HrD1o6LLeEfwgAjuMCcjMMA5qm9Yl2hPxs28bc3DxMW/mBkli1fdOWe9gntn/EOS6wH77hWzGOXvpET6t/xjJ1ikgkYUCDmlB4bEEWwfN8sPiw9BkGH5ZHBz0l7PakLAyPLklfq2ka2ioOyNHlH9rxk78xjyersJu2bGUuOEdRBLb6bUOvvdO2TCqsBYVzKbnq9ToqlQqq1WogY/q+D57nkUwmUSgUkM1mwTBM30YNAg/rweEBFkVR6HQ6UFU1+PvEIxjmSLZstXuqFD3jYzufvK91vLUC++azFEkRW/+qdZc2E0F7MH+SRei6jgMHDmBqagqapvXtOFns4uIipqensXr1aoyPj0OW5WOmAOGZTVgxJMAsy0Kz2QxilOO4oMSkaRqttuZGpDWf/sXT3/rJq6kA6aGkdq1lVTcPitmDRGJZFl544QXs3bsX7XY7cK/B+PV9H6Zp4uDBgyiVSn3pJzxPDWvBxLU5jgtSiWmafdZPp9NH9SiA5VZ8QYqf/dVXW9fT8M3POkeBhucug2PBdruN6enpPrIYJKiw9TzPQ6VS6QMaHjmG3w9/ptlsot1uBynJ87y+yoxhY/MReeUXd/7ss96rBuu6ZpIsgFghvKCwBUjhPpgTX4m8ACAej/cRVZgDwt8RJqRGoxE6T+HCdX1Ylu/7vg/Pp21BHL71uWfurocVk+MGq6qawzAMYrFYMK7gOC6IIZIGBEFAPp/vI5tB4gnPYTZs2IB169b1pZyw9YmVWZYNFP5qtRp0TkfOWLA1w85ebbqFjYYZeZZhhx4Ek/lenx62/brjtjBzyinjHygvzKQoigpUO0EQgsUTEuE4LqhFCTkNujpN0xgeHsb555+PM888MygABglq8JiPZVmoVqtot9vBc65HW4Zd+OBzux7atlTZd3jFqsufoWj58d277m2+VnWFtW375WKxOHbo0CGIoohsNotMJoNsNgtZlmEYBizLguu6yGQyOO+887B27dpAQnFdN/CGRCKBTCYDnudhWVaQksjhjnB8kk6IxGmr1QriE6BgWvG/e37Xd74fhMTQW/Y9sf1a//Vo3KwoRWtk9NdsNlGtViGKYiB55HI5xGKxoIigaRqSJKFQKPQd0QmXlIMxGi4hSStIQKuqGvS3hC8Mk9vrMWNfCi/09QIFANZ1MUPIp1qtBhpsq9UKZjOpVAqZTAaZTAbRaBQ8zweDK8KYxCokN5J8PUhiBDzLstB1HbVaDb1eL3jOdnxbN+PXx5ed2tl4+dfZHY9e75yoSSPrelyN446QBCn/HMeBoigAgF6vh0ajgVKpBEmSkEwmkc/nkclkoChKIKEQVyfTOFI6hmObeADLsjBNM4jT8Ok0w4p9bc/z257ZePmmoR2P3lg7kcNy1nHoAywnIxZzUCgUMDc3B8dx0Ov1AgGLgOl2u0d6x7k5SJKEdDqNbDaLVCqFWCwWSDLW0aM/4TQTzrOkISdnlYLCxY4UKeG0v79kyxWM51P1E30EgrW8Zb8SIqkXPdfYcNFFF2FychITExMBkw6eZiFnkgjw2dlZyLKMZDKJVCqFfD4fACfgifV7vR5UVUWlUoFhGL8eUdA0AMbx6JGPy9FTaoAnURR0AM6JBEsBwDuu+MSo2jrwwJnjKy7MZjNoNBqYnZ3Fnj17jqmYjknURwmH9KWiKCIajQYDKYZhYNs2Op1OMEAmeZs0GAzDwnYT98qpt99M06z98+0fs07GKR4WAP7zR1+c2fL7d73Tdpd+z4f0J2p34S3T09NCuON5pXxJLE0Gw2SYXKvV+iqjMCOzLAtBEILUQ9M0QClTFDdyOyhB9OHoJ+sA2jEa1JZ338X4bnVtfWn/H2vdyh/o2tJphtHpq5vDEowsy1hcXIRt24FlybgwzMAEOMdxEEUxeI6iGMujR656dud3//1kn7Y7RkqdnHjUnzqwo7bm7E/ukEXpfpYTHue4GE/BGfU8m/c8lwozqyiKGB4eRq1WC1JQON4Hj+YRNSISiYAXBDhu8su8cu7XSsXH/ZMN9rhPuF146e0j7ca+zaZee5djdzebxpLkeR44jsPZZ5+NZrOJl156CYZhQJbloKYONwkkHUmShGg0CoZNTNg49cLndt7VxBtwverjfBsvv4vpNJ7PWqZ6kanXrjKNxtsV2UusOWUMlmWhWCxCVdW+XpfEZhisLKdbbOSUdz7z1P1Pv1HHgF/9yJLivd27vlkGsA3AtnMuuCmndaavPDDZeRf8ziW6rsuDbjvYEnJ8YpIWzvhTXhn/L+D+N+xg9wk7qHnBpk8xlllLW2b7Sl0rv88y1XWe20v5viVQlAeGEW1eUKqyknuYl1b99a6nvlLBG3ydtP8jcMHbPpfQ2pPDNOWO0JTL0wxzWJRXTz75+N928P/Xyb/+Gw+g04deoQv9AAAAAElFTkSuQmCC;spacing=0;" parent="5ZAUk3ZZXwPiC2q51OY_-325" vertex="1">
          <mxGeometry x="34.78260869565217" y="124" width="58.267080745341616" height="57.27950310559006" as="geometry" />
        </mxCell>
        <mxCell id="5ZAUk3ZZXwPiC2q51OY_-323" value="" style="shape=image;html=1;verticalLabelPosition=bottom;verticalAlign=top;imageAspect=0;image=img/clipart/Gear_128x128.png;direction=west;spacing=0;" parent="5ZAUk3ZZXwPiC2q51OY_-325" vertex="1">
          <mxGeometry x="136.3975155279503" y="138" width="25.341614906832298" height="30" as="geometry" />
        </mxCell>
        <mxCell id="5ZAUk3ZZXwPiC2q51OY_-324" value="Pump Relay" style="text;html=1;strokeColor=none;fillColor=none;align=center;verticalAlign=middle;whiteSpace=wrap;rounded=0;" parent="5ZAUk3ZZXwPiC2q51OY_-325" vertex="1">
          <mxGeometry x="129.1925465838509" y="185" width="39.75155279503106" height="20" as="geometry" />
        </mxCell>
        <mxCell id="5ZAUk3ZZXwPiC2q51OY_-327" value="" style="group" parent="1" vertex="1" connectable="0">
          <mxGeometry x="188" y="2335" width="200" height="371" as="geometry" />
        </mxCell>
        <mxCell id="5ZAUk3ZZXwPiC2q51OY_-328" value="" style="group" parent="5ZAUk3ZZXwPiC2q51OY_-327" vertex="1" connectable="0">
          <mxGeometry y="21" width="200" height="350" as="geometry" />
        </mxCell>
        <mxCell id="5ZAUk3ZZXwPiC2q51OY_-329" value="" style="rounded=0;whiteSpace=wrap;html=1;spacing=0;" parent="5ZAUk3ZZXwPiC2q51OY_-328" vertex="1">
          <mxGeometry width="200" height="350" as="geometry" />
        </mxCell>
        <mxCell id="5ZAUk3ZZXwPiC2q51OY_-330" value="Pump 1" style="shape=mxgraph.signs.transportation.gas_1;html=1;pointerEvents=1;fillColor=#000000;strokeColor=none;verticalLabelPosition=bottom;verticalAlign=top;align=center;spacing=0;flipH=1;" parent="5ZAUk3ZZXwPiC2q51OY_-328" vertex="1">
          <mxGeometry x="40.5" y="77" width="31" height="37" as="geometry" />
        </mxCell>
        <mxCell id="5ZAUk3ZZXwPiC2q51OY_-331" value="Pump 2" style="shape=mxgraph.signs.transportation.gas_1;html=1;pointerEvents=1;fillColor=#000000;strokeColor=none;verticalLabelPosition=bottom;verticalAlign=top;align=center;spacing=0;" parent="5ZAUk3ZZXwPiC2q51OY_-328" vertex="1">
          <mxGeometry x="88.75" y="280" width="31" height="38" as="geometry" />
        </mxCell>
        <mxCell id="5ZAUk3ZZXwPiC2q51OY_-332" value="" style="shape=image;html=1;verticalLabelPosition=bottom;verticalAlign=top;imageAspect=0;image=img/clipart/Gear_128x128.png;direction=west;spacing=0;" parent="5ZAUk3ZZXwPiC2q51OY_-328" vertex="1">
          <mxGeometry x="46" y="27" width="25.5" height="30" as="geometry" />
        </mxCell>
        <mxCell id="5ZAUk3ZZXwPiC2q51OY_-333" value="" style="endArrow=classic;html=1;strokeWidth=2;exitX=0.41;exitY=0;exitDx=0;exitDy=0;exitPerimeter=0;spacing=0;entryX=1;entryY=0.5;entryDx=0;entryDy=0;" parent="5ZAUk3ZZXwPiC2q51OY_-328" source="5ZAUk3ZZXwPiC2q51OY_-331" target="5ZAUk3ZZXwPiC2q51OY_-345" edge="1">
          <mxGeometry x="75" y="195" width="50" height="50" as="geometry">
            <mxPoint x="595" y="585" as="sourcePoint" />
            <mxPoint x="101" y="250" as="targetPoint" />
          </mxGeometry>
        </mxCell>
        <mxCell id="5ZAUk3ZZXwPiC2q51OY_-334" style="edgeStyle=none;html=1;labelBackgroundColor=none;endArrow=none;endFill=0;strokeWidth=2;fontFamily=Verdana;fontSize=15;fontColor=#036897;spacing=0;entryX=0.5;entryY=0;entryDx=0;entryDy=0;exitX=0.41;exitY=0;exitDx=0;exitDy=0;exitPerimeter=0;" parent="5ZAUk3ZZXwPiC2q51OY_-328" source="5ZAUk3ZZXwPiC2q51OY_-330" target="5ZAUk3ZZXwPiC2q51OY_-332" edge="1">
          <mxGeometry x="75" y="195" as="geometry">
            <mxPoint x="80" y="47" as="targetPoint" />
            <mxPoint x="115" y="47" as="sourcePoint" />
          </mxGeometry>
        </mxCell>
        <mxCell id="5ZAUk3ZZXwPiC2q51OY_-335" style="edgeStyle=none;html=1;labelBackgroundColor=none;endArrow=none;endFill=0;strokeWidth=2;fontFamily=Verdana;fontSize=15;fontColor=#036897;entryX=0.095;entryY=0.5;entryDx=0;entryDy=0;entryPerimeter=0;exitX=0;exitY=0.5;exitDx=0;exitDy=0;spacing=0;" parent="5ZAUk3ZZXwPiC2q51OY_-328" source="5ZAUk3ZZXwPiC2q51OY_-347" target="5ZAUk3ZZXwPiC2q51OY_-331" edge="1">
          <mxGeometry x="75" y="195" as="geometry">
            <mxPoint x="825" y="515" as="sourcePoint" />
            <mxPoint x="875" y="514.9992857142857" as="targetPoint" />
          </mxGeometry>
        </mxCell>
        <mxCell id="5ZAUk3ZZXwPiC2q51OY_-338" value="" style="endArrow=classic;html=1;strokeWidth=2;entryX=0.25;entryY=0;entryDx=0;entryDy=0;spacing=0;" parent="5ZAUk3ZZXwPiC2q51OY_-328" source="5ZAUk3ZZXwPiC2q51OY_-330" target="5ZAUk3ZZXwPiC2q51OY_-346" edge="1">
          <mxGeometry x="75" y="195" width="50" height="50" as="geometry">
            <mxPoint x="85" y="110" as="sourcePoint" />
            <mxPoint x="86.34999999999991" y="171.19999999999982" as="targetPoint" />
            <Array as="points">
              <mxPoint x="88" y="97" />
            </Array>
          </mxGeometry>
        </mxCell>
        <mxCell id="5ZAUk3ZZXwPiC2q51OY_-341" value="Pump Relay" style="text;html=1;strokeColor=none;fillColor=none;align=center;verticalAlign=middle;whiteSpace=wrap;rounded=0;" parent="5ZAUk3ZZXwPiC2q51OY_-328" vertex="1">
          <mxGeometry x="2" y="32" width="40" height="20" as="geometry" />
        </mxCell>
        <mxCell id="5ZAUk3ZZXwPiC2q51OY_-343" value="" style="group" parent="5ZAUk3ZZXwPiC2q51OY_-328" vertex="1" connectable="0">
          <mxGeometry x="74" y="165.28999999999996" width="55" height="68.935" as="geometry" />
        </mxCell>
        <mxCell id="5ZAUk3ZZXwPiC2q51OY_-344" value="" style="rounded=0;whiteSpace=wrap;html=1;fillColor=#D1D1D1;strokeColor=#007FFF;" parent="5ZAUk3ZZXwPiC2q51OY_-343" vertex="1">
          <mxGeometry width="55" height="20" as="geometry" />
        </mxCell>
        <mxCell id="5ZAUk3ZZXwPiC2q51OY_-345" value="" style="rounded=0;whiteSpace=wrap;html=1;rotation=90;fillColor=#CCCCCC;spacing=2;strokeColor=#007FFF;" parent="5ZAUk3ZZXwPiC2q51OY_-343" vertex="1">
          <mxGeometry x="2.6599999999999966" y="35.97" width="49.68" height="16.25" as="geometry" />
        </mxCell>
        <mxCell id="5ZAUk3ZZXwPiC2q51OY_-346" value="&lt;div style=&quot;font-size: 9px&quot;&gt;&lt;font style=&quot;font-size: 9px&quot;&gt;FMU&lt;/font&gt;&lt;/div&gt;&lt;div style=&quot;font-size: 9px&quot;&gt;&lt;font style=&quot;font-size: 9px&quot;&gt;SN XXX006 &lt;br&gt;&lt;/font&gt;&lt;/div&gt;" style="text;html=1;strokeColor=none;align=center;verticalAlign=middle;whiteSpace=wrap;rounded=0;fillColor=#A9C4EB;" parent="5ZAUk3ZZXwPiC2q51OY_-343" vertex="1">
          <mxGeometry width="54.99" height="20" as="geometry" />
        </mxCell>
        <mxCell id="5ZAUk3ZZXwPiC2q51OY_-347" value="" style="shape=image;html=1;verticalLabelPosition=bottom;verticalAlign=top;imageAspect=0;image=img/clipart/Gear_128x128.png;direction=west;spacing=0;" parent="5ZAUk3ZZXwPiC2q51OY_-328" vertex="1">
          <mxGeometry x="29" y="284" width="25.5" height="30" as="geometry" />
        </mxCell>
        <mxCell id="5ZAUk3ZZXwPiC2q51OY_-348" value="Pump Relay" style="text;html=1;strokeColor=none;fillColor=none;align=center;verticalAlign=middle;whiteSpace=wrap;rounded=0;" parent="5ZAUk3ZZXwPiC2q51OY_-328" vertex="1">
          <mxGeometry x="22.5" y="260" width="40" height="20" as="geometry" />
        </mxCell>
        <mxCell id="5ZAUk3ZZXwPiC2q51OY_-349" value="&lt;div style=&quot;font-size: 8px&quot; align=&quot;left&quot;&gt;&lt;font style=&quot;font-size: 8px&quot;&gt;Public IP: 12.204.220.58&lt;/font&gt;&lt;font style=&quot;font-size: 8px&quot;&gt;&lt;br style=&quot;font-size: 8px&quot;&gt;&lt;/font&gt;&lt;/div&gt;&lt;div style=&quot;font-size: 8px&quot; align=&quot;left&quot;&gt;&lt;font style=&quot;font-size: 8px&quot;&gt;Internal IP: 10.16.1.5&lt;/font&gt;&lt;/div&gt;&lt;div style=&quot;font-size: 8px&quot; align=&quot;left&quot;&gt;&lt;font style=&quot;font-size: 8px&quot;&gt;Internal Gateway: 10.16.1.1&lt;/font&gt;&lt;font style=&quot;font-size: 8px&quot;&gt;&lt;font style=&quot;font-size: 8px&quot;&gt;&lt;span style=&quot;line-height: 100% ; font-size: 8px&quot;&gt;&lt;/span&gt;&lt;/font&gt;&lt;/font&gt;&lt;/div&gt;" style="text;html=1;strokeColor=none;fillColor=none;align=left;verticalAlign=middle;whiteSpace=wrap;rounded=0;fontSize=8;" parent="5ZAUk3ZZXwPiC2q51OY_-328" vertex="1">
          <mxGeometry x="88.75" y="27" width="102" height="40" as="geometry" />
        </mxCell>
        <mxCell id="5ZAUk3ZZXwPiC2q51OY_-350" value="Island A" style="text;html=1;strokeColor=none;fillColor=none;align=center;verticalAlign=middle;whiteSpace=wrap;rounded=0;spacing=0;" parent="5ZAUk3ZZXwPiC2q51OY_-327" vertex="1">
          <mxGeometry x="69" width="61" height="20" as="geometry" />
        </mxCell>
        <mxCell id="5ZAUk3ZZXwPiC2q51OY_-352" value="" style="html=1;outlineConnect=0;fillColor=#e1d5e7;gradientDirection=north;strokeWidth=2;shape=mxgraph.networks.comm_link_edge;html=1;startArrow=classic;startFill=1;endArrow=classic;endFill=1;entryX=0.75;entryY=0;entryDx=0;entryDy=0;strokeColor=#9673a6;spacing=0;exitX=1;exitY=1;exitDx=0;exitDy=0;" parent="1" source="5ZAUk3ZZXwPiC2q51OY_-345" target="5ZAUk3ZZXwPiC2q51OY_-417" edge="1">
          <mxGeometry x="48" y="2220" width="100" height="100" as="geometry">
            <mxPoint x="148" y="2651" as="sourcePoint" />
            <mxPoint x="497" y="2972.2" as="targetPoint" />
            <Array as="points">
              <mxPoint x="128" y="2676" />
              <mxPoint x="477" y="2952.2" />
            </Array>
          </mxGeometry>
        </mxCell>
        <mxCell id="5ZAUk3ZZXwPiC2q51OY_-353" value="Island B" style="text;html=1;strokeColor=none;fillColor=none;align=center;verticalAlign=middle;whiteSpace=wrap;rounded=0;spacing=0;" parent="1" vertex="1">
          <mxGeometry x="543" y="2335" width="61" height="20" as="geometry" />
        </mxCell>
        <mxCell id="5ZAUk3ZZXwPiC2q51OY_-354" value="Internet" style="html=1;verticalLabelPosition=bottom;align=center;labelBackgroundColor=#ffffff;verticalAlign=top;strokeWidth=2;strokeColor=#0080F0;shadow=0;dashed=0;shape=mxgraph.ios7.icons.globe;spacing=0;" parent="1" vertex="1">
          <mxGeometry x="594.48" y="3083" width="78" height="71" as="geometry" />
        </mxCell>
        <mxCell id="5ZAUk3ZZXwPiC2q51OY_-355" value="" style="fontColor=#0066CC;verticalAlign=top;verticalLabelPosition=bottom;labelPosition=center;align=center;html=1;outlineConnect=0;fillColor=#CCCCCC;strokeColor=#6881B3;gradientColor=none;gradientDirection=north;strokeWidth=2;shape=mxgraph.networks.router;spacing=0;" parent="1" vertex="1">
          <mxGeometry x="382.48" y="3105" width="100" height="30" as="geometry" />
        </mxCell>
        <mxCell id="5ZAUk3ZZXwPiC2q51OY_-356" value="KCG Firewall" style="image;html=1;image=img/lib/clip_art/networking/Firewall_02_128x128.png;spacing=0;" parent="1" vertex="1">
          <mxGeometry x="493.48" y="3096" width="56" height="48" as="geometry" />
        </mxCell>
        <mxCell id="5ZAUk3ZZXwPiC2q51OY_-357" value="" style="shape=link;html=1;startArrow=classic;startFill=1;endArrow=classic;endFill=1;strokeColor=#000000;strokeWidth=2;exitX=1;exitY=0.5;exitDx=0;exitDy=0;exitPerimeter=0;entryX=0;entryY=0.5;entryDx=0;entryDy=0;spacing=0;" parent="1" edge="1">
          <mxGeometry x="48" y="2220" width="100" as="geometry">
            <mxPoint x="488.48" y="3120" as="sourcePoint" />
            <mxPoint x="497.48" y="3120" as="targetPoint" />
          </mxGeometry>
        </mxCell>
        <mxCell id="5ZAUk3ZZXwPiC2q51OY_-358" value="" style="endArrow=classic;startArrow=classic;html=1;strokeWidth=2;exitX=1;exitY=0.5;exitDx=0;exitDy=0;spacing=0;strokeColor=#FF8000;entryX=0.003;entryY=0.511;entryDx=0;entryDy=0;entryPerimeter=0;" parent="1" source="5ZAUk3ZZXwPiC2q51OY_-356" target="5ZAUk3ZZXwPiC2q51OY_-354" edge="1">
          <mxGeometry x="48" y="2220" width="50" height="50" as="geometry">
            <mxPoint x="588.48" y="3433" as="sourcePoint" />
            <mxPoint x="588.48" y="3211" as="targetPoint" />
          </mxGeometry>
        </mxCell>
        <mxCell id="5ZAUk3ZZXwPiC2q51OY_-359" value="FMLive" style="aspect=fixed;html=1;points=[];align=center;image;fontSize=12;image=img/lib/mscae/Cloud_Services_Classic.svg;spacing=0;" parent="1" vertex="1">
          <mxGeometry x="735.34" y="3093" width="50" height="42" as="geometry" />
        </mxCell>
        <mxCell id="5ZAUk3ZZXwPiC2q51OY_-360" value="" style="endArrow=classic;startArrow=classic;html=1;strokeWidth=2;entryX=-0.008;entryY=0.529;entryDx=0;entryDy=0;entryPerimeter=0;spacing=0;strokeColor=#FF8000;exitX=0.992;exitY=0.471;exitDx=0;exitDy=0;exitPerimeter=0;" parent="1" source="5ZAUk3ZZXwPiC2q51OY_-354" target="5ZAUk3ZZXwPiC2q51OY_-359" edge="1">
          <mxGeometry x="48" y="2220" width="50" height="50" as="geometry">
            <mxPoint x="698.48" y="3221" as="sourcePoint" />
            <mxPoint x="718.48" y="3423" as="targetPoint" />
          </mxGeometry>
        </mxCell>
        <mxCell id="5ZAUk3ZZXwPiC2q51OY_-361" value="Cisco Router" style="text;html=1;strokeColor=none;fillColor=none;align=center;verticalAlign=middle;whiteSpace=wrap;rounded=0;spacing=0;" parent="1" vertex="1">
          <mxGeometry x="281.48" y="3115" width="92" height="20" as="geometry" />
        </mxCell>
        <mxCell id="5ZAUk3ZZXwPiC2q51OY_-362" value="Employee" style="pointerEvents=1;shadow=0;dashed=0;html=1;strokeColor=none;fillColor=#505050;labelPosition=center;verticalLabelPosition=bottom;verticalAlign=top;outlineConnect=0;align=center;shape=mxgraph.office.users.user;rotation=0;spacing=0;" parent="1" vertex="1">
          <mxGeometry x="358" y="2810" width="31.5" height="35" as="geometry" />
        </mxCell>
        <mxCell id="5ZAUk3ZZXwPiC2q51OY_-363" value="" style="endArrow=none;dashed=1;html=1;dashPattern=1 2;strokeWidth=2;spacing=0;" parent="1" source="5ZAUk3ZZXwPiC2q51OY_-380" target="5ZAUk3ZZXwPiC2q51OY_-362" edge="1">
          <mxGeometry x="48" y="2220" width="50" height="50" as="geometry">
            <mxPoint x="317" y="3076" as="sourcePoint" />
            <mxPoint x="367" y="3026" as="targetPoint" />
          </mxGeometry>
        </mxCell>
        <mxCell id="5ZAUk3ZZXwPiC2q51OY_-364" value="&lt;div&gt;&lt;font style=&quot;font-size: 17px&quot;&gt;&lt;span style=&quot;font-family: &amp;#34;calibri&amp;#34; , sans-serif&quot;&gt;800 Howard Baker Jr.&lt;/span&gt;&lt;/font&gt;&lt;/div&gt;&lt;div&gt;&lt;font style=&quot;font-size: 17px&quot;&gt;&lt;span style=&quot;font-family: &amp;#34;calibri&amp;#34; , sans-serif&quot;&gt;2&lt;/span&gt;&lt;/font&gt;&lt;font style=&quot;font-size: 17px&quot;&gt;&lt;span style=&quot;font-family: &amp;#34;calibri&amp;#34; , sans-serif&quot;&gt; Islands, 2 Fuel Dispensers, 4 Hoses,&amp;nbsp; 1 Tank&lt;/span&gt;&lt;/font&gt;&lt;/div&gt;" style="text;html=1;strokeColor=none;fillColor=none;align=center;verticalAlign=middle;whiteSpace=wrap;rounded=0;spacing=0;" parent="1" vertex="1">
          <mxGeometry x="288.48" y="2276" width="324.52" height="45" as="geometry" />
        </mxCell>
        <mxCell id="5ZAUk3ZZXwPiC2q51OY_-365" value="Wireless" style="pointerEvents=1;shadow=0;dashed=0;html=1;strokeColor=none;fillColor=#505050;labelPosition=center;verticalLabelPosition=bottom;verticalAlign=top;outlineConnect=0;align=center;shape=mxgraph.office.devices.modem;spacing=0;" parent="1" vertex="1">
          <mxGeometry x="580.1664985163204" y="2935" width="49.99406528189911" height="34" as="geometry" />
        </mxCell>
        <mxCell id="5ZAUk3ZZXwPiC2q51OY_-366" value="" style="fontColor=#0066CC;verticalAlign=top;verticalLabelPosition=bottom;labelPosition=center;align=center;html=1;outlineConnect=0;fillColor=#CCCCCC;strokeColor=#6881B3;gradientColor=none;gradientDirection=north;strokeWidth=2;shape=mxgraph.networks.laptop;spacing=0;" parent="1" vertex="1">
          <mxGeometry x="691.2644213649852" y="2932" width="69.43620178041543" height="40" as="geometry" />
        </mxCell>
        <mxCell id="5ZAUk3ZZXwPiC2q51OY_-367" value="Switch" style="verticalAlign=top;verticalLabelPosition=bottom;labelPosition=center;align=center;html=1;outlineConnect=0;fillColor=#CCCCCC;strokeColor=#6881B3;gradientColor=none;gradientDirection=north;strokeWidth=2;shape=mxgraph.networks.switch;spacing=0;" parent="1" vertex="1">
          <mxGeometry x="377.92910979228486" y="2937" width="92.58160237388724" height="30" as="geometry" />
        </mxCell>
        <mxCell id="5ZAUk3ZZXwPiC2q51OY_-368" value="PROKEE Encoder" style="verticalAlign=top;verticalLabelPosition=bottom;labelPosition=center;align=center;html=1;fillColor=#CCCCCC;strokeColor=#6881B3;gradientColor=none;gradientDirection=north;strokeWidth=2;shape=mxgraph.networks.pc;rounded=0;shadow=0;comic=0;spacing=0;" parent="1" vertex="1">
          <mxGeometry x="135.77480712166198" y="2928" width="92.58160237388724" height="70" as="geometry" />
        </mxCell>
        <mxCell id="5ZAUk3ZZXwPiC2q51OY_-369" value="" style="shape=mxgraph.signs.tech.usb;html=1;pointerEvents=1;fillColor=#000000;strokeColor=none;verticalLabelPosition=bottom;verticalAlign=top;align=center;spacing=0;" parent="1" vertex="1">
          <mxGeometry x="108.00032640949553" y="2926" width="18.516320474777448" height="42" as="geometry" />
        </mxCell>
        <mxCell id="5ZAUk3ZZXwPiC2q51OY_-370" value="" style="endArrow=classic;startArrow=classic;html=1;strokeWidth=2;entryX=1;entryY=0.5;entryDx=0;entryDy=0;entryPerimeter=0;spacing=0;strokeColor=#FF0000;" parent="1" source="5ZAUk3ZZXwPiC2q51OY_-365" target="5ZAUk3ZZXwPiC2q51OY_-367" edge="1">
          <mxGeometry x="48" y="2220" width="50" height="50" as="geometry">
            <mxPoint x="390.973293768546" y="2787" as="sourcePoint" />
            <mxPoint x="437.2640949554896" y="2737" as="targetPoint" />
          </mxGeometry>
        </mxCell>
        <mxCell id="5ZAUk3ZZXwPiC2q51OY_-371" value="" style="edgeStyle=orthogonalEdgeStyle;rounded=0;orthogonalLoop=1;jettySize=auto;html=1;startArrow=classic;startFill=1;endArrow=classic;endFill=1;strokeWidth=2;spacing=0;fillColor=#dae8fc;strokeColor=#FF0000;" parent="1" source="5ZAUk3ZZXwPiC2q51OY_-365" target="5ZAUk3ZZXwPiC2q51OY_-367" edge="1">
          <mxGeometry x="48" y="2220" as="geometry" />
        </mxCell>
        <mxCell id="5ZAUk3ZZXwPiC2q51OY_-372" value="" style="html=1;outlineConnect=0;fillColor=#dae8fc;gradientDirection=north;strokeWidth=2;shape=mxgraph.networks.comm_link_edge;html=1;startArrow=classic;startFill=1;endArrow=classic;endFill=1;entryX=0.15;entryY=0.5;entryDx=0;entryDy=0;entryPerimeter=0;strokeColor=#6c8ebf;exitX=0.852;exitY=0.284;exitDx=0;exitDy=0;exitPerimeter=0;spacing=0;" parent="1" source="5ZAUk3ZZXwPiC2q51OY_-365" target="5ZAUk3ZZXwPiC2q51OY_-366" edge="1">
          <mxGeometry x="48" y="2220" width="100" height="100" as="geometry">
            <mxPoint x="683.5311572700297" y="2306" as="sourcePoint" />
            <mxPoint x="772.4094955489614" y="2320" as="targetPoint" />
          </mxGeometry>
        </mxCell>
        <mxCell id="5ZAUk3ZZXwPiC2q51OY_-373" value="" style="endArrow=classic;html=1;exitX=1;exitY=0.343;exitDx=0;exitDy=0;exitPerimeter=0;strokeWidth=2;startArrow=classic;startFill=1;endFill=1;spacing=0;strokeColor=#FF0000;" parent="1" source="5ZAUk3ZZXwPiC2q51OY_-368" target="5ZAUk3ZZXwPiC2q51OY_-367" edge="1">
          <mxGeometry x="48" y="2220" width="50" height="50" as="geometry">
            <mxPoint x="326.1661721068249" y="2913" as="sourcePoint" />
            <mxPoint x="418.74777448071217" y="2763" as="targetPoint" />
          </mxGeometry>
        </mxCell>
        <mxCell id="5ZAUk3ZZXwPiC2q51OY_-374" style="edgeStyle=orthogonalEdgeStyle;rounded=0;orthogonalLoop=1;jettySize=auto;html=1;exitX=0.5;exitY=1;exitDx=0;exitDy=0;exitPerimeter=0;startArrow=none;startFill=0;endArrow=none;endFill=0;strokeWidth=2;spacing=0;" parent="1" edge="1">
          <mxGeometry x="48" y="2220" as="geometry">
            <mxPoint x="118" y="2972" as="sourcePoint" />
            <mxPoint x="138" y="3006" as="targetPoint" />
            <Array as="points">
              <mxPoint x="118" y="3006" />
            </Array>
          </mxGeometry>
        </mxCell>
        <mxCell id="5ZAUk3ZZXwPiC2q51OY_-380" value="Prokey FOB" style="shape=image;imageAspect=0;aspect=fixed;verticalLabelPosition=bottom;verticalAlign=top;image=data:image/png,iVBORw0KGgoAAAANSUhEUgAAADsAAAA6CAYAAAAOeSEWAAAg0npUWHRSYXcgcHJvZmlsZSB0eXBlIGV4aWYAAHjarZtpcpy5ckX/YxVeAsYEsByMEd6Bl+9zURQlqxX9+r2w2C1SxfqmHO6QQLnzP/993X/xp1rOLpfarJt5/uSeexz80PzPP+fr++e14PP7+8ef8PV3cL/+4s6vX0deSXxPn3/W/PV6+nr9x4ns+zsn+sMvQvntgPR9/fjrhev4vnD8P3dUVtj+1z/t5//37nbv+TzdyEYY7PNQn0u4H6fhjTxYTu8w46vyf+Hn+r46X80Pv0L22y8/+VqhhxiSvyGH7cIIN5yw+b7C4h5zPLHyPcYV03utpRp7XMmnkLK+wo019bRTSzGteFJK2aX4fS/hXbe/663QuPIOvDUGThY45G+/3L96wz/5und5YhTCC+Z8seK+YlQegsKY9DdvIyHhfuWtvAD/+Pr+435JbCKD5YW58YDDz88pZgk/ayu9Aki8r/D9U1+hbmUtvirJXLtwMyGRAm8hlWDB1xhrCDnFRoIGdx5TjpMMhFLi5iZjTsnITaOOuDbH1PDeG0v8vE6rkJ+SLFVy09MgWTkX6qfmRg2NkkoupVippZVehrNk2YqZVVPPjZpqrqVarbXVXkdLLbfSrNXWWm+jx55oydKt195672NwzZHdKIOjB+8YY8aZZp5l2qyzzT7HonxWXmXZqqutvsaOO+28y7Zdd9t9jxMOpeROPuXYqaedfsal1m66+ZZrt952+x3fWfvK6l++/o2sha+sxZcpva9+Z41Xa9WJ3imCcKYoZ2Qs5kDGqzJAQUflzLeQc1TmlDPfI11RIjdZlJsd/HDBSGE+IZYbvnP3M3P/OG+OWP+rvMV/kjmn1P0/ZC66k37L2x+ytoWE62Xs04WKqU90Hwhid+4wq9unbwiAi7RTwpx1n7bnufmM2ICX/f5h+9ZRS8gF1Dv6xztB4ikiV6h23Tvd52wBDP+3z0Qe++x5utJWms2i70Rg5r4J9/L9vc142G1lDuLV71qnUymTy48wBlDcd01jGVG75mocOe94VDbGz+ZvAhUuHbujUQt19VFPn37PvcmV1XZj4Qm6rVNaD6uHfhoEadTCLGQ43rozpTRtdTu25rpztHPqWjxeabQPwe3A+C2jznRqWCXPmOyk6+LJnn/m4m9dsO7lrGsMTkSMwO99zy5xLIDdbg6Hhjlglt0S9pjhmBXKf163bl8ljZPr1p2Mnc6xS7z25uZSP/02bjneQ93xg63rV64nFcIw1ojnUJOruJBPvp5cjbhPbvPsPmsdvXCF0hdFn7YN8nhbmneC9RAZ/+JxV608Nkma9VbSP0gJ/UG6SWvfcZblLXXbKytzZ4YeFee0Wlu53Uw6UuIOU1v1bn68Z25XKsVIl3EDfF2Y9VKx5Uxgt5a8bqANYh8xNw6hbz3MXUkRMGDzDC5GAkJ15ChNsp9apK3Hp9jO2sXgyRC31dDTufwUZ07mOTTuDiV3XXCY2pJaWk5vW/ymnE1HmnUfDYJd22i8xG0R/ZFiWXBJpnaOH/3SxtAv7ZaWD+0sG92tHULb9AtV3E+c4wBkQMSJq3FbBwRSYyAnIn3VaN8/f3efH3rmRhos20aJvlEtaT1Io+rWbLfaPvPS/pn/IjV2/Mw01zp3BvpqckchrXtC2S1TrmDLsUZg6NdM1IBdGo6DSCMdVQCbWdSIJwBao/IEYxNYYGTZKZej03lxzqcOo0fTAlYALotCONtTkoeTzrYOt0VoeiqrUopZ6ucURy8R4FZU8j7T2aQpLnVrLrNCfvRXAN4q0achCjebuTvAuoKxu1GC61DOrs/Z6tgV8QWupDlB8LG4/egX0DTa4lVoyUbklJwtVcqU+PBDuCVlO4uCae7WOoGNCZwBHl3wNSbqMPXR4Cs1elnQD0kl0DSIOoq86CKEgwvyDyrLHRtpUZN0+DQJutwA8chZadhdwtrJuB9aGylCP2QgxkIYp1YlgBqmyta6Lq0Fk84agDNLSm8ae1FpAywpQk4xaz8GuRQeL03YNylBG5bSwxUaMqBGIKtBW9L4cc8Z8znQx9jgE8oo2OERgU3qlJSm2XXkpiV7nceq+DOIAZqjONryf1+1fOfJQDXqpJMa8HeP4QGNpAymBCG4ZkTokppIH4MTlM+Et8cZBkVFyojrGzGa4UK0A5wH3mmaeXnaSxKoEyyMywIoH+c6ixiPffi+Y/Ln5JlAoVK4eMHa8Ms2F8wNMFV0NhVQK0KcMNBKhayRKXqHWyl750njUmcioizVn/KgbmcGEANlSFk0EJfK5fD30GiEropxAPPQUUEpjwKyDDhz5tRGVsFEBAWJjwgKUrpmbBfYiGYJTkokmGNXvKgRj9whAfG+x9iNngPXGldcF07kDsM2JNWhOSB7kWOHOrizKjhGH9CZcD+oecpMQH7jTNQMcEmw4WqeAr0L3zVSX2mP2StQSe9v0ADhfOmgmi8iZm+HGDqktvsJlgZYq3HiIVxZnZN6iUokDIThIR9k06d4/HmF8bN23B+LBpHEDaPgFliwR98lbemkCxt5/iNng+t3WAUVlS5sxoloPYQZeAbpUFs8GE9KQ/Icu1cbKHzB3T3QHxLh7LNUPXDL8MTbIhZheifgaIu8rZ2BG4KcZ1DeBeBrjivVVlZDJ8BA0iVWNmlF7VR1HOQJ8lRkDexCrGYut/YIlm65SVSvwIRbIcxUngALnEAQU05joucSaIgaqQIeCqW50jNprUXFluFoD28RgrNH5vqdWiR/iCEenVf0Lth+JGUxdvQpeOHv2mhI6wjhlUZ50a5AfUkp7EsI0DWIO8RLEKohkDqEMid5HNwHZ1+Q/0QmUHnOg7iDuqCX54/HMGTRjbQbtBZU4potjHJnLEN5nPD5BfoNEXNLRxqm4XDCmUsEuGkBRYaW5znnQT6Hjjk7OfOPBK3h5mBbuJTf02O7PvBVGMrtx+2N1JOZluRBmPUjJgroayRSu9sXC/CHlSiERHn1tVoaj/ltTBKLlKMkXIxgNAZiJigGzco5N2gTCkoW1y66Vjx//U6k6fOr9oP9gWMeHl4DJioSClZOk1anEEleBrQo3uQRALPTTDdM08U8sUdrBJpuoWmpRiQ+HE3WQH50GNGhJgNtjWCi3yhRKsfTxUBkiUDg3qjnjTqmWCIazATsEz0WgVwIMms2QFgvnYEYJIh0fm0oSFtNwEFWJyKVVxAG9ATYFyLENZv4ctIyBB9zDCQfkorkWIqJR8aVtTKMCXEB3Nap98VViSvimPLgmoI8Mks1wSYFr1QTCDmTOnyAvvyna0Dmsjk5G0WMLgkQD4qBaEL3FS6HR5Hp6rNVxquLshyEwvFtN1GXaeR0hKueDKM3hBJgFVKBYxHar4LGpVISEW506SLykI1hRcU+JchaUahIGok+o2GjHSJMi6uEZ/Eb9U2beOQTQnB4HgPWICV7jwaMDEkvuOLQbEhSeq+QDmCtSyiDwk++FetRDwZUAxK0m8c+UaIIUJwoAtwh6EDbC91ByvSyIXavCbKnYTzVWhmU2ROykcuBAxCq6CXcMrre+kUWIDJchCkmlZ+ArHIXN4mQ7XqahLozKkd8h0RCX3NTtDwShci0MSnrSEe1ewitCx5KOW/GUwEyasaM8gNjl7q/Q00IUqguI7x5jVtGr67kDZnR4V6gUOznajOZfdoOgKk1L5HFxq3B46pKSBY8kcdNcpV4lUIjccGIaKAOuPaRkHJrLUKomoO10TUK+LLHuvQN+hinthsCd0Jx8iYARDBstlySJUxd38otagQn1EAnyWZP7dB4ALEYTBp4U+w8Lk+GrEIZxgq3iPkBEdD3vsc0TUaRCyEiTQhG4ARzSfpwDbSpRmSUsKroOZgwkPKJjkb/FrQjyQdBIsgMrLpdFi3Cz4TsceeIyIK/cCb4XSoIB06XGJ8gaPQzjiRwpysOR6kpN5pCgjJ+Y+OhScQkRpksAOJNDhSujdL56EOAcUFrHIFpO42SNeoTl43rToRA1F/JcQU70PsDBptcCUFN2bSMvOQikYDzsKnxNAGNVibOrGHTvQPzwW/cIBkjGSAV8hYYTWjhPh4tFI1mrHVZcY0FAIwK3HJay0BCf/Nf5+nZw3s/uS4QE0FL8t5RfgI8LblizyqKr1PC+MS6BtE9UQNLOANX3CswIusCN3DTYrFcIrQCA3pVAMT98SHyyV1iA2aizEDdgCCkTuXAJqrDsOtIbHUTrIpgApcbLYIcihpAgYfo6k6Tcxrw6nJFGBC1Hq6ADTNanyPM2Cy8egWL0L0g2J14GhAFO+4597j4e/rBVHj4Uj8u8ssv7meprWm3gFpoOUHZTQrpsSbeicLEa6Fnw5scgFKKbyUL3LcGCnIfeByAA6yTbKAFKVMsRBxlto2KWp1HWIMOPJuzIioDTRhmpzIUYCy2DDFmigPoD1JPc4ZLHQJEzusiPC2ng7Ct5NS4GAV0C9IWvYIdi4S8UAeoDjTPEzKoSntIg4a/om8H8pbJPQrmIzd0psg84SiQIHhsGhx9Bl1Q4hAw2kGHbfHoAnHjJgUFQgD84aAPa7SoTFq+wDzVgHBTtsE1MInmwLVZVQHq0JM0yrQpjkr0TnIcCqE+1RxJfwCQuJsuDgsVg0jqaAvJejzmhAJCb4gxiIms1Mlt+UybJtfRHgG2ABEEkkhAwViqheDj0PohGtLrtV1khcYOJ9SPBASFQcUIV/NOB2sAUmQUsqOkw5VcFSs328fLC6MrpiozaLqBbhKJH60qwG22EgyzgD6nycwOCXqMx8/lb6OvCrxKA+4OwIQodSPrSmknqUYJ4ehzI44LyAARvVZqutRJKXhYwiavzRPQjWNQIgVyNF/gXgK21PPFUEoX/M9Pw+q0tBvK1OVkHVU1PGoIgQMgIR4UMog0etElxgSq33lUCFUD2pyzXArKkZRz9wdTUNCQDZSgbqYGShiM/EReASeo5Pej//m9gF0yS+LWfsLeyBZSTss71D+mW6VNl8pqHFnBA43i325SLgbeOhDqIh4R/UtywWa77guWEqx4o8Obi9eGaSCAXYbykPQdKYtmH6AJLVkkxjQKgUMgFBTBxTtGqnG2iijm8skBMbtrQEmrfIbK6CCsHUddzManIWo54RHhUqk3TTX2vSNpsjv0jpadvq35mdwBxkRG8IMMbXI0oKDGCihPnSW/qZf6SFr6UNE4pIXVAk8dlr/oZFJBByLm78oh+Qlyqq3huILG3VOPzEXRDTHpjtHsGfNQ13rdP8AV4nfRRkE4mRPKE4zRL3vdkgMailpCDUPig1v0OponygXy51miKt5BfegnYn0lzPg1UpucwvCDCEkR0gn+AvVgU6K3AFZck+b2adF4XyoZwX4PuFI97MjNEiXZm10VYU1KDc9kvgWTRdmoEQnrLS2dQ3oiJyD0LJkrE/9U99R8D/UB4xT1uiZQ8AqQC0dBNygiTodObOhCMNb4GT6LdjXYiinAIvvmdaXPZzoNfY2jykSpSz5y888rGE71oPEyeZhe09g3zpx0zhNsqTmosyXsMxB+56DWkXbYYnoFPHhyCFwWrt/wmeKilKlQpCdqAFVyORumYjpFBFAj+83LhVALmcTiQz6lKA7EPsUqVU3nV1UCPvkKl64hGNqusIJDhDWTKf3Ync750eqTG7np3YjfJm0r5C3vPqY/MtNV19BAQ0WlFkEcPFSctvilLG32VAvSYd4hTZ5v4DQQhjzGOVKxWHlUNxGb8CCNhAtxF1WB8kRKJnVIlovGVU8VZ5BBxQFTLpphBjoG3JXe8bgCUkCyg2aOquw2RUYo4VYG5fymvAjmLecgysui0k42KJ8u85hCEfKFO4nZ7QoaMnO5AtKtLSh5NpWC9KgzkshBVfyM0qYPEPDcpSZCDw+1FENezFrwktU7uPriAFfSlAgbVIP6B1sIQlAFo8idobm5bgORMSy4ALzClU0hjXosT8m6vp7hoPwrsk9dmIGYKquL6ErAxgm/jMZhW1LRE8A+LJtHpyLJdqgajNNY/UqsYPBAej/HW7aU4xpzpIKcsBGMRpTLbKocSmc1SoFvEICQ06FPC5JH8g2cwVkVT7+B1+B/RIQTWUUhcCos7yxP54F4BuFs4e7ykDfdT2Tpx6QB85QI5FegClksGvejq7V6RDjj9CFSZVqcTp1nQtOB16NqTEx0HHpd/KVRMK7pSHo0uIlgEXaDcnkErTUNKnT4YaijrJYjJGjgpam8TOd0mhKiEwrwj9u3bYAWYIC9XJKk4mm/laEEIW/CAOFEDCBKLyDVhRGmGaFDKmpQrN45yHIk0vQUt0RETHK5r25ANUGCVtsCYecNFHcDNR+i432rA1rzs3s5TVIS3+rQ2nLlkDmydjfN7eCzFTgVANu7H2jQi9CpGj6V0lAuyBqxOgHVOP6aXFuj0VEC9BceF68JzgLUAEQ25QOUhoeQeAqEVmIwpPli/LYWoZA9KDb0hqFYzmdFQEArrqUNwB7Ut0RmnCJdtDhGcsgrIrfkkB2VqEkXEph+vzQHwBSCBrfo+KrHEN/S8UFFO2idQ4l6kLuAQIHkc548m4PNo6Y6BFFZF0zTVUANxR/qFlhEkqiupi46xKjhulU80CSSpWKkgfjp0rPoqB1QAtAmByj2vFQrj+p5WmDfl1iwb/LrhE+VTzA0SMgyg6Becuj9GIA65FEn4TwDhjXj7YvIEM+F4QPFIz4wauREo2sZGI5az2g0cQg9iTsCeDUybRQqx3d+on3OooRWRyVNualj4cQAOAAM1Ci0oVFj0Monxx3a1okaMFJrHrrxNin5iZBGU/piyAwQMYJnHXG+kEDDJN1RbLN7roFzOlnNn1H+MlCa9GrAKR6r6H6tdmn2ErTm8GxemuIZk03umsfh3/E5SwOdg4UOTssSGZGBw4dJtbGqj/Jcov6xoOolD4kkot0KshuqI5+0bDyagRQkYNspu3G8psjNlNdUUCUdjSUlhX58EBg1/QWEguYQPdK2xBT4pPQ1IMRGXT+z/BqSsWGEuIk3ydwD5Be6ytChKaZHNFJgfcWmJky+eSpaTbZpcG25wB063tKbJ5qgNnzyRr6r8KYO6YKpiEd5RyRC6U0TL+qQRsnVR8OqSdhv6jM5zDmo2AO3+xb/glbVaJiIs8GIpc8qK7/kgYJOrnol1q2jZqHhmLG9JNkdraNrpVZYSuNoRQZIaaMhgzWNQARDPrlVTbx9mZqVay6V9LdWah6qTocBzov3aHEVE8LbU8CLAKuoeFphgADIX15DLGwp+4gOemuk0pxkqUnUanVdBsEw3QnC0sobz/H2OdAbSD/MJ+qPFtVSDaU83hyTXplaKFoGol/MigpS6xVNlVWRJY//3zx+9qzYx51hTOTpkgNAi2hIy1++4uZF7IgDKig7rawR2Z5bQiiuh2ZU4DpUf3iubhU6lo6YVbwX7ioAE/YqHhwlWbt07R5uYEBDRBN3lIOvWkiZBWHeUyS4tqSS0cW8Zz/lKD8YqY1wyuP9CorQ7Rd5rI1sGE2EPXDUNMrZXtvXwMsO4GuBdGuvTfSbSuLeloY42HhTRaDv3qo8ImLzbyptHwhJa4xE9MaBhMoaLfaiSTzIHzfRpmP7gjnDDVpUblCrlgKpGi3UvcU5Wb2rAhhcoLTPjH9pVlWmcAOxlyZGgrtWBWPDkNBgBQ1TfR7mNK1cHC3/rFUnqPCSHC3DklYJNC3qdBp9ae44Ak88Q9J8a2dNHQ0gAICdBYAd/4hYlkagp69mBiU8x9+bZGrX6hDtg1P1kfwOTc54C3AUaGTkWPOuQtE0Eg0D4tGH3IrMWQebdDsUS41CnZj21X49E9lSawRSeyI019Hq23WQC71b0ytc1BMhTGOUIWeEDH6yXXtG8EMTgy47oNmeFKIKYu432RrH4Rx4U7jj0T1aGspvC6ZCx4Rn6bY2QMKKFugy1T8lprHZCU0B05IQkthleO3tu6EwES4IEy0tnwYwA8emk2EV8puVg85wJUqSi6XRLjJ7vVisTfcrGEfzZKCd28KLvdWcrd1CovG3E8lne9rqKh3oIZhMAxyaKMvCFI+pAQxxaO9V0APOxSJomuGRFB78H30lLgKlUa7at2KV/tSyi6obWYWQxKuC2aJKxJPHJ8UX2oc6LWoFRAMl4A+hTE1UtWF+9UIh6LAc1z3aNzMwNVVrijEvoWTxoenpAclBYavclnZGSKpqaYe4Yc9Mooc+pDc6SrAs7RRzaJkMCdNKaHXNPgecLxEjhUqZaPXqeIJEQaKNoK0VclSfySty3BtUj+B+rJxhY4o2r5gMNWSKO8x6RK0XoYPUkLwOzEtB9yd86hJcnSmBVt3IT/tqWU3uGYgCjHbgkIPz1fBXyzGasiH7SslTu32ixtDPxqeI8ZYWcK8p5MA7TUZk4ILr0wIua5CfWdLBWs1MmgcL7FBKoI31TUuDh/QcwnM6bIe9BNxcZoOU12cGkWR2lSYkLbhScSgR2YXqerhIwqq2YUg97yKbxcVMjU5ljef0hyARTZMaqEyvA2iUk8bCWt3X5EnuTmPFqk1TIWgIBow0HEHQnKxrodZMW6DaehUqcpX4P5qB0EHRsFaoT55IGyHyeJt6UdDdb+1A0PYZ7Y7DIdGMgBolC3hvoAzmC01WHhM25xakZLxKrZA4pPd2wGCG8K0oti4sBCMDPow4UwJ6tCEPSXUOjT5n0iIXroK4DgBYk06ptK7J/ke5aA75YxKHSBFOLa0l0hVN+nR73ahp/f05B7JvBO9Q0Ks+YxA0ZQaxaBH0lfAJNtLWQ+jBwzNL7SGKRp3jaVV32CzQsWq7FLeCQDvaP6qRBc9jbmsDlQyn7CmibeKDUEqaknf8BGHwGvYBejLL2qFH6hKY/BYuUAya7hEcx8+I4EGASq8a/BOJEdG7AKQAbJ4YaRltpxt0g5YzLuymQT7YgLW/aOQcuuNwQLrut6RwMMJpk9LnXBBayHIQnUM0LexUA2WVtek+mYT4lcojGLcUh7whIrZoxFqky3bEV9G/fGlehnFdqvwFIXVINI31+KOJ6htCBirULiqXw+floZerNtk2zXi1IeU1w5ZjQqIgBtcG2grBpUZ/nP4MIGYWX512/1LQ+I/pD1F44xUUdO4beUDKTQQXNPDH4NPTS9tBDqHyaIPdtc0SUdqdtnc0RUmoYFeb3QJcpGE+EFq0lqshy9Vysn3pRhP0F20MXMRVVKEtepAF/gisJyYwRVJGYU0NVOXMOlZJ7YZMeZQkztQaQdZewDW0g26TTW0bkmNFo21ioFEwhXY0uRDSFYSV9ntw9xVFVdHLZ6Pd8HEoClrUqodmM3HFHWlXJTh+M3KNWxraqKc9eOUMxA/ICmwEIkDuM9ZLe0qgijnxQiCulsKQmNkFDBTPIAom6hm2lV3usQqtmnZjEB2kbDTpe55Czcal+XWtEQaZmuZl045x4fV8LkRbwLVRMz1qAOH8b9+xdsAEYu9yNQSJ1/ZXSLwvF+kvbSKtqnoSj07m+a7GtdMkJYzzyoAe9D+JXkdja6CKHtZ4nIKpxDE5DSJKLgf+Gj1p4fVofoIOB/m0VAFra3caodZaOpRsyPjWA7I2lrcykzUVc2QKNiPtAVG8JrALvWhWFa9c7SYc2rOnj4GISjavNdV60ZKUintCOIhPl+kBLQrSRPW1iSENeUIIKxTtGTeu0VGTVS0Eur0tZKPibrQO44NOtvN2MIXYSrtQgjZ2Vp4xDw23LgInYM64MQImpzw1es9cqQHSh7Oo4yAsCor0V/NEgZanRzVcf804NOQAw6ChOFpvQjdknbYklrfNI9BqSCjtFtAnZfx1cjsTKC9E9RQtIGilqqBjlETTMmST29/a/aZdOpnnmuo4RIuc2sEmzJNdEb5NBYh7RW5PQK0D2toep61O2sIj6320Jw0zRJ/WvDTszFvLSviQN+GnIGvtmqgK/4oW6TQZo1UF/dpbE1eeb49f0lYjOPM07dMMRWQK1W5tlWjLlQoVjYQDynKShgLIszYIAIHf3u4CLZs/2RAVbSglaPL+EUZYnU/Ru790wff3JYYG2beG2BoT6sMI2pYRUDwolLmihv28XyM+N/TBHMgfJQggDcrRijY37NY1udRm/EnmrsxehOSmZpLwJ4UNTJ23YMRZqSNUqT6F0DQvkpzGvkARN2n2JZOhLZvU0bpeGg3pilOIi4IF2ZsmXB0Fl4NLV/P8rT2lXbuZznNNBAboPTgdngZalK4COhJ4DYYCXw1OMCnFN5hGzDqfIu3bpcKgwa5SWge91DXEAEY1Na9acGuo4jS1LgCvYkNpIcyb5O0zJARbipMKwLFwJGGCpg9YJYylABay17TONDSuQZ7dz6LG0GokRgjA0WJyJEZfqx1U4/5sqEQLYQYoG+pJA8w738FS8VnrBXC95qhTG/q2JiYDi+g0a0wwcH7eFADZOeHuovaFaXZM7H3QZhiJYNMmX3K2Rqva2SyyIGxFdVSaPvBE3RbtYZoLjDj4bG0aI+FLsv6tbeb+16XNX7+7P/yCAgP53pb9HbX+B3SNz6+A7FS063OoLzTx9trQjex2Ss5jfz2u8AQTQS2CGhOwzqiwR3FPNMNHmbreXxEbIZYm/aZd+86Q8hzYTMveco2U43j7eAYIMAEKLa9y+awP0QSNv0hKC+fNU/WpOhVlNIedmrhJbXlDamvpYmkvjvblIWp4KH87MkKfdZvPDqOFrgW8t5ZJAhJWzJGG04dwgKLRUWx4DdhI86RetXem4RAMDb7oRApXK5noA0lAfRjq+raHmu5q+cEFJIN2ueqzH9xK0oYSlHl7anGRR310J2knfpnyzlgq7e+8KQDpyFh51UBHuzbhea99aipT4WfEO26vgqsHXSw3tN5+GgTYaDwTzKHyL+WVmkabNKS7CAJ6UvtiiKfZc920oVbZm57g6F/AWpiotjx7fz50mlzREI++z/7Ir1n820r7Y6Fl7YHV7gcqCYiNs7k3DtCHjhBx77NxsU0e7/e3hqo912r7/PlV0+bj43P/HBfRR1uzMCkkTQNQ6jysPgmojyAdbf4foVEa/W1NHPr8R9OWa1QtknK9DwIoIViIRPljlDTJOJo5tCyB5HEuKAgbUYshQERa2sMwND/ExVowv+lGIUyzFcPbxaq9CdpSRTK0yIf7ROYCZVn8SvlyRfSTpiEgv+lDPZ0SSUprzprgHfTRTvU7EFUs/HehaO9X5e1z1eeufomu+0/D+/s53R9SBh7u7v4Xs8ZF/rZ8C1UAAAGEaUNDUElDQyBwcm9maWxlAAB4nH2RPUjDQBzFX1NFkRYHC4o4RKhOFoqKOEoVi2ChtBVadTC59AuaNCQpLo6Ca8HBj8Wqg4uzrg6ugiD4AeLm5qToIiX+Lym0iPHguB/v7j3u3gFCo8JUsysKqJplpOIxMZtbFXte4ccggohiVGKmnkgvZuA5vu7h4+tdhGd5n/tzBJW8yQCfSDzHdMMi3iCe2bR0zvvEIVaSFOJz4gmDLkj8yHXZ5TfORYcFnhkyMql54hCxWOxguYNZyVCJp4nDiqpRvpB1WeG8xVmt1FjrnvyFgby2kuY6zRHEsYQEkhAho4YyKrAQoVUjxUSK9mMe/mHHnySXTK4yGDkWUIUKyfGD/8Hvbs3C1KSbFIgB3S+2/TEG9OwCzbptfx/bdvME8D8DV1rbX20As5+k19ta+Ajo3wYurtuavAdc7gBDT7pkSI7kpykUCsD7GX1TDhi4BfrW3N5a+zh9ADLU1fINcHAIjBcpe93j3b2dvf17ptXfD7iFcsOX9lWFAAAABGdBTUEAALGPC/xhBQAAAAlwSFlzAAAuIwAALiMBeKU/dgAAAAd0SU1FB+UDFxAgLcxO7sAAABQpSURBVGje7Vt9lFxlef/d77kf870zmclkN5ssCQGyATwon5KA0ULA2nqKbVHUKkWBY4EqVFGLln6cUz2tFj8gBfEDDtq0oqUGrKgEaDAIJEHIJtndyW5md2d253vu3Lnf9/aP5L3emdA2QIL+0XvOnszOvTP7/t7neX7P8/yeNxR+S67LrnqIPnd95yOeW70NPhXxwc5FIpGXQAkHTYuZFEVxSpJTrUd+XCv99JH3u6/lb1C/DUA/d+cDMsd07jb0patd16J93w/usSwDmmZBM7xNU1RPENM/5fjoz1guumuh3FN1XUc8xlWqdVhajzZm5zt44kfXBV+wactWGoD/xPbr/N8s2NxXqTtuUM4ShfY9eq/+ZtftNxjDMKAoCo7jwPO8I9ahKLAsC56PABQDyzTA8ZLu++xBno8cohixJPDi847LvVhvS1P3f39KL++90dm4ZSv9GwN7wy0PsaMrnPdbRvkLrqOnCBDXdeH7PjzPg+u6fSBpmgbLsn3P8DwP13XhOA4oijq6GTxohjF4TuoYlnRfsSR//sFvfMD8jYD9+F88IAyl9C/Bb35E73UpiqLg+z5s28agdck93/fBsixomoZt2wAAmqYhCAJc1w0+R0LA9310u13Ytgcldvo1Tz/PPsi+0UD/8a6HV9pG5but5ty5jmNTvu+DpunAgoMLDt/zPC8ASu67rguKosAwTACYoihomoZutwvP85BK6+tMR6HeMLAXX3YPe/klsTfp3dnvNZsLo67jgKZpAAjcMgyUvCa/hy1K7lEUBdu2wXEcPM+D4zgAAMMw0Gq14DgO1qxZg2R6ub33qfd59MkAdsmV/3xMeFyxOfp+xy79rFGfG7UtK1ic4ziwbTv4l8Sq4zh9sWvbNmiaBk3TQWwS0J7nBe9ZloV2uw3TNFEoFJDJZMAwkRIAnHTL3vaZh5lktH1btz15h6o2Bc/zAquE3ZQAGbQoIS3CyoSoyHeQTSHPqaoKXdeRzWZRKBRAUTRUDZMnDaznHVno9Td/Ly4LC5/vqpWPddUOHWZWYpFff8Y7JkaJW4atSJ51XRc0TYNhGDiOA9d10el0oGkaFEVBoVAAwzCwbN93HH3PSSsqNm3Zyp55urxiKFH/itYtbzFNgyJWCQMMMy15Td4f/J1sRPhZYmXXddFut6FpGliWxejoKFiWhe/74PiopWqJQrUp1k+4ZfnTv06ddQb3tnSi+vVed3GVaRp98UcAk4V7ntcXc+GLACL3w2zr+35ATKqqQtM0eJ6HfD6PXq+HiYkJHDp0CLFYnB/fcO7edDr/4xMK9n3XfofOpbvvjcqL/9Drtocsy4Jt231MG349mG583wfDMH2phmzC4EaQ57rdLlRVheM4yOfzoGkaxWIRpVIJvu9DFCPQe7XlYmH5lScM7Luv/qackOZvs43q7R0HLMuyiEQiYBgGpmn2VUIk1YTdMhy34Z/wFSYwANA0DZ1OB5ZlYWhoCKIoYnFxEbOzszAMA8lkEtFoFCMjI1i2LLt4wsBmU813LVV+9Zlly1K0YXiYn59Hp9PB2rVrkUqlIEkSPM+DruvQdT1g1nDFFI5TsgmDFj3SHLAwDAOdTge6riMWiyEajaLRaODQoUNoNpuIxWJQFAX5fB6rV6+G7TKdEwL2LZfey3dav/pos7lET0/vx9DQEEzTBMdxAIBWq4UdO3YglUohlUpBURQIggBFUeA4DnRdD9iXWJSkIuLKYUIyDAPtdhuGYYDnecTj8QDo/Pw8eJ6HKIpIp9MYHx8Hy7JoddypEwL27DO8TKlYOsv3fSwtLYHjOOi6DlmW8eSTT2L16tUwTRNzc3NQFAW+72NiYgKtVgurV69GPB5HPB5HJBKBruvwPA+macJ1XbAs2wfWNE2oqoperwcASKfTUFUVMzMzmJubg+/7iEajiMViWL9+PdLp9NHU5BknBKzRLW62LU2hKArRaBSiKKLZbCISiaBarSKRSEDTNGQyGUxMTCCRSEDX9SCef/nLX2Lt2rWYnJzEihUrIElSAF6SJPi+D8uyYFlWANRxHKTTaXS7XczNzaFcLsNxHCSTSciyjLGxMYyNjQWekUhILzKvF+i1N9xPtxv772Bo87Tly5dDkiQsLS0hEokE8SWKIgzDgCAImJychKIoUFUVgiBgfn4esiyjXq+j1+theHgYkiTBtm08++yz6HQ6aDQagVs3Gg3Yto1EIgGGYVAqlVCpVKBpGqLRaEBIZ5xxBiRJAkVRiIjRMscN3fqaLLvx8q0UAOx49Dq/3Vos+L6xSRRFFItFNJtNdDodjI2NYd26dSgWi5idnYWiKNA0DfF4HIIgoNlsgud50DQNx3EwMzODXC6Hl19+GY7jQJIkaJoGWZYRi8UgCALK5TJs24YoihAEATMzM1hcXISqqpAkCYqiIJvNYtWqVeB5/uj3KC7LpW5579WbS68J7I5Hj8ge4xfew+Qy9ds9J5FoNBpQVRXRaBTpdBo8z2NhYQGdTge9Xg+5XA6lUgnJZBI0TYPjOMiyDIZhMD09DVEUA68gliwUCpiZmUG320U0GoVpmsjlcvA8D6VSKUgxHMcFf3dsbAyKogSNP80o/1KtOdteV228cctWesulmdPy2egfLSzQmJubw/r16wPXmZqaAs/ziEQiGB4ehqIo4DgOqVQKvV4PkiQF/aYgCBAEAZFIBDzPY2RkBJZlQVEUtFotlMtl1Go1ZLNZUBSFWq2GhYUFdLtd0DSNRCKBeDyO0dFRZLNZuK4LjuNAM+JkW2Vv3fbIYf91gc2mBPbsM3O3DKUjicnJCdx8880AgFqthkajgUqlgjVr1sCyLKRSKXQ6HQwNDSGVSqHZbGJoaChourvdLiKRCGKxGMbHx1EsFnH48GHIsoxOp4NCoQBSpBiGgUqlAlVV4XkekskkEokEhoeHkc/noaoqRFE8yhnCP333B/NligIFwH/NYC86L3ZOuVx8b3nhSJl27rnnQhAElEolPPbYY7jpppswNzeHDRs2oNPpYPfu3VixYgWq1SqWL1+OSCQCy7IwOjqKVquFdDqNRqMBXdfRarUQiUSQSqUwOjqKXq+HQ4cOged5tFotqKoakFQ0GkU+n0c+n0e324VpmhBFEd2uoak9dteTj14X1KSviY0//qmHFAbzD9aq8yv37dsHz/OwsLCASqWCxcVFcByHQqGApaUlXHzxxZiZmUEymcSKFSvgeR5OPfVUMAyDeDwOXddB0zRyuRympqZgGAYYhsHw8DDK5XIAnmEY0DQdMK8sy4jH48jlcli5ciV0XUez2YSiKDBNE1PF+hcrNeWBfS8+htcM9t1X38fm0vU7e93ye0gFYxgG5ufnMTU1hd27d6PRaKDVaqFYLCKZTCKTyWBsbAzFYhFXXXUVKIoCz/MYHx+HpmnI5XJBRUXybCwWQ7lcRqfTAUVRyGazqNfrWFxcDKqmZDKJ0dFRAAjc1/d9zMyWS7WG+OHtP7xT62seXg3Q333PVmbdau1WeLVPG4ZOO44Dy7JgmiYcx4FhGPA8D5ZlYW5uDpqmwTRNrFy5Env37sXMzAx830exWMT5558fNOcbNmzA/v37sXnzZpx++ulBsRGJRDAyMoJVq1YhEolg3759MAwD8Xgc0WgUo6OjiEajQdVFURTq9ZZdbykffOrn975wTE19vED/8APf4U4Zqf2lZS5+0jJ1hnQxpNUiYhgRwYjyt2fPHuzcuTNg3Hq9jlarFWzSeeedh1wuh3q9jocffhg33ngj1q1bB9d1cc0110DXdfA8j4ceegjtdhuKoiAajSKbzSKZTAaSjSAI0HUDlSXn26yy/pFXwnBclr3l1vukbKr6ZcdautnQe0y43wwX6AzDBLUsad/Cei8p+imKQq/XQ7lchizLWLZsGTZu3IiFhQXk83mwLIv9+/ejXC7jnHPOAcuyuPvuu2HbNvL5PBKJBBRFCRoJ0uAXi/NdcKf9mSAWaocO/od73LOejVu2sju2X+f8+W33Lxe48lZTr1/hOHagLIQbbtKdhPvQsEwaFrFJsidimW3b6Ha7iMfjcF0Xb33rW3HZZZehXq/j4MGDME0TlUoF27ZtQyKRAM/z8H0fqVQK6XQ6UD1KpRIabeWO53Z9/69e1WBr05atlOOCPmfcWxuT2z9U1cU1lmkeI5QNKoXhdoz0pWReExa1iUBGhLOwVEMsn8/nYVkWOI7DzMwMDh8+HBQLxBtIAVGv1zE339spKOvfIcjr9Ce2f9R7JVzs/7QFb95gnSXyjX/rqq2Vjm33iWVhy4ZBhFWHsLxJtF4CSBCEPk14sIEnVZIkSTBNE4ZhwDTNQF8WRTH4rGEYqCyqi5y45kPP7PiS9r+F4yuCveBN1u94TvUblqnlyULCbhp2WwIuLK0MqoNhiw+KaRzH9TUELHtkSTzPg2VZtNvtoKUj/S1Zg2VZmJ2d82l2+PpfPL31wP/FPX1gb739AToqdW42epU7TUOVCKCwMPZKwtnge2HrD1o6LLeEfwgAjuMCcjMMA5qm9Yl2hPxs28bc3DxMW/mBkli1fdOWe9gntn/EOS6wH77hWzGOXvpET6t/xjJ1ikgkYUCDmlB4bEEWwfN8sPiw9BkGH5ZHBz0l7PakLAyPLklfq2ka2ioOyNHlH9rxk78xjyersJu2bGUuOEdRBLb6bUOvvdO2TCqsBYVzKbnq9ToqlQqq1WogY/q+D57nkUwmUSgUkM1mwTBM30YNAg/rweEBFkVR6HQ6UFU1+PvEIxjmSLZstXuqFD3jYzufvK91vLUC++azFEkRW/+qdZc2E0F7MH+SRei6jgMHDmBqagqapvXtOFns4uIipqensXr1aoyPj0OW5WOmAOGZTVgxJMAsy0Kz2QxilOO4oMSkaRqttuZGpDWf/sXT3/rJq6kA6aGkdq1lVTcPitmDRGJZFl544QXs3bsX7XY7cK/B+PV9H6Zp4uDBgyiVSn3pJzxPDWvBxLU5jgtSiWmafdZPp9NH9SiA5VZ8QYqf/dVXW9fT8M3POkeBhucug2PBdruN6enpPrIYJKiw9TzPQ6VS6QMaHjmG3w9/ptlsot1uBynJ87y+yoxhY/MReeUXd/7ss96rBuu6ZpIsgFghvKCwBUjhPpgTX4m8ACAej/cRVZgDwt8RJqRGoxE6T+HCdX1Ylu/7vg/Pp21BHL71uWfurocVk+MGq6qawzAMYrFYMK7gOC6IIZIGBEFAPp/vI5tB4gnPYTZs2IB169b1pZyw9YmVWZYNFP5qtRp0TkfOWLA1w85ebbqFjYYZeZZhhx4Ek/lenx62/brjtjBzyinjHygvzKQoigpUO0EQgsUTEuE4LqhFCTkNujpN0xgeHsb555+PM888MygABglq8JiPZVmoVqtot9vBc65HW4Zd+OBzux7atlTZd3jFqsufoWj58d277m2+VnWFtW375WKxOHbo0CGIoohsNotMJoNsNgtZlmEYBizLguu6yGQyOO+887B27dpAQnFdN/CGRCKBTCYDnudhWVaQksjhjnB8kk6IxGmr1QriE6BgWvG/e37Xd74fhMTQW/Y9sf1a//Vo3KwoRWtk9NdsNlGtViGKYiB55HI5xGKxoIigaRqSJKFQKPQd0QmXlIMxGi4hSStIQKuqGvS3hC8Mk9vrMWNfCi/09QIFANZ1MUPIp1qtBhpsq9UKZjOpVAqZTAaZTAbRaBQ8zweDK8KYxCokN5J8PUhiBDzLstB1HbVaDb1eL3jOdnxbN+PXx5ed2tl4+dfZHY9e75yoSSPrelyN446QBCn/HMeBoigAgF6vh0ajgVKpBEmSkEwmkc/nkclkoChKIKEQVyfTOFI6hmObeADLsjBNM4jT8Ok0w4p9bc/z257ZePmmoR2P3lg7kcNy1nHoAywnIxZzUCgUMDc3B8dx0Ov1AgGLgOl2u0d6x7k5SJKEdDqNbDaLVCqFWCwWSDLW0aM/4TQTzrOkISdnlYLCxY4UKeG0v79kyxWM51P1E30EgrW8Zb8SIqkXPdfYcNFFF2FychITExMBkw6eZiFnkgjw2dlZyLKMZDKJVCqFfD4fACfgifV7vR5UVUWlUoFhGL8eUdA0AMbx6JGPy9FTaoAnURR0AM6JBEsBwDuu+MSo2jrwwJnjKy7MZjNoNBqYnZ3Fnj17jqmYjknURwmH9KWiKCIajQYDKYZhYNs2Op1OMEAmeZs0GAzDwnYT98qpt99M06z98+0fs07GKR4WAP7zR1+c2fL7d73Tdpd+z4f0J2p34S3T09NCuON5pXxJLE0Gw2SYXKvV+iqjMCOzLAtBEILUQ9M0QClTFDdyOyhB9OHoJ+sA2jEa1JZ338X4bnVtfWn/H2vdyh/o2tJphtHpq5vDEowsy1hcXIRt24FlybgwzMAEOMdxEEUxeI6iGMujR656dud3//1kn7Y7RkqdnHjUnzqwo7bm7E/ukEXpfpYTHue4GE/BGfU8m/c8lwozqyiKGB4eRq1WC1JQON4Hj+YRNSISiYAXBDhu8su8cu7XSsXH/ZMN9rhPuF146e0j7ca+zaZee5djdzebxpLkeR44jsPZZ5+NZrOJl156CYZhQJbloKYONwkkHUmShGg0CoZNTNg49cLndt7VxBtwverjfBsvv4vpNJ7PWqZ6kanXrjKNxtsV2UusOWUMlmWhWCxCVdW+XpfEZhisLKdbbOSUdz7z1P1Pv1HHgF/9yJLivd27vlkGsA3AtnMuuCmndaavPDDZeRf8ziW6rsuDbjvYEnJ8YpIWzvhTXhn/L+D+N+xg9wk7qHnBpk8xlllLW2b7Sl0rv88y1XWe20v5viVQlAeGEW1eUKqyknuYl1b99a6nvlLBG3ydtP8jcMHbPpfQ2pPDNOWO0JTL0wxzWJRXTz75+N928P/Xyb/+Gw+g04deoQv9AAAAAElFTkSuQmCC;spacing=0;" parent="1" vertex="1">
          <mxGeometry x="334" y="2718" width="59" height="58" as="geometry" />
        </mxCell>
        <mxCell id="5ZAUk3ZZXwPiC2q51OY_-381" value="" style="group;spacing=0;" parent="1" vertex="1" connectable="0">
          <mxGeometry x="69" y="2460" width="50" height="158" as="geometry" />
        </mxCell>
        <object label="Tank A" Tank1="" id="5ZAUk3ZZXwPiC2q51OY_-382">
          <mxCell style="shape=mxgraph.pid.vessels.tank;html=1;pointerEvents=1;align=center;verticalLabelPosition=bottom;verticalAlign=top;dashed=0;spacing=0;" parent="5ZAUk3ZZXwPiC2q51OY_-381" vertex="1">
            <mxGeometry width="50" height="158" as="geometry" />
          </mxCell>
        </object>
        <mxCell id="5ZAUk3ZZXwPiC2q51OY_-383" value="" style="group;spacing=0;" parent="5ZAUk3ZZXwPiC2q51OY_-381" vertex="1" connectable="0">
          <mxGeometry y="18" width="50" height="90" as="geometry" />
        </mxCell>
        <mxCell id="5ZAUk3ZZXwPiC2q51OY_-384" value="RS 232" style="pointerEvents=1;verticalLabelPosition=bottom;shadow=0;dashed=0;align=center;html=1;verticalAlign=top;shape=mxgraph.electrical.miscellaneous.small_d_connector;spacing=0;" parent="5ZAUk3ZZXwPiC2q51OY_-383" vertex="1">
          <mxGeometry y="70" width="50" height="20" as="geometry" />
        </mxCell>
        <mxCell id="5ZAUk3ZZXwPiC2q51OY_-385" value="&lt;div&gt;Tank&lt;/div&gt;&lt;div&gt;Monitor&lt;/div&gt;&lt;div&gt;Unit&lt;/div&gt;&lt;div&gt;Interface&lt;/div&gt;" style="text;html=1;strokeColor=none;fillColor=none;align=center;verticalAlign=middle;whiteSpace=wrap;rounded=0;spacing=0;" parent="5ZAUk3ZZXwPiC2q51OY_-383" vertex="1">
          <mxGeometry width="50" height="70" as="geometry" />
        </mxCell>
        <mxCell id="5ZAUk3ZZXwPiC2q51OY_-386" value="" style="shape=mxgraph.signs.transportation.truck_3;html=1;pointerEvents=1;fillColor=#000000;strokeColor=none;verticalLabelPosition=bottom;verticalAlign=top;align=center;" parent="1" vertex="1">
          <mxGeometry x="218.75" y="2741" width="98" height="44" as="geometry" />
        </mxCell>
        <mxCell id="5ZAUk3ZZXwPiC2q51OY_-387" value="" style="group" parent="1" vertex="1" connectable="0">
          <mxGeometry x="470.51" y="2355" width="200" height="350" as="geometry" />
        </mxCell>
        <mxCell id="5ZAUk3ZZXwPiC2q51OY_-388" value="" style="rounded=0;whiteSpace=wrap;html=1;spacing=0;" parent="5ZAUk3ZZXwPiC2q51OY_-387" vertex="1">
          <mxGeometry width="200" height="350" as="geometry" />
        </mxCell>
        <mxCell id="5ZAUk3ZZXwPiC2q51OY_-389" value="Pump 3" style="shape=mxgraph.signs.transportation.gas_1;html=1;pointerEvents=1;fillColor=#000000;strokeColor=none;verticalLabelPosition=bottom;verticalAlign=top;align=center;spacing=0;flipH=1;" parent="5ZAUk3ZZXwPiC2q51OY_-387" vertex="1">
          <mxGeometry x="88.75" y="82" width="31" height="37" as="geometry" />
        </mxCell>
        <mxCell id="5ZAUk3ZZXwPiC2q51OY_-390" value="Pump 4" style="shape=mxgraph.signs.transportation.gas_1;html=1;pointerEvents=1;fillColor=#000000;strokeColor=none;verticalLabelPosition=bottom;verticalAlign=top;align=center;spacing=0;" parent="5ZAUk3ZZXwPiC2q51OY_-387" vertex="1">
          <mxGeometry x="91.5" y="280" width="31" height="38" as="geometry" />
        </mxCell>
        <mxCell id="5ZAUk3ZZXwPiC2q51OY_-391" value="" style="shape=image;html=1;verticalLabelPosition=bottom;verticalAlign=top;imageAspect=0;image=img/clipart/Gear_128x128.png;direction=west;spacing=0;" parent="5ZAUk3ZZXwPiC2q51OY_-387" vertex="1">
          <mxGeometry x="94.25" y="32" width="25.5" height="30" as="geometry" />
        </mxCell>
        <mxCell id="5ZAUk3ZZXwPiC2q51OY_-392" value="" style="shape=image;html=1;verticalLabelPosition=bottom;verticalAlign=top;imageAspect=0;image=img/clipart/Gear_128x128.png;direction=west;spacing=0;" parent="5ZAUk3ZZXwPiC2q51OY_-387" vertex="1">
          <mxGeometry x="35" y="284" width="25.5" height="30" as="geometry" />
        </mxCell>
        <mxCell id="5ZAUk3ZZXwPiC2q51OY_-394" style="edgeStyle=none;html=1;labelBackgroundColor=none;endArrow=none;endFill=0;strokeWidth=2;fontFamily=Verdana;fontSize=15;fontColor=#036897;spacing=0;entryX=0.5;entryY=0;entryDx=0;entryDy=0;exitX=0.41;exitY=0;exitDx=0;exitDy=0;exitPerimeter=0;" parent="5ZAUk3ZZXwPiC2q51OY_-387" source="5ZAUk3ZZXwPiC2q51OY_-389" target="5ZAUk3ZZXwPiC2q51OY_-391" edge="1">
          <mxGeometry x="75" y="195" as="geometry">
            <mxPoint x="80" y="47" as="targetPoint" />
            <mxPoint x="115" y="47" as="sourcePoint" />
          </mxGeometry>
        </mxCell>
        <mxCell id="5ZAUk3ZZXwPiC2q51OY_-395" style="edgeStyle=none;html=1;labelBackgroundColor=none;endArrow=none;endFill=0;strokeWidth=2;fontFamily=Verdana;fontSize=15;fontColor=#036897;entryX=0.095;entryY=0.5;entryDx=0;entryDy=0;entryPerimeter=0;exitX=0;exitY=0.5;exitDx=0;exitDy=0;spacing=0;" parent="5ZAUk3ZZXwPiC2q51OY_-387" source="5ZAUk3ZZXwPiC2q51OY_-392" target="5ZAUk3ZZXwPiC2q51OY_-390" edge="1">
          <mxGeometry x="75" y="195" as="geometry">
            <mxPoint x="825" y="515" as="sourcePoint" />
            <mxPoint x="875" y="514.9992857142857" as="targetPoint" />
          </mxGeometry>
        </mxCell>
        <mxCell id="5ZAUk3ZZXwPiC2q51OY_-401" value="Pump Relay" style="text;html=1;strokeColor=none;fillColor=none;align=center;verticalAlign=middle;whiteSpace=wrap;rounded=0;" parent="5ZAUk3ZZXwPiC2q51OY_-387" vertex="1">
          <mxGeometry x="50.25" y="37" width="40" height="20" as="geometry" />
        </mxCell>
        <mxCell id="5ZAUk3ZZXwPiC2q51OY_-407" value="Pump Relay" style="text;html=1;strokeColor=none;fillColor=none;align=center;verticalAlign=middle;whiteSpace=wrap;rounded=0;" parent="5ZAUk3ZZXwPiC2q51OY_-387" vertex="1">
          <mxGeometry x="28.5" y="260" width="40" height="20" as="geometry" />
        </mxCell>
        <mxCell id="5ZAUk3ZZXwPiC2q51OY_-411" value="" style="endArrow=classic;html=1;strokeWidth=2;exitX=1;exitY=0.75;exitDx=0;exitDy=0;spacing=0;entryX=0;entryY=0.5;entryDx=0;entryDy=0;" parent="1" source="5ZAUk3ZZXwPiC2q51OY_-385" target="5ZAUk3ZZXwPiC2q51OY_-346" edge="1">
          <mxGeometry x="91" y="2358" as="geometry">
            <mxPoint x="141" y="2499" as="sourcePoint" />
            <mxPoint x="263" y="2533" as="targetPoint" />
            <Array as="points" />
          </mxGeometry>
        </mxCell>
        <mxCell id="5ZAUk3ZZXwPiC2q51OY_-412" value="Serial Comm" style="edgeLabel;resizable=0;html=1;align=center;verticalAlign=middle;spacing=0;" parent="5ZAUk3ZZXwPiC2q51OY_-411" connectable="0" vertex="1">
          <mxGeometry relative="1" as="geometry">
            <mxPoint x="-38" y="-17.9" as="offset" />
          </mxGeometry>
        </mxCell>
        <mxCell id="5ZAUk3ZZXwPiC2q51OY_-414" value="" style="endArrow=classic;html=1;strokeWidth=2;endFill=1;startArrow=classic;startFill=1;spacing=0;strokeColor=#FF0000;entryX=0.05;entryY=0.05;entryDx=0;entryDy=0;entryPerimeter=0;exitX=0.1;exitY=1;exitDx=0;exitDy=0;exitPerimeter=0;" parent="1" source="5ZAUk3ZZXwPiC2q51OY_-367" target="5ZAUk3ZZXwPiC2q51OY_-355" edge="1">
          <mxGeometry x="48" y="2220" width="50" height="50" as="geometry">
            <mxPoint x="391" y="2972" as="sourcePoint" />
            <mxPoint x="463" y="3272" as="targetPoint" />
          </mxGeometry>
        </mxCell>
        <mxCell id="5ZAUk3ZZXwPiC2q51OY_-415" value="" style="endArrow=classic;startArrow=classic;html=1;strokeWidth=2;spacing=0;strokeColor=#FF0000;exitX=1;exitY=1;exitDx=0;exitDy=0;" parent="1" source="5ZAUk3ZZXwPiC2q51OY_-346" target="5ZAUk3ZZXwPiC2q51OY_-367" edge="1">
          <mxGeometry x="48" y="2220" width="50" height="50" as="geometry">
            <mxPoint x="401" y="2566" as="sourcePoint" />
            <mxPoint x="401" y="2939" as="targetPoint" />
            <Array as="points">
              <mxPoint x="424" y="2541" />
            </Array>
          </mxGeometry>
        </mxCell>
        <mxCell id="5ZAUk3ZZXwPiC2q51OY_-416" value="" style="html=1;outlineConnect=0;fillColor=#e1d5e7;gradientDirection=north;strokeWidth=2;shape=mxgraph.networks.comm_link_edge;html=1;startArrow=classic;startFill=1;endArrow=classic;endFill=1;entryX=0.5;entryY=0;entryDx=0;entryDy=0;exitX=1;exitY=0;exitDx=0;exitDy=0;strokeColor=#9673a6;spacing=0;" parent="1" source="5ZAUk3ZZXwPiC2q51OY_-345" target="5ZAUk3ZZXwPiC2q51OY_-380" edge="1">
          <mxGeometry x="21" y="2481.2" width="100" height="100" as="geometry">
            <mxPoint x="225.75" y="2703.7" as="sourcePoint" />
            <mxPoint x="416.5" y="2999.42" as="targetPoint" />
            <Array as="points">
              <mxPoint x="370" y="2920.42" />
            </Array>
          </mxGeometry>
        </mxCell>
        <mxCell id="5ZAUk3ZZXwPiC2q51OY_-417" value="&lt;div style=&quot;font-size: 8px&quot;&gt;&lt;font style=&quot;font-size: 8px&quot;&gt;Aim&lt;/font&gt;&lt;/div&gt;" style="image;html=1;image=img/lib/clip_art/telecommunication/Signal_tower_on_128x128.png;rotation=0;spacing=0;" parent="1" vertex="1">
          <mxGeometry x="222" y="2721" width="20" height="25" as="geometry" />
        </mxCell>
        <mxCell id="5ZAUk3ZZXwPiC2q51OY_-419" style="edgeStyle=orthogonalEdgeStyle;rounded=1;orthogonalLoop=1;jettySize=auto;html=1;fontSize=14;fontColor=#000000;strokeWidth=2;entryX=1;entryY=0;entryDx=0;entryDy=0;exitX=0.707;exitY=0.468;exitDx=0;exitDy=0;exitPerimeter=0;" parent="1" source="5ZAUk3ZZXwPiC2q51OY_-389" target="5ZAUk3ZZXwPiC2q51OY_-346" edge="1">
          <mxGeometry relative="1" as="geometry">
            <mxPoint x="410" y="2530" as="targetPoint" />
            <Array as="points">
              <mxPoint x="540" y="2454" />
              <mxPoint x="540" y="2521" />
            </Array>
          </mxGeometry>
        </mxCell>
        <mxCell id="5ZAUk3ZZXwPiC2q51OY_-393" value="" style="endArrow=classic;html=1;strokeWidth=2;exitX=0.41;exitY=0;exitDx=0;exitDy=0;exitPerimeter=0;spacing=0;entryX=1;entryY=0.5;entryDx=0;entryDy=0;" parent="1" source="5ZAUk3ZZXwPiC2q51OY_-390" target="5ZAUk3ZZXwPiC2q51OY_-346" edge="1">
          <mxGeometry x="545" y="2551" width="50" height="50" as="geometry">
            <mxPoint x="1065" y="2941" as="sourcePoint" />
            <mxPoint x="571.5" y="2590.2249999999995" as="targetPoint" />
            <Array as="points">
              <mxPoint x="575" y="2531" />
            </Array>
          </mxGeometry>
        </mxCell>
      </root>
    </mxGraphModel>
  </diagram>
</mxfile>
